{
.appVersion = "3241";
.formatVersion = 3;
DisplayStrings = (
"LC
a+ 
aah naan ab/_part.o ott abduct action
nadmit tað aeon after again ahoy adjust faker alike logjam an ape aorta aqua arc apple jack ba/_part.s ketball haß e/_part.x xpatriot autumn gavel awe axe says bedazzle anlaß
+a 
aardvark bad calf daffy afboða easy fall gaia hao miao jab kap plan mail nabbed oars pangolin qa rats save tablet ua vats wa xa yay zara großartig

b+
bad dribble ribcage cabdriver bed obfuscate hobgoblins bhindi bicycle bjorn liebknecht bliss crabmill snubnose boss subpoena subquality brick absolute debt butter obvious bwana subxhosa by  jekabzeel  

+b
abaca ebb cbs dbx ðb ebony afbakenen bangbroek hb ibis jb kb lb ambacht nb observe pb qb absorb sbaen tbilisi uber vb cowbell xbox cybernetic uzbek ßb
kisses kn

c+
 cab ecbolic lucca anecdote cedar flicflac marcgravia cheese oscillate acjo chicken cliff acme picnic cobbler pincpinc lacquer crime ne tropics object cute mechanicville arcticward cx cypriot czech cß

+c
ac bc accede headcount ðc ecru defcon dogcatcher ashcan ice aramejczyk crankcase lc mc nc ocular pc qc rc sc tc uc vc wc xc yc zc spießchen

d++
darling db adcraft nodded deep boldface porridge dharma dime django maidkin coddle adman wednesday done dpt. pdq drink kids burkhardt dunes medvedev dwiggins dx dynamoe adzuki dß

+d
ad bd cd dd ðd ed fd gd fahd acid ejder kd old md and anode pd qd rd misdeed td ud vd wd xd boyd zd ßd

 e+
easy treble mechanic educate effort ego meh ein applejack lekker eleven empathy end georges pepe eq inquieries estimate adieu ever ewer expert eye bezier grieß

+e
aerie ben cello demon blóðeitrun eek female gehena helios ie jelly kewpie lei men new noel pen qe rescue semiotics teller ue venus welcome xerox yen zebra außen

f+
 famous offbow briefcase halfdressed fey off puffball sgraffito offhand offkey safflower afghan sulfhydryl finally fjord kafka fly fm dwarfness for rafpin fq free elfship left doffs lift fun fv halfway fx iffy ufza fß


glyphs = (
{
glyphname = A;
kernLeft = A;
kernRight = A;
layers = (
{
anchors = (
{
name = bottom;
pos = (639,0);
},
{
name = ogonek;
pos = (1184,10);
},
{
name = top;
pos = (993,2008);
}
);
layerId = m01;
shapes = (
{
closed = 1;
nodes = (
(107,-5,o),
(117,9,o),
(146,66,cs),
(636,1025,l),
(1090,1025,l),
(1167,58,ls),
(1169,27,o),
(1177,-5,o),
(1234,-5,cs),
(1281,-5,o),
(1294,18,o),
(1290,61,cs),
(1129,1968,ls),
(1127,1996,o),
(1111,2013,o),
(1066,2013,cs),
(1010,2013,o),
(1009,1991,o),
(985,1944,cs),
(11,74,ls),
(-17,20,o),
(11,-5,o),
(53,-5,cs)
);
},
{
closed = 1;
nodes = (
(918,1576,l),
(1048,1866,l),
(1048,1556,l),
(1081,1140,l),
(695,1140,l)
);
}
);
vertWidth = 0;
width = 1491;
},
{
anchors = (
{
name = bottom;
pos = (736,0);
},
{
name = ogonek;
pos = (1335,10);
},
{
name = top;
pos = (1090,2008);
}
);
guides = (
{
angle = 180;
pos = (934,1213);
},
{
pos = (904,950);
}
);
layerId = "140DECC1-64C4-40C0-9C07-503DBC3F4160";
shapes = (
{
closed = 1;
nodes = (
(258,0,o),
(302,26,o),
(344,101,c),
(700,803,l),
(1124,803,l),
(1181,125,ls),
(1187,49,o),
(1236,0,o),
(1332,0,cs),
(1418,0,o),
(1480,47,o),
(1472,143,cs),
(1324,1862,ls),
(1316,1959,o),
(1246,2008,o),
(1150,2008,cs),
(1048,2008,o),
(985,1962,o),
(955,1904,cs),
(60,185,ls),
(2,74,o),
(81,0,o),
(175,0,cs)
);
},
{
closed = 1;
nodes = (
(996,1386,l),
(1085,1615,l),
(1074,1384,l),
(1100,1082,l),
(842,1082,l)
);
}
);
vertWidth = 0;
width = 1638;
}
);
unicode = 65;
},
{
glyphname = AE;
kernLeft = A;
kernRight = E;
layers = (
{
anchors = (
{
name = bottom;
pos = (1055,0);
},
{
name = top;
pos = (1339,2008);
}
);
layerId = m01;
shapes = (
{
closed = 1;
nodes = (
(108,-9,o),
(111,8,o),
(149,66,cs),
(546,683,l),
(1030,683,l),
(921,67,ls),
(913,24,o),
(929,0,o),
(978,0,cs),
(2033,0,ls),
(2086,0,o),
(2101,33,o),
(2101,68,cs),
(2101,99,o),
(2089,115,o),
(2033,115,cs),
(1061,115,l),
(1221,1025,l),
(2066,1025,ls),
(2121,1025,o),
(2133,1048,o),
(2133,1081,cs),
(2133,1117,o),
(2121,1140,o),
(2066,1140,cs),
(1241,1140,l),
(1375,1896,l),
(2342,1896,ls),
(2398,1896,o),
(2409,1912,o),
(2409,1947,cs),
(2409,1980,o),
(2396,2008,o),
(2342,2008,c),
(1291,2008,ls),
(1235,2008,o),
(1218,1984,o),
(1190,1939,cs),
(14,74,ls),
(-19,21,o),
(12,-9,o),
(54,-9,cs)
);
},
{
closed = 1;
nodes = (
(1065,1525,l),
(1231,1821,l),
(1050,798,l),
(605,798,l)
);
}
);
width = 2389;
},
{
anchors = (
{
name = bottom;
pos = (1179,0);
},
{
name = top;
pos = (1540,2008);
}
);
layerId = "140DECC1-64C4-40C0-9C07-503DBC3F4160";
shapes = (
{
closed = 1;
nodes = (
(260,-8,o),
(306,26,o),
(348,101,c),
(655,542,l),
(1098,542,l),
(1029,153,ls),
(1014,68,o),
(1053,0,o),
(1144,0,cs),
(2218,0,ls),
(2309,0,o),
(2371,49,o),
(2371,130,cs),
(2371,203,o),
(2322,276,o),
(2223,276,cs),
(1370,276,l),
(1489,950,l),
(2286,950,ls),
(2384,950,o),
(2452,1010,o),
(2452,1083,cs),
(2452,1163,o),
(2392,1213,o),
(2301,1213,cs),
(1535,1213,l),
(1627,1732,l),
(2521,1732,ls),
(2615,1732,o),
(2680,1792,o),
(2680,1873,cs),
(2680,1951,o),
(2623,2008,o),
(2529,2008,cs),
(1413,2008,ls),
(1241,2008,o),
(1179,1958,o),
(1145,1904,cs),
(64,185,ls),
(-3,79,o),
(83,-8,o),
(177,-8,cs)
);
},
{
closed = 1;
nodes = (
(1160,1409,l),
(1299,1684,l),
(1147,821,l),
(808,821,l)
);
}
);
width = 2600;
}
);
metricLeft = A;
metricRight = E;
unicode = 198;
},
{
glyphname = B;
kernLeft = H;
kernRight = B;
layers = (
{
anchors = (
{
name = bottom;
pos = (732,0);
},
{
name = center;
pos = (909,1004);
},
{
name = top;
pos = (1086,2008);
}
);
layerId = m01;
shapes = (
{
closed = 1;
nodes = (
(1129,0,o),
(1377,156,o),
(1428,497,cs),
(1472,793,o),
(1302,990,o),
(930,1080,c),
(1411,1131,o),
(1515,1267,o),
(1544,1487,cs),
(1591,1847,o),
(1279,2008,o),
(607,2008,cs),
(559,2008,o),
(539,1993,o),
(529,1936,cs),
(202,80,ls),
(194,37,o),
(211,0,o),
(245,0,cs)
);
},
{
closed = 1;
nodes = (
(501,1038,l),
(1106,1021,o),
(1342,796,o),
(1302,511,cs),
(1257,193,o),
(907,117,o),
(338,115,c)
);
},
{
closed = 1;
nodes = (
(652,1896,l),
(1148,1891,o),
(1449,1785,o),
(1415,1488,cs),
(1394,1300,o),
(1237,1173,o),
(517,1131,c)
);
}
);
vertWidth = 0;
width = 1579;
},
{
anchors = (
{
name = bottom;
pos = (803,0);
},
{
name = center;
pos = (980,1004);
},
{
name = top;
pos = (1157,2008);
}
);
layerId = "140DECC1-64C4-40C0-9C07-503DBC3F4160";
shapes = (
{
closed = 1;
nodes = (
(1229,0,o),
(1543,81,o),
(1604,504,cs),
(1647,807,o),
(1517,977,o),
(1280,1081,c),
(1585,1159,o),
(1733,1303,o),
(1751,1478,cs),
(1789,1843,o),
(1439,2008,o),
(645,2008,cs),
(575,2008,o),
(513,1985,o),
(495,1881,cs),
(193,164,ls),
(176,70,o),
(243,0,o),
(323,0,cs)
);
},
{
closed = 1;
nodes = (
(647,951,l),
(1166,933,o),
(1336,822,o),
(1297,558,cs),
(1267,356,o),
(1078,291,o),
(529,278,c)
);
},
{
closed = 1;
nodes = (
(784,1727,l),
(1337,1711,o),
(1446,1615,o),
(1440,1495,cs),
(1434,1385,o),
(1403,1224,o),
(692,1205,c)
);
}
);
vertWidth = 0;
width = 1721;
}
);
metricLeft = H;
unicode = 66;
},
{
glyphname = C;
kernLeft = C;
kernRight = C;
layers = (
{
anchors = (
{
name = bottom;
pos = (817,0);
},
{
name = top;
pos = (1162,2008);
}
);
layerId = m01;
shapes = (
{
closed = 1;
nodes = (
(1036,-5,o),
(1242,132,o),
(1422,330,cs),
(1495,411,o),
(1502,444,o),
(1499,463,cs),
(1493,493,o),
(1476,506,o),
(1441,506,cs),
(1399,506,o),
(1386,461,o),
(1319,401,cs),
(1146,236,o),
(985,110,o),
(772,110,cs),
(537,110,o),
(296,402,o),
(389,940,cs),
(452,1305,o),
(605,1901,o),
(1170,1901,cs),
(1320,1901,o),
(1478,1831,o),
(1621,1681,cs),
(1658,1644,o),
(1690,1652,o),
(1710,1677,c),
(1732,1698,o),
(1727,1737,o),
(1700,1762,c),
(1548,1923,o),
(1365,2013,o),
(1173,2013,cs),
(515,2013,o),
(341,1385,o),
(262,938,cs),
(152,325,o),
(473,-5,o),
(770,-5,cs)
);
}
);
vertWidth = 0;
width = 1664;
},
{
anchors = (
{
name = bottom;
pos = (927,0);
},
{
name = top;
pos = (1202,2008);
}
);
layerId = "140DECC1-64C4-40C0-9C07-503DBC3F4160";
shapes = (
{
closed = 1;
nodes = (
(1088,0,o),
(1353,120,o),
(1533,317,cs),
(1611,401,o),
(1639,442,o),
(1639,499,cs),
(1639,557,o),
(1595,606,o),
(1514,606,cs),
(1465,606,o),
(1403,588,o),
(1330,507,cs),
(1202,364,o),
(1018,278,o),
(841,278,cs),
(612,278,o),
(492,559,o),
(557,939,cs),
(646,1464,o),
(872,1730,o),
(1231,1730,cs),
(1371,1730,o),
(1470,1698,o),
(1569,1607,cs),
(1644,1540,o),
(1738,1511,o),
(1806,1579,cs),
(1876,1649,o),
(1837,1740,o),
(1759,1810,cs),
(1595,1959,o),
(1426,2008,o),
(1234,2008,cs),
(703,2008,o),
(373,1649,o),
(248,942,cs),
(154,401,o),
(406,0,o),
(838,0,cs)
);
}
);
vertWidth = 0;
width = 1759;
}
);
unicode = 67;
},
{
glyphname = D;
kernLeft = H;
kernRight = D;
layers = (
{
anchors = (
{
name = bottom;
pos = (784,0);
},
{
name = center;
pos = (961,1004);
},
{
name = top;
pos = (1138,2008);
}
);
layerId = m01;
shapes = (
{
closed = 1;
nodes = (
(461,0,ls),
(1061,0,o),
(1566,373,o),
(1658,1067,cs),
(1740,1685,o),
(1300,2008,o),
(724,2008,cs),
(610,2008,ls),
(553,2008,o),
(541,1984,o),
(532,1935,cs),
(202,67,ls),
(195,25,o),
(211,0,o),
(259,0,cs)
);
},
{
closed = 1;
nodes = (
(655,1896,l),
(735,1896,ls),
(1225,1896,o),
(1589,1601,o),
(1530,1085,cs),
(1451,438,o),
(977,115,o),
(461,115,cs),
(341,115,l)
);
}
);
vertWidth = 0;
width = 1688;
},
{
anchors = (
{
name = bottom;
pos = (856,0);
},
{
name = center;
pos = (1033,1004);
},
{
name = top;
pos = (1210,2008);
}
);
layerId = "140DECC1-64C4-40C0-9C07-503DBC3F4160";
shapes = (
{
closed = 1;
nodes = (
(572,0,ls),
(1194,0,o),
(1716,463,o),
(1800,1085,cs),
(1878,1657,o),
(1501,2008,o),
(811,2008,cs),
(658,2008,ls),
(562,2008,o),
(515,1966,o),
(499,1881,cs),
(192,151,ls),
(177,68,o),
(237,0,o),
(333,0,cs)
);
},
{
closed = 1;
nodes = (
(785,1732,l),
(827,1732,ls),
(1295,1732,o),
(1553,1483,o),
(1501,1082,cs),
(1441,622,o),
(1043,276,o),
(572,276,cs),
(530,276,l)
);
}
);
vertWidth = 0;
width = 1825;
}
);
metricLeft = H;
unicode = 68;
},
{
glyphname = E;
kernLeft = H;
kernRight = E;
layers = (
{
anchors = (
{
name = bottom;
pos = (835,0);
},
{
name = ogonek;
pos = (1290,10);
},
{
name = top;
pos = (1140,2008);
},
{
name = topleft;
pos = (380,2008);
}
);
layerId = m01;
shapes = (
{
closed = 1;
nodes = (
(1314,0,ls),
(1367,0,o),
(1382,33,o),
(1382,68,cs),
(1382,99,o),
(1370,115,o),
(1314,115,cs),
(342,115,l),
(502,1025,l),
(1347,1025,ls),
(1402,1025,o),
(1414,1048,o),
(1414,1081,cs),
(1414,1117,o),
(1402,1140,o),
(1347,1140,cs),
(522,1140,l),
(656,1896,l),
(1623,1896,ls),
(1679,1896,o),
(1690,1912,o),
(1690,1947,cs),
(1690,1980,o),
(1677,2008,o),
(1623,2008,cs),
(612,2008,ls),
(553,2008,o),
(540,1984,o),
(532,1936,cs),
(202,67,ls),
(194,24,o),
(210,0,o),
(259,0,cs)
);
}
);
vertWidth = 0;
width = 1670;
},
{
anchors = (
{
name = bottom;
pos = (875,0);
},
{
name = ogonek;
pos = (1373,10);
},
{
name = top;
pos = (1200,2008);
},
{
name = topleft;
pos = (355,2008);
}
);
layerId = "140DECC1-64C4-40C0-9C07-503DBC3F4160";
shapes = (
{
closed = 1;
nodes = (
(1382,0,ls),
(1473,0,o),
(1535,49,o),
(1535,130,cs),
(1535,203,o),
(1486,276,o),
(1387,276,cs),
(534,276,l),
(653,950,l),
(1450,950,ls),
(1548,950,o),
(1616,1010,o),
(1616,1083,cs),
(1616,1163,o),
(1556,1213,o),
(1465,1213,cs),
(699,1213,l),
(791,1732,l),
(1685,1732,ls),
(1779,1732,o),
(1844,1792,o),
(1844,1873,cs),
(1844,1951,o),
(1787,2008,o),
(1693,2008,cs),
(663,2008,ls),
(567,2008,o),
(514,1974,o),
(499,1888,cs),
(193,153,ls),
(178,68,o),
(217,0,o),
(308,0,cs)
);
}
);
vertWidth = 0;
width = 1764;
}
);
metricLeft = H;
unicode = 69;
},
{
glyphname = Schwa;
kernLeft = O;
kernRight = O;
layers = (
{
anchors = (
{
name = bottom;
pos = (733,0);
},
{
name = top;
pos = (1087,2008);
}
);
layerId = m01;
shapes = (
{
closed = 1;
nodes = (
(1213,0,o),
(1515,353,o),
(1645,1070,cs),
(1739,1617,o),
(1532,2028,o),
(1106,2028,cs),
(692,2028,o),
(346,1658,o),
(306,1257,cs),
(298,1177,o),
(320,1151,o),
(388,1151,cs),
(1527,1151,l),
(1515,1068,ls),
(1406,433,o),
(1146,112,o),
(687,112,cs),
(537,112,o),
(389,179,o),
(244,330,cs),
(209,365,o),
(180,356,o),
(157,333,cs),
(135,311,o),
(139,274,o),
(165,248,cs),
(317,87,o),
(492,0,o),
(684,0,cs)
);
},
{
closed = 1;
nodes = (
(528,1667,o),
(818,1913,o),
(1103,1913,cs),
(1400,1913,o),
(1550,1640,o),
(1536,1264,c),
(462,1264,l)
);
}
);
width = 1659;
},
{
anchors = (
{
name = bottom;
pos = (816,0);
},
{
name = top;
pos = (1170,2008);
}
);
layerId = "140DECC1-64C4-40C0-9C07-503DBC3F4160";
shapes = (
{
closed = 1;
nodes = (
(1284,0,o),
(1614,359,o),
(1739,1066,cs),
(1841,1649,o),
(1614,2028,o),
(1164,2028,cs),
(549,2028,o),
(309,1542,o),
(309,1183,cs),
(309,1022,o),
(426,1020,o),
(477,1020,cs),
(1415,1020,l),
(1397,934,l),
(1294,498,o),
(1083,278,o),
(756,278,cs),
(616,278,o),
(517,310,o),
(418,401,cs),
(343,468,o),
(249,497,o),
(181,429,cs),
(111,359,o),
(150,268,o),
(228,198,cs),
(392,49,o),
(561,0,o),
(753,0,cs)
);
},
{
closed = 1;
nodes = (
(713,1704,o),
(893,1750,o),
(1126,1750,cs),
(1339,1750,o),
(1447,1576,o),
(1446,1298,c),
(630,1298,l)
);
}
);
width = 1824;
}
);
unicode = 399;
},
{
glyphname = F;
kernLeft = H;
kernRight = F;
layers = (
{
anchors = (
{
name = bottom;
pos = (637,0);
},
{
name = top;
pos = (991,2008);
}
);
layerId = m01;
shapes = (
{
closed = 1;
nodes = (
(317,0,o),
(326,36,o),
(332,67,cs),
(502,1025,l),
(1313,1025,ls),
(1368,1025,o),
(1381,1048,o),
(1381,1081,cs),
(1381,1117,o),
(1368,1140,o),
(1313,1140,cs),
(522,1140,l),
(655,1896,l),
(1591,1896,ls),
(1647,1896,o),
(1658,1912,o),
(1658,1947,cs),
(1658,1980,o),
(1645,2008,o),
(1591,2008,cs),
(613,2008,ls),
(553,2008,o),
(540,1984,o),
(532,1936,cs),
(202,67,ls),
(195,25,o),
(212,0,o),
(260,0,cs)
);
}
);
vertWidth = 0;
width = 1638;
},
{
anchors = (
{
name = bottom;
pos = (702,0);
},
{
name = top;
pos = (1056,2008);
}
);
layerId = "140DECC1-64C4-40C0-9C07-503DBC3F4160";
shapes = (
{
closed = 1;
nodes = (
(426,0,o),
(492,65,o),
(509,159,cs),
(649,950,l),
(1434,950,ls),
(1532,950,o),
(1584,1010,o),
(1584,1085,cs),
(1584,1163,o),
(1530,1213,o),
(1436,1213,cs),
(695,1213,l),
(788,1732,l),
(1649,1732,ls),
(1751,1732,o),
(1810,1802,o),
(1810,1868,cs),
(1810,1953,o),
(1753,2008,o),
(1659,2008,cs),
(656,2008,ls),
(559,2008,o),
(512,1972,o),
(497,1886,cs),
(194,166,ls),
(179,83,o),
(207,0,o),
(329,0,cs)
);
}
);
vertWidth = 0;
width = 1690;
}
);
metricLeft = H;
unicode = 70;
},
{
glyphname = G;
kernLeft = O;
kernRight = G;
layers = (
{
anchors = (
{
name = bottom;
pos = (771,0);
},
{
name = top;
pos = (1125,2008);
}
);
layerId = m01;
shapes = (
{
closed = 1;
nodes = (
(949,-20,o),
(1136,108,o),
(1364,450,c),
(1298,67,ls),
(1292,33,o),
(1298,3,o),
(1347,0,cs),
(1409,-2,o),
(1421,38,o),
(1427,72,cs),
(1552,781,ls),
(1561,830,o),
(1554,848,o),
(1506,848,cs),
(1450,848,o),
(1424,811,o),
(1390,730,cs),
(1222,344,o),
(988,95,o),
(755,95,cs),
(459,95,o),
(312,466,o),
(393,940,cs),
(502,1575,o),
(762,1896,o),
(1171,1896,cs),
(1321,1896,o),
(1469,1829,o),
(1614,1678,cs),
(1649,1643,o),
(1678,1652,o),
(1701,1675,cs),
(1723,1697,o),
(1719,1734,o),
(1693,1760,cs),
(1541,1921,o),
(1366,2008,o),
(1174,2008,cs),
(695,2008,o),
(393,1655,o),
(263,938,cs),
(169,391,o),
(376,-20,o),
(752,-20,cs)
);
}
);
vertWidth = 0;
width = 1755;
},
{
anchors = (
{
name = bottom;
pos = (821,0);
},
{
name = top;
pos = (1175,2008);
}
);
layerId = "140DECC1-64C4-40C0-9C07-503DBC3F4160";
shapes = (
{
closed = 1;
nodes = (
(996,-20,o),
(1146,113,o),
(1288,315,c),
(1258,151,ls),
(1240,55,o),
(1305,0,o),
(1412,0,cs),
(1518,0,o),
(1547,55,o),
(1560,130,cs),
(1682,825,ls),
(1699,921,o),
(1648,981,o),
(1552,981,cs),
(1490,981,o),
(1425,965,o),
(1347,822,cs),
(1191,549,o),
(990,258,o),
(780,258,cs),
(598,258,o),
(497,531,o),
(567,939,cs),
(656,1464,o),
(876,1730,o),
(1235,1730,cs),
(1375,1730,o),
(1474,1698,o),
(1573,1607,cs),
(1648,1540,o),
(1742,1511,o),
(1810,1579,cs),
(1880,1649,o),
(1841,1740,o),
(1763,1810,cs),
(1599,1959,o),
(1430,2008,o),
(1238,2008,cs),
(707,2008,o),
(377,1649,o),
(252,942,cs),
(150,359,o),
(377,-20,o),
(777,-20,cs)
);
}
);
vertWidth = 0;
width = 1876;
}
);
metricLeft = C;
unicode = 71;
},
{
glyphname = H;
kernLeft = H;
kernRight = H;
layers = (
{
anchors = (
{
name = bottom;
pos = (785,0);
},
{
name = center;
pos = (962,1004);
},
{
name = top;
pos = (1139,2008);
},
{
name = topleft;
pos = (379,2008);
}
);
layerId = m01;
shapes = (
{
closed = 1;
nodes = (
(316,0,o),
(326,36,o),
(331,67,cs),
(500,1025,l),
(1430,1025,l),
(1262,67,ls),
(1256,32,o),
(1262,0,o),
(1320,0,cs),
(1371,0,o),
(1385,29,o),
(1390,57,cs),
(1721,1936,ls),
(1729,1984,o),
(1717,2008,o),
(1665,2008,cs),
(1616,2008,o),
(1599,1982,o),
(1594,1951,cs),
(1451,1140,l),
(520,1140,l),
(659,1928,ls),
(668,1981,o),
(655,2008,o),
(612,2008,cs),
(559,2008,o),
(539,1983,o),
(531,1935,cs),
(202,67,ls),
(194,24,o),
(210,0,o),
(258,0,cs)
);
}
);
vertWidth = 0;
width = 1763;
},
{
anchors = (
{
name = bottom;
pos = (837,0);
},
{
name = center;
pos = (1014,1004);
},
{
name = top;
pos = (1191,2008);
},
{
name = topleft;
pos = (355,2008);
}
);
layerId = "140DECC1-64C4-40C0-9C07-503DBC3F4160";
shapes = (
{
closed = 1;
nodes = (
(443,0,o),
(491,62,o),
(502,125,cs),
(647,950,l),
(1368,950,l),
(1227,151,ls),
(1211,62,o),
(1267,0,o),
(1368,0,cs),
(1457,0,o),
(1524,52,o),
(1535,114,cs),
(1841,1852,ls),
(1858,1951,o),
(1796,2008,o),
(1700,2008,cs),
(1612,2008,o),
(1546,1961,o),
(1534,1894,cs),
(1414,1213,l),
(694,1213,l),
(805,1844,ls),
(824,1953,o),
(765,2008,o),
(676,2008,cs),
(593,2008,o),
(513,1969,o),
(497,1881,cs),
(192,151,ls),
(177,65,o),
(240,0,o),
(338,0,cs)
);
}
);
vertWidth = 0;
width = 1894;
}
);
unicode = 72;
},
{
glyphname = Hbar;
kernLeft = H;
kernRight = H;
layers = (
{
anchors = (
{
name = bottom;
pos = (685,0);
},
{
name = center;
pos = (862,1004);
},
{
name = top;
pos = (1039,2008);
},
{
name = topleft;
pos = (279,2008);
}
);
layerId = m01;
shapes = (
{
closed = 1;
nodes = (
(216,0,o),
(225,36,o),
(231,67,cs),
(353,741,l),
(1283,741,l),
(1162,67,ls),
(1156,32,o),
(1162,0,o),
(1220,0,cs),
(1271,0,o),
(1285,29,o),
(1290,57,cs),
(1621,1936,ls),
(1629,1984,o),
(1617,2008,o),
(1565,2008,cs),
(1516,2008,o),
(1499,1982,o),
(1494,1951,cs),
(1304,856,l),
(373,856,l),
(559,1928,ls),
(568,1981,o),
(555,2008,o),
(512,2008,cs),
(459,2008,o),
(439,1983,o),
(431,1935,cs),
(102,67,ls),
(94,24,o),
(110,0,o),
(158,0,cs)
);
},
{
closed = 1;
nodes = (
(1657,1456,ls),
(1710,1456,o),
(1736,1475,o),
(1736,1514,cs),
(1736,1551,o),
(1712,1569,o),
(1663,1569,cs),
(227,1569,ls),
(175,1569,o),
(146,1550,o),
(146,1514,cs),
(146,1474,o),
(169,1456,o),
(222,1456,cs)
);
}
);
width = 1716;
},
{
anchors = (
{
name = bottom;
pos = (761,0);
},
{
name = center;
pos = (938,1004);
},
{
name = top;
pos = (1115,2008);
},
{
name = topleft;
pos = (279,2008);
}
);
layerId = "140DECC1-64C4-40C0-9C07-503DBC3F4160";
shapes = (
{
closed = 1;
nodes = (
(367,0,o),
(415,62,o),
(426,125,cs),
(521,669,l),
(1242,669,l),
(1151,151,ls),
(1135,62,o),
(1191,0,o),
(1292,0,cs),
(1381,0,o),
(1448,52,o),
(1459,114,cs),
(1765,1852,ls),
(1782,1951,o),
(1720,2008,o),
(1624,2008,cs),
(1536,2008,o),
(1470,1961,o),
(1458,1894,cs),
(1288,932,l),
(568,932,l),
(729,1844,ls),
(748,1953,o),
(689,2008,o),
(600,2008,cs),
(517,2008,o),
(437,1969,o),
(421,1881,cs),
(116,151,ls),
(101,65,o),
(164,0,o),
(262,0,cs)
);
},
{
closed = 1;
nodes = (
(1753,1359,ls),
(1865,1359,o),
(1932,1414,o),
(1932,1502,cs),
(1932,1585,o),
(1873,1637,o),
(1781,1637,cs),
(312,1637,ls),
(200,1637,o),
(132,1580,o),
(132,1494,cs),
(132,1411,o),
(192,1359,o),
(286,1359,cs)
);
}
);
width = 1711;
}
);
unicode = 294;
},
{
glyphname = I;
kernLeft = H;
kernRight = H;
layers = (
{
anchors = (
{
name = bottom;
pos = (392,0);
},
{
name = ogonek;
pos = (577,10);
},
{
name = top;
pos = (737,2008);
},
{
name = topleft;
pos = (366,2008);
}
);
layerId = m01;
shapes = (
{
closed = 1;
nodes = (
(538,0,ls),
(593,0,o),
(605,23,o),
(605,56,cs),
(605,92,o),
(593,115,o),
(538,115,cs),
(465,115,l),
(779,1896,l),
(865,1896,ls),
(917,1896,o),
(929,1921,o),
(929,1954,cs),
(929,1987,o),
(918,2008,o),
(865,2008,cs),
(584,2008,ls),
(529,2008,o),
(517,1987,o),
(517,1954,cs),
(517,1921,o),
(530,1896,o),
(584,1896,cs),
(649,1896,l),
(335,115,l),
(244,115,ls),
(192,115,o),
(180,92,o),
(180,56,cs),
(180,23,o),
(192,0,o),
(244,0,cs)
);
}
);
vertWidth = 0;
width = 929;
},
{
anchors = (
{
name = bottom;
pos = (532,0);
},
{
name = ogonek;
pos = (830,10);
},
{
name = top;
pos = (824,2008);
},
{
name = topleft;
pos = (433,2008);
}
);
layerId = "140DECC1-64C4-40C0-9C07-503DBC3F4160";
shapes = (
{
closed = 1;
nodes = (
(795,0,ls),
(899,0,o),
(933,62,o),
(943,135,cs),
(956,211,o),
(917,278,o),
(839,278,cs),
(721,278,l),
(973,1730,l),
(1105,1730,ls),
(1203,1730,o),
(1248,1802,o),
(1261,1875,cs),
(1271,1951,o),
(1219,2008,o),
(1149,2008,cs),
(597,2008,ls),
(504,2008,o),
(460,1951,o),
(447,1875,cs),
(434,1802,o),
(483,1730,o),
(556,1730,cs),
(660,1730,l),
(409,278,l),
(290,278,ls),
(192,278,o),
(145,211,o),
(132,135,cs),
(119,62,o),
(168,0,o),
(246,0,cs)
);
}
);
vertWidth = 0;
width = 1212;
}
);
unicode = 73;
},
{
glyphname = IJ;
kernLeft = H;
kernRight = J;
layers = (
{
layerId = m01;
shapes = (
{
closed = 1;
nodes = (
(538,0,ls),
(593,0,o),
(605,23,o),
(605,56,cs),
(605,92,o),
(593,115,o),
(538,115,cs),
(465,115,l),
(779,1896,l),
(865,1896,ls),
(917,1896,o),
(929,1921,o),
(929,1954,cs),
(929,1987,o),
(918,2008,o),
(865,2008,cs),
(584,2008,ls),
(529,2008,o),
(517,1987,o),
(517,1954,cs),
(517,1921,o),
(530,1896,o),
(584,1896,cs),
(649,1896,l),
(335,115,l),
(244,115,ls),
(192,115,o),
(180,92,o),
(180,56,cs),
(180,23,o),
(192,0,o),
(244,0,cs)
);
},
{
closed = 1;
nodes = (
(612,-434,o),
(894,-421,o),
(955,-413,cs),
(1370,-351,o),
(1451,21,o),
(1535,488,c),
(1793,1936,l),
(1802,1984,o),
(1789,2008,o),
(1737,2008,cs),
(1688,2008,o),
(1672,1982,o),
(1666,1951,cs),
(1408,495,ls),
(1335,83,o),
(1291,-240,o),
(973,-295,cs),
(886,-310,o),
(591,-319,o),
(516,-319,cs),
(481,-319,o),
(452,-338,o),
(452,-373,cs),
(452,-412,o),
(481,-434,o),
(516,-434,cs)
);
}
);
width = 1796;
},
{
layerId = "140DECC1-64C4-40C0-9C07-503DBC3F4160";
shapes = (
{
closed = 1;
nodes = (
(795,0,ls),
(899,0,o),
(933,62,o),
(943,135,cs),
(956,211,o),
(917,278,o),
(839,278,cs),
(721,278,l),
(973,1730,l),
(1105,1730,ls),
(1203,1730,o),
(1248,1802,o),
(1261,1875,cs),
(1271,1951,o),
(1219,2008,o),
(1149,2008,cs),
(597,2008,ls),
(504,2008,o),
(460,1951,o),
(447,1875,cs),
(434,1802,o),
(483,1730,o),
(556,1730,cs),
(660,1730,l),
(409,278,l),
(290,278,ls),
(192,278,o),
(145,211,o),
(132,135,cs),
(119,62,o),
(168,0,o),
(246,0,cs)
);
},
{
closed = 1;
nodes = (
(1003,-514,o),
(1271,-509,o),
(1326,-501,cs),
(1887,-433,o),
(1883,-30,o),
(1960,394,cs),
(2224,1852,ls),
(2242,1951,o),
(2179,2008,o),
(2083,2008,cs),
(1995,2008,o),
(1929,1961,o),
(1917,1894,cs),
(1653,433,ls),
(1593,101,o),
(1568,-189,o),
(1320,-220,cs),
(1245,-230,o),
(977,-236,o),
(912,-236,cs),
(837,-236,o),
(761,-296,o),
(761,-376,cs),
(761,-459,o),
(837,-514,o),
(912,-514,cs)
);
}
);
width = 2267;
}
);
metricLeft = I;
metricRight = J;
unicode = 306;
},
{
glyphname = J;
kernLeft = J;
kernRight = J;
layers = (
{
anchors = (
{
name = bottom;
pos = (524,0);
},
{
name = top;
pos = (1186,2008);
}
);
layerId = m01;
shapes = (
{
closed = 1;
nodes = (
(137,-5,o),
(419,8,o),
(480,16,cs),
(895,78,o),
(976,450,o),
(1060,917,c),
(1242,1936,l),
(1251,1984,o),
(1238,2008,o),
(1186,2008,cs),
(1137,2008,o),
(1120,1982,o),
(1115,1951,cs),
(933,924,ls),
(859,512,o),
(816,189,o),
(498,134,cs),
(411,119,o),
(116,110,o),
(41,110,cs),
(6,110,o),
(-23,91,o),
(-23,56,cs),
(-23,17,o),
(6,-5,o),
(41,-5,cs)
);
}
);
vertWidth = 0;
width = 1245;
},
{
anchors = (
{
name = bottom;
pos = (661,0);
},
{
name = top;
pos = (1157,2008);
}
);
background = {
shapes = (
{
closed = 1;
nodes = (
(173,0,o),
(441,5,o),
(496,13,cs),
(1057,81,o),
(1052,489,o),
(1130,908,cs),
(1276,1730,l),
(962,1730,l),
(823,947,ls),
(769,619,o),
(738,325,o),
(490,294,cs),
(415,284,o),
(147,278,o),
(82,278,cs),
(7,278,o),
(-69,218,o),
(-69,138,cs),
(-69,55,o),
(7,0,o),
(82,0,cs)
);
}
);
};
layerId = "140DECC1-64C4-40C0-9C07-503DBC3F4160";
shapes = (
{
closed = 1;
nodes = (
(173,0,o),
(441,5,o),
(496,13,cs),
(1057,81,o),
(1055,487,o),
(1130,908,cs),
(1298,1852,ls),
(1316,1951,o),
(1253,2008,o),
(1157,2008,cs),
(1069,2008,o),
(1003,1961,o),
(991,1894,cs),
(823,947,ls),
(765,620,o),
(738,325,o),
(490,294,cs),
(415,284,o),
(147,278,o),
(82,278,cs),
(7,278,o),
(-69,218,o),
(-69,138,cs),
(-69,55,o),
(7,0,o),
(82,0,cs)
);
}
);
vertWidth = 0;
width = 1341;
}
);
unicode = 74;
},
{
glyphname = K;
kernLeft = H;
kernRight = K;
layers = (
{
anchors = (
{
name = bottom;
pos = (714,0);
},
{
name = top;
pos = (1068,2008);
}
);
layerId = m01;
shapes = (
{
closed = 1;
nodes = (
(1355,0,o),
(1384,24,o),
(1384,56,cs),
(1384,77,o),
(1376,93,o),
(1351,127,cs),
(629,1082,l),
(1662,1886,ls),
(1701,1916,o),
(1715,1932,o),
(1715,1965,cs),
(1715,1987,o),
(1700,2008,o),
(1668,2008,cs),
(1645,2008,o),
(1618,2000,o),
(1581,1971,cs),
(518,1135,l),
(657,1928,ls),
(666,1982,o),
(659,2008,o),
(610,2008,cs),
(555,2008,o),
(537,1983,o),
(529,1936,cs),
(202,83,ls),
(194,40,o),
(212,0,o),
(258,0,cs),
(313,0,o),
(325,44,o),
(332,85,cs),
(503,1050,l),
(1243,55,ls),
(1266,24,o),
(1287,0,o),
(1323,0,cs)
);
}
);
vertWidth = 0;
width = 1520;
},
{
anchors = (
{
name = bottom;
pos = (749,0);
},
{
name = top;
pos = (1103,2008);
}
);
layerId = "140DECC1-64C4-40C0-9C07-503DBC3F4160";
shapes = (
{
closed = 1;
nodes = (
(1454,0,o),
(1516,68,o),
(1516,146,cs),
(1516,187,o),
(1502,232,o),
(1480,263,cs),
(920,1060,l),
(1761,1748,ls),
(1807,1785,o),
(1839,1831,o),
(1839,1888,cs),
(1839,1951,o),
(1792,2008,o),
(1701,2008,cs),
(1651,2008,o),
(1591,1991,o),
(1542,1951,cs),
(702,1265,l),
(803,1844,ls),
(824,1966,o),
(741,2008,o),
(666,2008,cs),
(587,2008,o),
(509,1969,o),
(494,1881,cs),
(192,166,ls),
(176,75,o),
(242,0,o),
(340,0,cs),
(434,0,o),
(489,60,o),
(503,138,cs),
(638,916,l),
(1220,78,ls),
(1254,29,o),
(1313,0,o),
(1370,0,cs)
);
}
);
vertWidth = 0;
width = 1639;
}
);
metricLeft = H;
unicode = 75;
},
{
glyphname = L;
kernLeft = H;
kernRight = L;
layers = (
{
anchors = (
{
name = bottom;
pos = (792,0);
},
{
name = center;
pos = (899,1004);
},
{
name = top;
pos = (612,2008);
},
{
name = topright;
pos = (1304,1383);
}
);
layerId = m01;
shapes = (
{
closed = 1;
nodes = (
(1320,0,ls),
(1369,0,o),
(1387,34,o),
(1387,68,cs),
(1387,98,o),
(1372,115,o),
(1320,115,cs),
(341,115,l),
(660,1927,ls),
(670,1982,o),
(664,2008,o),
(612,2008,cs),
(558,2008,o),
(540,1983,o),
(532,1935,cs),
(202,67,ls),
(195,25,o),
(211,0,o),
(259,0,cs)
);
}
);
vertWidth = 0;
width = 1477;
},
{
anchors = (
{
name = bottom;
pos = (862,0);
},
{
name = center;
pos = (936,1004);
},
{
name = top;
pos = (679,2008);
},
{
name = topright;
pos = (1314,1316);
}
);
layerId = "140DECC1-64C4-40C0-9C07-503DBC3F4160";
shapes = (
{
closed = 1;
nodes = (
(1394,0,ls),
(1487,0,o),
(1550,68,o),
(1550,143,cs),
(1550,216,o),
(1487,278,o),
(1394,278,cs),
(531,278,l),
(806,1844,ls),
(829,1973,o),
(757,2008,o),
(679,2008,cs),
(587,2008,o),
(513,1969,o),
(497,1881,cs),
(192,151,ls),
(177,65,o),
(234,0,o),
(325,0,cs)
);
}
);
vertWidth = 0;
width = 1580;
}
);
metricLeft = E;
unicode = 76;
},
{
glyphname = Lslash;
kernLeft = H;
kernRight = L;
layers = (
{
anchors = (
{
name = bottom;
pos = (621,0);
},
{
name = center;
pos = (798,1004);
},
{
name = top;
pos = (975,2008);
},
{
name = topright;
pos = (1670,2008);
}
);
layerId = m01;
shapes = (
{
closed = 1;
nodes = (
(1219,0,ls),
(1268,0,o),
(1286,34,o),
(1286,68,cs),
(1286,98,o),
(1271,115,o),
(1219,115,cs),
(240,115,l),
(559,1927,ls),
(569,1982,o),
(563,2008,o),
(511,2008,cs),
(457,2008,o),
(439,1983,o),
(431,1935,cs),
(101,67,ls),
(94,25,o),
(110,0,o),
(158,0,cs)
);
},
{
closed = 1;
nodes = (
(81,817,o),
(122,807,o),
(184,824,cs),
(746,981,ls),
(781,991,o),
(806,1031,o),
(791,1064,cs),
(778,1090,o),
(737,1109,o),
(678,1093,cs),
(114,936,ls),
(56,920,o),
(49,886,o),
(65,853,cs)
);
}
);
width = 1431;
},
{
anchors = (
{
name = bottom;
pos = (683,0);
},
{
name = center;
pos = (860,1004);
},
{
name = top;
pos = (1037,2008);
},
{
name = topright;
pos = (1795,2008);
}
);
layerId = "140DECC1-64C4-40C0-9C07-503DBC3F4160";
shapes = (
{
closed = 1;
nodes = (
(1318,0,ls),
(1411,0,o),
(1474,68,o),
(1474,143,cs),
(1474,216,o),
(1411,278,o),
(1318,278,cs),
(455,278,l),
(730,1844,ls),
(753,1973,o),
(681,2008,o),
(603,2008,cs),
(511,2008,o),
(437,1969,o),
(421,1881,cs),
(116,151,ls),
(101,65,o),
(158,0,o),
(249,0,cs)
);
},
{
closed = 1;
nodes = (
(117,712,o),
(230,685,o),
(330,712,cs),
(851,854,ls),
(961,884,o),
(997,960,o),
(972,1032,cs),
(950,1095,o),
(862,1123,o),
(770,1098,cs),
(209,966,ls),
(94,935,o),
(62,856,o),
(92,779,cs)
);
}
);
width = 1556;
}
);
unicode = 321;
},
{
glyphname = M;
kernLeft = M;
kernRight = M;
layers = (
{
anchors = (
{
name = bottom;
pos = (1221,0);
},
{
name = top;
pos = (1575,2008);
}
);
layerId = m01;
shapes = (
{
closed = 1;
nodes = (
(84,-5,o),
(119,13,o),
(143,66,c),
(1025,1776,l),
(1153,58,ls),
(1156,28,o),
(1166,-5,o),
(1226,-5,cs),
(1277,-5,o),
(1297,40,o),
(1310,64,cs),
(2198,1781,l),
(2330,57,ls),
(2331,28,o),
(2343,-5,o),
(2399,-5,cs),
(2441,-5,o),
(2460,19,o),
(2455,61,cs),
(2301,1939,l),
(2299,1989,o),
(2292,2013,o),
(2237,2013,cs),
(2179,2013,o),
(2163,1974,o),
(2144,1938,cs),
(1259,216,l),
(1126,1968,l),
(1123,1989,o),
(1111,2013,o),
(1062,2013,cs),
(1017,2013,o),
(1001,1986,o),
(979,1945,cs),
(14,92,ls),
(-19,27,o),
(10,-5,o),
(54,-5,cs)
);
}
);
vertWidth = 0;
width = 2656;
},
{
anchors = (
{
name = bottom;
pos = (1240,0);
},
{
name = top;
pos = (1594,2008);
}
);
layerId = "140DECC1-64C4-40C0-9C07-503DBC3F4160";
shapes = (
{
closed = 1;
nodes = (
(236,0,o),
(321,29,o),
(358,101,cs),
(1007,1372,l),
(1102,125,l),
(1110,55,o),
(1162,0,o),
(1255,0,cs),
(1377,0,o),
(1409,60,o),
(1427,96,cs),
(2086,1375,l),
(2176,125,ls),
(2179,60,o),
(2246,0,o),
(2342,0,cs),
(2431,0,o),
(2491,62,o),
(2483,143,cs),
(2342,1873,ls),
(2335,1961,o),
(2316,2008,o),
(2207,2008,cs),
(2116,2008,o),
(2061,1972,o),
(2028,1904,cs),
(1358,609,l),
(1266,1873,ls),
(1260,1961,o),
(1224,2008,o),
(1097,2008,cs),
(1013,2008,o),
(985,1972,o),
(951,1907,cs),
(59,198,l),
(1,94,o),
(87,0,o),
(178,0,cs)
);
}
);
vertWidth = 0;
width = 2649;
}
);
metricLeft = A;
metricRight = A;
unicode = 77;
},
{
glyphname = N;
kernLeft = H;
kernRight = H;
layers = (
{
anchors = (
{
name = bottom;
pos = (786,0);
},
{
name = top;
pos = (1140,2008);
}
);
layerId = m01;
shapes = (
{
closed = 1;
nodes = (
(318,0,o),
(327,38,o),
(333,75,cs),
(629,1758,l),
(1259,46,ls),
(1269,20,o),
(1290,0,o),
(1329,0,cs),
(1382,0,o),
(1386,35,o),
(1392,67,cs),
(1721,1928,ls),
(1731,1983,o),
(1724,2008,o),
(1675,2008,cs),
(1623,2008,o),
(1605,1982,o),
(1597,1936,cs),
(1300,270,l),
(694,1954,ls),
(685,1980,o),
(658,2008,o),
(609,2008,cs),
(553,2008,o),
(540,1984,o),
(531,1935,cs),
(201,67,ls),
(194,25,o),
(213,0,o),
(260,0,cs)
);
}
);
vertWidth = 0;
width = 1765;
},
{
anchors = (
{
name = bottom;
pos = (836,0);
},
{
name = top;
pos = (1190,2008);
}
);
layerId = "140DECC1-64C4-40C0-9C07-503DBC3F4160";
shapes = (
{
closed = 1;
nodes = (
(429,0,o),
(489,60,o),
(502,130,cs),
(706,1362,l),
(1241,86,l),
(1267,31,o),
(1311,0,o),
(1389,0,cs),
(1493,0,o),
(1522,60,o),
(1535,125,cs),
(1837,1844,ls),
(1855,1943,o),
(1805,2018,o),
(1704,2018,cs),
(1618,2018,o),
(1548,1969,o),
(1532,1881,cs),
(1327,638,l),
(791,1917,ls),
(762,1982,o),
(708,2008,o),
(645,2008,cs),
(567,2008,o),
(515,1966,o),
(500,1881,cs),
(193,151,ls),
(177,65,o),
(237,0,o),
(325,0,cs)
);
}
);
vertWidth = 0;
width = 1891;
}
);
metricLeft = H;
metricRight = H;
unicode = 78;
},
{
glyphname = Eng;
kernLeft = H;
kernRight = J;
layers = (
{
layerId = m01;
shapes = (
{
closed = 1;
nodes = (
(322,0,o),
(329,42,o),
(332,59,cs),
(592,1547,l),
(767,1802,o),
(976,1921,o),
(1235,1921,cs),
(1428,1921,o),
(1501,1765,o),
(1452,1488,cs),
(1199,53,ls),
(1140,-283,o),
(938,-433,o),
(747,-433,cs),
(652,-433,o),
(559,-404,o),
(496,-360,cs),
(466,-339,o),
(435,-339,o),
(416,-360,c),
(394,-390,o),
(396,-425,o),
(421,-446,cs),
(494,-506,o),
(616,-544,o),
(745,-544,cs),
(996,-544,o),
(1251,-385,o),
(1327,45,cs),
(1580,1477,ls),
(1645,1845,o),
(1500,2036,o),
(1245,2036,cs),
(993,2036,o),
(762,1942,o),
(624,1732,c),
(663,1949,ls),
(672,1998,o),
(662,2016,o),
(620,2016,cs),
(563,2016,o),
(541,1994,o),
(532,1944,cs),
(201,53,ls),
(197,32,o),
(199,0,o),
(254,0,cs)
);
}
);
width = 1635;
},
{
layerId = "140DECC1-64C4-40C0-9C07-503DBC3F4160";
shapes = (
{
closed = 1;
nodes = (
(434,0,o),
(494,68,o),
(502,114,cs),
(728,1407,l),
(856,1619,o),
(958,1761,o),
(1166,1761,cs),
(1293,1761,o),
(1451,1693,o),
(1426,1545,cs),
(1168,96,ls),
(1098,-298,o),
(999,-388,o),
(787,-388,cs),
(670,-388,o),
(626,-367,o),
(602,-351,cs),
(537,-310,o),
(457,-325,o),
(415,-390,cs),
(366,-466,o),
(379,-552,o),
(444,-599,cs),
(490,-632,o),
(602,-687,o),
(751,-687,cs),
(1239,-687,o),
(1393,-426,o),
(1480,74,cs),
(1719,1497,ls),
(1780,1856,o),
(1571,2026,o),
(1270,2026,cs),
(1070,2026,o),
(903,1936,o),
(799,1808,c),
(809,1865,ls),
(825,1956,o),
(776,2013,o),
(677,2013,cs),
(547,2013,o),
(506,1919,o),
(500,1883,cs),
(192,135,ls),
(179,62,o),
(216,0,o),
(320,0,cs)
);
}
);
width = 1780;
}
);
metricLeft = H;
metricRight = H;
unicode = 330;
},
{
glyphname = O;
kernLeft = O;
kernRight = O;
layers = (
{
anchors = (
{
name = bottom;
pos = (748,0);
},
{
name = center;
pos = (925,1004);
},
{
name = ogonek;
pos = (1400,10);
},
{
name = top;
pos = (1102,2008);
},
{
name = topleft;
pos = (308,2008);
},
{
name = topright;
pos = (1896,2008);
}
);
layerId = m01;
shapes = (
{
closed = 1;
nodes = (
(1326,-5,o),
(1566,790,o),
(1639,1203,cs),
(1731,1715,o),
(1570,2013,o),
(1131,2013,cs),
(581,2013,o),
(345,1449,o),
(270,1015,cs),
(183,505,o),
(265,-5,o),
(797,-5,cs)
);
},
{
closed = 1;
nodes = (
(445,1263,o),
(644,1901,o),
(1115,1901,cs),
(1549,1901,o),
(1577,1541,o),
(1512,1179,cs),
(1450,830,o),
(1173,110,o),
(794,110,cs),
(360,110,o),
(327,615,o),
(394,988,cs)
);
}
);
vertWidth = 0;
width = 1684;
},
{
anchors = (
{
name = bottom;
pos = (789,0);
},
{
name = center;
pos = (966,1004);
},
{
name = ogonek;
pos = (1502,10);
},
{
name = top;
pos = (1143,2008);
},
{
name = topleft;
pos = (273,2008);
},
{
name = topright;
pos = (2013,2008);
}
);
layerId = "140DECC1-64C4-40C0-9C07-503DBC3F4160";
shapes = (
{
closed = 1;
nodes = (
(1303,0,o),
(1651,458,o),
(1782,1196,cs),
(1870,1704,o),
(1706,2008,o),
(1191,2008,cs),
(687,2008,o),
(372,1675,o),
(255,1017,cs),
(145,390,o),
(377,0,o),
(863,0,cs)
);
},
{
closed = 1;
nodes = (
(650,1480,o),
(856,1730,o),
(1175,1730,cs),
(1508,1730,o),
(1534,1529,o),
(1472,1178,cs),
(1376,622,o),
(1142,278,o),
(861,278,cs),
(598,278,o),
(484,546,o),
(559,986,cs)
);
}
);
vertWidth = 0;
width = 1774;
}
);
unicode = 79;
},
{
glyphname = Oslash;
kernLeft = O;
kernRight = O;
layers = (
{
anchors = (
{
name = bottom;
pos = (719,0);
},
{
name = center;
pos = (896,1004);
},
{
name = ogonek;
pos = (1371,10);
},
{
name = top;
pos = (1073,2008);
},
{
name = topleft;
pos = (279,2008);
},
{
name = topright;
pos = (1867,2008);
}
);
layerId = m01;
shapes = (
{
closed = 1;
nodes = (
(1297,-5,o),
(1537,790,o),
(1610,1203,cs),
(1702,1715,o),
(1541,2013,o),
(1102,2013,cs),
(552,2013,o),
(316,1449,o),
(241,1015,cs),
(154,505,o),
(236,-5,o),
(768,-5,cs)
);
},
{
closed = 1;
nodes = (
(416,1263,o),
(615,1901,o),
(1086,1901,cs),
(1520,1901,o),
(1548,1541,o),
(1483,1179,cs),
(1421,830,o),
(1144,110,o),
(765,110,cs),
(331,110,o),
(298,615,o),
(365,988,cs)
);
},
{
closed = 1;
nodes = (
(470,-111,o),
(496,-97,o),
(509,-61,cs),
(540,27,l),
(558,76,l),
(1388,1931,l),
(1402,1971,l),
(1424,2033,ls),
(1444,2089,o),
(1410,2117,o),
(1368,2117,cs),
(1338,2117,o),
(1313,2104,o),
(1296,2057,cs),
(1283,2020,l),
(1266,1974,l),
(454,172,l),
(433,113,l),
(379,-37,ls),
(362,-84,o),
(393,-111,o),
(437,-111,cs)
);
}
);
width = 1628;
},
{
anchors = (
{
name = bottom;
pos = (795,0);
},
{
name = center;
pos = (972,1004);
},
{
name = ogonek;
pos = (1508,10);
},
{
name = top;
pos = (1149,2008);
},
{
name = topleft;
pos = (279,2008);
},
{
name = topright;
pos = (2019,2008);
}
);
layerId = "140DECC1-64C4-40C0-9C07-503DBC3F4160";
shapes = (
{
closed = 1;
nodes = (
(1309,0,o),
(1657,458,o),
(1788,1196,cs),
(1876,1704,o),
(1712,2008,o),
(1197,2008,cs),
(693,2008,o),
(378,1675,o),
(261,1017,cs),
(151,390,o),
(383,0,o),
(869,0,cs)
);
},
{
closed = 1;
nodes = (
(656,1480,o),
(862,1730,o),
(1181,1730,cs),
(1514,1730,o),
(1540,1529,o),
(1478,1178,cs),
(1382,622,o),
(1148,278,o),
(867,278,cs),
(604,278,o),
(490,546,o),
(565,986,cs)
);
},
{
closed = 1;
nodes = (
(668,-221,o),
(735,-189,o),
(759,-120,cs),
(804,7,l),
(798,94,l),
(1403,1764,l),
(1470,1847,l),
(1515,1974,ls),
(1554,2089,o),
(1456,2172,o),
(1365,2172,cs),
(1302,2172,o),
(1234,2137,o),
(1206,2057,cs),
(1174,1967,l),
(1172,1848,l),
(600,268,l),
(499,96,l),
(454,-31,ls),
(413,-141,o),
(509,-221,o),
(608,-221,cs)
);
}
);
width = 1780;
}
);
unicode = 216;
},
{
glyphname = OE;
kernLeft = O;
kernRight = E;
layers = (
{
anchors = (
{
name = bottom;
pos = (1883,0);
},
{
name = center;
pos = (925,1004);
},
{
name = ogonek;
pos = (2454,10);
},
{
name = top;
pos = (2304,2008);
},
{
name = topleft;
pos = (1544,2008);
},
{
name = topright;
pos = (1896,2008);
}
);
layerId = m01;
shapes = (
{
closed = 1;
nodes = (
(1326,-5,o),
(1552,790,o),
(1625,1203,cs),
(1717,1715,o),
(1570,2013,o),
(1131,2013,cs),
(581,2013,o),
(345,1449,o),
(270,1015,cs),
(183,505,o),
(265,-5,o),
(797,-5,cs)
);
},
{
closed = 1;
nodes = (
(445,1263,o),
(644,1901,o),
(1115,1901,cs),
(1549,1901,o),
(1577,1541,o),
(1512,1179,cs),
(1450,830,o),
(1173,110,o),
(794,110,cs),
(360,110,o),
(327,615,o),
(394,988,cs)
);
},
{
closed = 1;
nodes = (
(2478,0,ls),
(2531,0,o),
(2546,33,o),
(2546,68,cs),
(2546,99,o),
(2534,115,o),
(2478,115,cs),
(1506,115,l),
(1666,1025,l),
(2511,1025,ls),
(2566,1025,o),
(2578,1048,o),
(2578,1081,cs),
(2578,1117,o),
(2566,1140,o),
(2511,1140,cs),
(1686,1140,l),
(1820,1896,l),
(2787,1896,ls),
(2843,1896,o),
(2854,1912,o),
(2854,1947,cs),
(2854,1980,o),
(2841,2008,o),
(2787,2008,cs),
(1776,2008,ls),
(1717,2008,o),
(1704,1984,o),
(1696,1936,cs),
(1366,67,ls),
(1358,24,o),
(1374,0,o),
(1423,0,cs)
);
}
);
width = 2834;
},
{
anchors = (
{
name = bottom;
pos = (1998,0);
},
{
name = center;
pos = (966,1004);
},
{
name = ogonek;
pos = (2617,10);
},
{
name = top;
pos = (2444,2008);
},
{
name = topleft;
pos = (1599,2008);
},
{
name = topright;
pos = (2013,2008);
}
);
layerId = "140DECC1-64C4-40C0-9C07-503DBC3F4160";
shapes = (
{
closed = 1;
nodes = (
(1303,0,o),
(1591,458,o),
(1722,1196,cs),
(1810,1704,o),
(1706,2008,o),
(1191,2008,cs),
(687,2008,o),
(372,1675,o),
(255,1017,cs),
(145,390,o),
(377,0,o),
(863,0,cs)
);
},
{
closed = 1;
nodes = (
(650,1480,o),
(856,1730,o),
(1175,1730,cs),
(1508,1730,o),
(1544,1529,o),
(1482,1178,cs),
(1386,622,o),
(1142,278,o),
(861,278,cs),
(598,278,o),
(484,546,o),
(559,986,cs)
);
},
{
closed = 1;
nodes = (
(2626,0,ls),
(2717,0,o),
(2779,49,o),
(2779,130,cs),
(2779,203,o),
(2730,276,o),
(2631,276,cs),
(1778,276,l),
(1897,950,l),
(2694,950,ls),
(2792,950,o),
(2860,1010,o),
(2860,1083,cs),
(2860,1163,o),
(2800,1213,o),
(2709,1213,cs),
(1943,1213,l),
(2035,1732,l),
(2929,1732,ls),
(3023,1732,o),
(3088,1792,o),
(3088,1873,cs),
(3088,1951,o),
(3031,2008,o),
(2937,2008,cs),
(1907,2008,ls),
(1811,2008,o),
(1758,1974,o),
(1743,1888,cs),
(1437,153,ls),
(1422,68,o),
(1461,0,o),
(1552,0,cs)
);
}
);
width = 3008;
}
);
metricLeft = O;
metricRight = E;
unicode = 338;
},
{
glyphname = P;
kernLeft = H;
kernRight = P;
layers = (
{
anchors = (
{
name = bottom;
pos = (694,0);
},
{
name = top;
pos = (1048,2008);
}
);
layerId = m01;
shapes = (
{
closed = 1;
nodes = (
(318,0,o),
(326,36,o),
(331,67,cs),
(500,1025,l),
(1124,1029,o),
(1588,1091,o),
(1643,1505,cs),
(1690,1854,o),
(1285,2008,o),
(612,2008,cs),
(553,2008,o),
(540,1984,o),
(531,1935,cs),
(201,67,ls),
(194,25,o),
(214,0,o),
(261,0,cs)
);
},
{
closed = 1;
nodes = (
(654,1896,l),
(1292,1889,o),
(1546,1746,o),
(1517,1517,cs),
(1478,1207,o),
(1037,1145,o),
(520,1140,c)
);
}
);
vertWidth = 0;
width = 1587;
},
{
anchors = (
{
name = bottom;
pos = (772,0);
},
{
name = top;
pos = (1126,2008);
}
);
layerId = "140DECC1-64C4-40C0-9C07-503DBC3F4160";
shapes = (
{
closed = 1;
nodes = (
(441,0,o),
(491,52,o),
(503,120,cs),
(649,950,l),
(1198,962,o),
(1711,1021,o),
(1773,1482,cs),
(1824,1861,o),
(1419,2008,o),
(662,2008,cs),
(569,2008,o),
(513,1969,o),
(497,1881,cs),
(192,148,ls),
(177,65,o),
(236,0,o),
(337,0,cs)
);
},
{
closed = 1;
nodes = (
(788,1737,l),
(1411,1737,o),
(1487,1647,o),
(1473,1498,cs),
(1454,1298,o),
(1106,1226,o),
(695,1212,c)
);
}
);
vertWidth = 0;
width = 1658;
}
);
metricLeft = H;
unicode = 80;
},
{
glyphname = Thorn;
kernLeft = H;
kernRight = P;
layers = (
{
layerId = m01;
shapes = (
{
closed = 1;
nodes = (
(316,0,o),
(326,36,o),
(331,67,c),
(659,1928,l),
(668,1981,o),
(655,2008,o),
(612,2008,cs),
(559,2008,o),
(539,1983,o),
(531,1935,cs),
(202,67,ls),
(194,24,o),
(210,0,o),
(258,0,cs)
);
},
{
closed = 1;
nodes = (
(557,1452,l),
(1195,1445,o),
(1449,1302,o),
(1420,1073,cs),
(1381,763,o),
(920,701,o),
(403,696,c),
(383,581,l),
(1007,585,o),
(1491,647,o),
(1546,1061,cs),
(1593,1410,o),
(1188,1564,o),
(515,1564,c)
);
}
);
width = 1520;
},
{
layerId = "140DECC1-64C4-40C0-9C07-503DBC3F4160";
shapes = (
{
closed = 1;
nodes = (
(445,0,o),
(493,62,o),
(504,125,c),
(806,1844,l),
(825,1953,o),
(765,2008,o),
(676,2008,cs),
(593,2008,o),
(513,1969,o),
(497,1881,cs),
(192,151,ls),
(177,65,o),
(240,0,o),
(338,0,cs)
);
},
{
closed = 1;
nodes = (
(674,1313,l),
(1297,1313,o),
(1373,1223,o),
(1359,1074,cs),
(1340,874,o),
(992,802,o),
(581,788,c),
(535,526,l),
(1084,538,o),
(1597,597,o),
(1659,1058,cs),
(1710,1437,o),
(1305,1584,o),
(548,1584,c)
);
}
);
width = 1544;
}
);
metricLeft = H;
unicode = 222;
},
{
glyphname = Q;
kernLeft = O;
kernRight = Q;
layers = (
{
anchors = (
{
name = bottom;
pos = (721,0);
},
{
name = top;
pos = (1075,2008);
}
);
layerId = m01;
shapes = (
{
closed = 1;
nodes = (
(858,-20,o),
(939,1,o),
(1014,61,c),
(1194,-200,ls),
(1225,-245,o),
(1263,-265,o),
(1296,-246,cs),
(1333,-226,o),
(1332,-180,o),
(1309,-146,cs),
(1118,133,l),
(1409,380,o),
(1559,898,o),
(1613,1205,cs),
(1705,1718,o),
(1541,2008,o),
(1102,2008,cs),
(552,2008,o),
(316,1451,o),
(241,1017,cs),
(154,508,o),
(236,-20,o),
(768,-20,cs)
);
},
{
closed = 1;
nodes = (
(416,1266,o),
(615,1896,o),
(1086,1896,cs),
(1520,1896,o),
(1543,1543,o),
(1478,1181,cs),
(1433,924,o),
(1274,466,o),
(1042,243,c),
(970,348,ls),
(942,389,o),
(897,406,o),
(859,373,cs),
(829,350,o),
(833,325,o),
(865,278,cs),
(942,166,l),
(887,113,o),
(827,95,o),
(765,95,cs),
(331,95,o),
(298,617,o),
(365,991,cs)
);
}
);
vertWidth = 0;
width = 1631;
},
{
anchors = (
{
name = bottom;
pos = (795,0);
},
{
name = top;
pos = (1149,2008);
}
);
layerId = "140DECC1-64C4-40C0-9C07-503DBC3F4160";
shapes = (
{
closed = 1;
nodes = (
(938,0,o),
(1005,11,o),
(1070,33,c),
(1197,-153,ls),
(1252,-237,o),
(1348,-263,o),
(1416,-218,cs),
(1486,-174,o),
(1501,-86,o),
(1452,-13,cs),
(1319,184,l),
(1540,383,o),
(1706,735,o),
(1788,1196,cs),
(1876,1704,o),
(1712,2008,o),
(1197,2008,cs),
(693,2008,o),
(378,1675,o),
(261,1017,cs),
(151,390,o),
(383,0,o),
(869,0,cs)
);
},
{
closed = 1;
nodes = (
(656,1480,o),
(862,1730,o),
(1181,1730,cs),
(1514,1730,o),
(1540,1529,o),
(1478,1178,cs),
(1418,832,o),
(1305,569,o),
(1161,419,c),
(1122,476,ls),
(1067,559,o),
(971,585,o),
(903,536,cs),
(836,489,o),
(823,395,o),
(872,323,cs),
(902,280,l),
(890,279,o),
(879,278,o),
(867,278,cs),
(604,278,o),
(490,546,o),
(565,986,cs)
);
}
);
vertWidth = 0;
width = 1780;
}
);
unicode = 81;
},
{
glyphname = R;
kernLeft = H;
kernRight = R;
layers = (
{
anchors = (
{
name = bottom;
pos = (705,0);
},
{
name = top;
pos = (1059,2008);
}
);
layerId = m01;
shapes = (
{
closed = 1;
nodes = (
(313,0,o),
(323,38,o),
(331,85,cs),
(494,1008,l),
(1256,46,ls),
(1287,7,o),
(1312,-5,o),
(1332,-5,cs),
(1388,-5,o),
(1408,51,o),
(1349,126,cs),
(636,1027,l),
(1178,1043,o),
(1591,1130,o),
(1641,1511,cs),
(1686,1854,o),
(1293,2008,o),
(609,2008,cs),
(550,2008,o),
(537,1984,o),
(528,1935,cs),
(202,85,ls),
(193,36,o),
(209,0,o),
(255,0,cs)
);
},
{
closed = 1;
nodes = (
(651,1896,l),
(1247,1889,o),
(1545,1751,o),
(1515,1522,cs),
(1474,1211,o),
(1031,1145,o),
(518,1140,c)
);
}
);
vertWidth = 0;
width = 1644;
},
{
anchors = (
{
name = bottom;
pos = (751,0);
},
{
name = top;
pos = (1105,2008);
}
);
layerId = "140DECC1-64C4-40C0-9C07-503DBC3F4160";
shapes = (
{
closed = 1;
nodes = (
(410,0,o),
(494,70,o),
(510,164,cs),
(633,869,l),
(1230,70,ls),
(1277,7,o),
(1349,0,o),
(1388,0,cs),
(1487,0,o),
(1579,121,o),
(1464,276,cs),
(963,951,l),
(1378,995,o),
(1709,1129,o),
(1772,1479,cs),
(1841,1861,o),
(1417,2008,o),
(665,2008,cs),
(569,2008,o),
(512,1969,o),
(496,1881,cs),
(194,166,ls),
(178,75,o),
(215,0,o),
(314,0,cs)
);
},
{
closed = 1;
nodes = (
(785,1730,l),
(1337,1732,o),
(1499,1642,o),
(1472,1486,cs),
(1440,1301,o),
(1116,1226,o),
(694,1213,c)
);
}
);
vertWidth = 0;
width = 1679;
}
);
metricLeft = H;
unicode = 82;
},
{
glyphname = S;
kernLeft = S;
kernRight = S;
layers = (
{
anchors = (
{
name = bottom;
pos = (623,0);
},
{
name = top;
pos = (977,2008);
}
);
layerId = m01;
shapes = (
{
closed = 1;
nodes = (
(942,0,o),
(1238,264,o),
(1238,564,cs),
(1238,811,o),
(1097,984,o),
(904,1109,cs),
(810,1170,ls),
(599,1307,o),
(509,1413,o),
(509,1545,cs),
(509,1794,o),
(776,1898,o),
(1110,1898,cs),
(1375,1898,ls),
(1409,1898,o),
(1430,1916,o),
(1430,1955,cs),
(1430,2009,o),
(1383,2008,o),
(1372,2008,cs),
(1086,2008,ls),
(646,2008,o),
(378,1818,o),
(378,1535,cs),
(378,1381,o),
(488,1230,o),
(683,1099,cs),
(780,1034,ls),
(967,909,o),
(1109,766,o),
(1109,562,cs),
(1109,316,o),
(872,113,o),
(436,113,cs),
(170,113,ls),
(135,113,o),
(110,92,o),
(110,53,cs),
(110,0,o),
(163,0,o),
(170,0,cs),
(417,0,ls)
);
}
);
vertWidth = 0;
width = 1400;
},
{
anchors = (
{
name = bottom;
pos = (611,0);
},
{
name = top;
pos = (965,2008);
}
);
layerId = "140DECC1-64C4-40C0-9C07-503DBC3F4160";
shapes = (
{
closed = 1;
nodes = (
(787,0,o),
(1320,153,o),
(1320,593,cs),
(1320,874,o),
(1110,1024,o),
(919,1170,cs),
(860,1215,ls),
(676,1355,o),
(574,1420,o),
(574,1506,cs),
(574,1628,o),
(792,1727,o),
(997,1727,cs),
(1408,1727,ls),
(1489,1727,o),
(1554,1792,o),
(1554,1870,cs),
(1554,1982,o),
(1460,2008,o),
(1406,2008,cs),
(1000,2008,ls),
(587,2008,o),
(267,1776,o),
(267,1493,cs),
(267,1269,o),
(456,1150,o),
(665,1001,cs),
(730,955,ls),
(925,817,o),
(1010,726,o),
(1010,593,cs),
(1010,356,o),
(662,281,o),
(482,281,cs),
(168,281,ls),
(87,281,o),
(20,213,o),
(20,135,cs),
(20,26,o),
(124,0,o),
(168,0,cs),
(482,0,ls)
);
}
);
vertWidth = 0;
width = 1464;
},
{
associatedMasterId = m01;
layerId = "A440414B-586A-40A5-AE6A-EB7CED442D21";
name = background;
shapes = (
{
closed = 1;
nodes = (
(235,0,o),
(412,59,o),
(412,219,cs),
(412,320,o),
(359,378,o),
(274,437,cs),
(187,498,o),
(133,537,o),
(133,590,cs),
(133,659,o),
(238,713,o),
(329,713,cs),
(484,713,ls),
(499,713,o),
(511,728,o),
(511,744,cs),
(511,772,o),
(487,772,o),
(482,772,cs),
(330,772,ls),
(177,772,o),
(72,684,o),
(72,586,cs),
(72,501,o),
(141,457,o),
(235,391,cs),
(320,330,o),
(353,286,o),
(353,217,cs),
(353,99,o),
(196,59,o),
(119,59,cs),
(0,59,ls),
(-15,59,o),
(-29,44,o),
(-29,29,cs),
(-29,0,o),
(-2,0,o),
(0,0,cs),
(119,0,ls)
);
}
);
vertWidth = 0;
width = 594;
}
);
unicode = 83;
},
{
glyphname = Germandbls;
kernLeft = H;
kernRight = Germandbls;
layers = (
{
layerId = m01;
shapes = (
{
closed = 1;
nodes = (
(1286,-3,o),
(1622,181,o),
(1678,587,cs),
(1725,929,o),
(1447,1088,o),
(1228,1185,c),
(1774,1895,ls),
(1796,1920,o),
(1795,1955,o),
(1785,1971,cs),
(1772,1996,o),
(1756,2007,o),
(1725,2007,cs),
(617,2007,ls),
(565,2007,o),
(532,1988,o),
(525,1943,cs),
(201,50,ls),
(196,19,o),
(209,-10,o),
(259,-10,cs),
(309,-10,o),
(329,12,o),
(336,52,cs),
(647,1884,l),
(1623,1884,l),
(1115,1237,l),
(1068,1172,o),
(1079,1104,o),
(1182,1062,cs),
(1307,1013,o),
(1589,900,o),
(1540,563,cs),
(1499,261,o),
(1160,129,o),
(855,129,cs),
(649,129,ls),
(620,129,o),
(591,99,o),
(590,60,cs),
(590,15,o),
(624,1,o),
(652,1,cs),
(857,0,ls)
);
}
);
width = 1762;
},
{
layerId = "140DECC1-64C4-40C0-9C07-503DBC3F4160";
shapes = (
{
closed = 1;
nodes = (
(1313,-7,o),
(1769,150,o),
(1828,590,cs),
(1874,921,o),
(1646,1143,o),
(1452,1225,c),
(1883,1772,ls),
(1925,1823,o),
(1926,1885,o),
(1903,1930,cs),
(1880,1976,o),
(1832,2008,o),
(1771,2008,cs),
(663,2008,ls),
(583,2008,o),
(506,1969,o),
(491,1880,cs),
(192,151,ls),
(178,65,o),
(237,0,o),
(333,0,cs),
(432,0,o),
(480,62,o),
(489,125,cs),
(765,1730,l),
(1512,1730,l),
(1139,1285,l),
(1085,1213,o),
(1074,1095,o),
(1204,1034,cs),
(1353,965,o),
(1567,853,o),
(1530,590,cs),
(1497,353,o),
(1280,274,o),
(1022,278,cs),
(803,281,ls),
(725,282,o),
(661,213,o),
(660,135,cs),
(659,26,o),
(759,1,o),
(802,0,cs),
(1021,-3,ls)
);
}
);
width = 1828;
}
);
metricLeft = H;
metricRight = S;
unicode = 7838;
},
{
glyphname = T;
kernLeft = T;
kernRight = T;
layers = (
{
anchors = (
{
name = bottom;
pos = (605,0);
},
{
name = center;
pos = (699,1004);
},
{
name = top;
pos = (876,2008);
}
);
layerId = m01;
shapes = (
{
closed = 1;
nodes = (
(661,0,o),
(669,36,o),
(674,67,cs),
(994,1896,l),
(1537,1896,ls),
(1589,1896,o),
(1601,1918,o),
(1601,1952,cs),
(1601,1985,o),
(1589,2008,o),
(1537,2008,cs),
(317,2008,ls),
(262,2008,o),
(250,1985,o),
(250,1952,cs),
(250,1918,o),
(262,1896,o),
(317,1896,cs),
(866,1896,l),
(548,67,ls),
(541,24,o),
(555,0,o),
(605,0,cs)
);
}
);
vertWidth = 0;
width = 1501;
},
{
anchors = (
{
name = bottom;
pos = (678,0);
},
{
name = center;
pos = (745,1004);
},
{
name = top;
pos = (922,2008);
}
);
layerId = "140DECC1-64C4-40C0-9C07-503DBC3F4160";
shapes = (
{
closed = 1;
nodes = (
(757,-3,o),
(809,55,o),
(822,120,cs),
(1105,1740,l),
(1532,1740,ls),
(1631,1740,o),
(1686,1802,o),
(1686,1875,cs),
(1686,1956,o),
(1626,2018,o),
(1532,2018,cs),
(414,2018,ls),
(320,2018,o),
(260,1956,o),
(260,1875,cs),
(260,1802,o),
(315,1740,o),
(414,1740,cs),
(793,1740,l),
(513,151,ls),
(497,65,o),
(559,-3,o),
(656,-3,cs)
);
}
);
vertWidth = 0;
width = 1596;
}
);
unicode = 84;
},
{
glyphname = U;
kernLeft = U;
kernRight = H;
layers = (
{
anchors = (
{
name = bottom;
pos = (693,0);
},
{
name = ogonek;
pos = (1347,10);
},
{
name = top;
pos = (1037,2008);
},
{
name = topright;
pos = (1836,2008);
}
);
guides = (
{
angle = 80;
pos = (1359,998);
}
);
layerId = m01;
shapes = (
{
closed = 1;
nodes = (
(706,-20,o),
(1081,334,o),
(1372,1073,c),
(1195,70,ls),
(1186,21,o),
(1217,0,o),
(1257,0,cs),
(1290,0,o),
(1320,18,o),
(1327,60,cs),
(1659,1944,ls),
(1666,1986,o),
(1652,2008,o),
(1599,2008,cs),
(1550,2008,o),
(1532,1981,o),
(1526,1946,cs),
(1465,1600,l),
(1200,741,o),
(761,96,o),
(445,96,cs),
(279,96,o),
(319,347,o),
(355,551,cs),
(599,1938,ls),
(606,1978,o),
(587,2005,o),
(547,2008,cs),
(504,2008,o),
(475,1974,o),
(467,1927,cs),
(225,552,ls),
(154,146,o),
(242,-20,o),
(419,-20,cs)
);
}
);
vertWidth = 0;
width = 1701;
},
{
anchors = (
{
name = bottom;
pos = (747,0);
},
{
name = ogonek;
pos = (1433,10);
},
{
name = top;
pos = (1071,2008);
},
{
name = topright;
pos = (1967,2008);
}
);
layerId = "140DECC1-64C4-40C0-9C07-503DBC3F4160";
shapes = (
{
closed = 1;
nodes = (
(754,-20,o),
(1026,194,o),
(1238,557,c),
(1167,151,ls),
(1149,49,o),
(1226,0,o),
(1312,0,cs),
(1382,0,o),
(1462,36,o),
(1476,114,cs),
(1783,1860,ls),
(1798,1946,o),
(1741,2008,o),
(1637,2008,cs),
(1549,2008,o),
(1486,1961,o),
(1473,1891,cs),
(1435,1678,l),
(1198,804,o),
(867,258,o),
(576,258,cs),
(480,258,o),
(491,388,o),
(523,572,cs),
(748,1855,ls),
(763,1943,o),
(701,2008,o),
(610,2008,cs),
(511,2011,o),
(446,1927,o),
(436,1873,cs),
(212,603,ls),
(137,177,o),
(264,-20,o),
(490,-20,cs)
);
}
);
vertWidth = 0;
width = 1835;
}
);
metricLeft = H;
metricRight = H;
unicode = 85;
},
{
glyphname = V;
kernLeft = V;
kernRight = V;
layers = (
{
anchors = (
{
name = bottom;
pos = (504,0);
},
{
name = top;
pos = (858,2008);
}
);
layerId = m01;
shapes = (
{
closed = 1;
nodes = (
(523,-5,o),
(533,21,o),
(555,66,cs),
(1478,1934,ls),
(1505,1988,o),
(1480,2013,o),
(1439,2013,cs),
(1384,2013,o),
(1367,1996,o),
(1341,1945,cs),
(509,226,l),
(429,1953,ls),
(429,1982,o),
(417,2013,o),
(356,2013,cs),
(310,2013,o),
(298,1990,o),
(300,1946,cs),
(403,69,l),
(408,32,o),
(427,-5,o),
(473,-5,cs)
);
}
);
vertWidth = 0;
width = 1489;
},
{
anchors = (
{
name = bottom;
pos = (618,0);
},
{
name = top;
pos = (972,2008);
}
);
layerId = "140DECC1-64C4-40C0-9C07-503DBC3F4160";
shapes = (
{
closed = 1;
nodes = (
(701,-5,o),
(740,47,o),
(772,104,c),
(1622,1826,ls),
(1677,1933,o),
(1607,2008,o),
(1508,2008,cs),
(1419,2008,o),
(1359,1972,o),
(1331,1909,c),
(719,645,l),
(660,1886,ls),
(657,1956,o),
(600,2008,o),
(501,2008,cs),
(413,2008,o),
(353,1959,o),
(361,1868,c),
(459,135,ls),
(462,60,o),
(525,-5,o),
(613,-5,cs)
);
}
);
vertWidth = 0;
width = 1494;
}
);
unicode = 86;
},
{
glyphname = W;
kernLeft = W;
kernRight = W;
layers = (
{
anchors = (
{
name = bottom;
pos = (1006,0);
},
{
name = top;
pos = (1440,2008);
}
);
layerId = m01;
shapes = (
{
closed = 1;
nodes = (
(522,-5,o),
(544,35,o),
(559,69,c),
(1396,1798,l),
(1485,42,ls),
(1488,6,o),
(1502,-5,o),
(1552,-5,cs),
(1586,-5,o),
(1609,16,o),
(1631,66,c),
(2553,1934,ls),
(2579,1988,o),
(2554,2013,o),
(2502,2013,cs),
(2463,2013,o),
(2440,1992,o),
(2415,1945,c),
(1590,240,l),
(1502,1952,l),
(1498,1982,o),
(1485,2013,o),
(1422,2013,cs),
(1380,2013,o),
(1351,1968,o),
(1341,1947,cs),
(513,230,l),
(428,1953,l),
(428,1982,o),
(417,2013,o),
(356,2013,cs),
(309,2013,o),
(297,1990,o),
(300,1946,cs),
(403,69,ls),
(407,23,o),
(430,-5,o),
(478,-5,cs)
);
}
);
vertWidth = 0;
width = 2513;
},
{
anchors = (
{
name = bottom;
pos = (1123,0);
},
{
name = top;
pos = (1527,2008);
}
);
layerId = "140DECC1-64C4-40C0-9C07-503DBC3F4160";
shapes = (
{
closed = 1;
nodes = (
(678,0,o),
(733,39,o),
(767,104,cs),
(1394,1367,l),
(1479,138,ls),
(1485,52,o),
(1545,0,o),
(1630,0,cs),
(1698,0,o),
(1760,39,o),
(1792,109,cs),
(2634,1826,ls),
(2686,1933,o),
(2606,2008,o),
(2515,2008,cs),
(2418,2008,o),
(2366,1956,o),
(2338,1901,cs),
(1738,658,l),
(1651,1886,ls),
(1646,1961,o),
(1594,2008,o),
(1485,2008,cs),
(1383,2008,o),
(1355,1951,o),
(1336,1912,cs),
(713,640,l),
(660,1886,ls),
(658,1956,o),
(603,2008,o),
(504,2008,cs),
(416,2008,o),
(353,1959,o),
(361,1868,c),
(452,135,l),
(460,52,o),
(520,0,o),
(619,0,cs)
);
}
);
vertWidth = 0;
width = 2524;
}
);
unicode = 87;
},
{
glyphname = X;
kernLeft = X;
kernRight = X;
layers = (
{
anchors = (
{
name = bottom;
pos = (644,0);
},
{
name = top;
pos = (998,2008);
}
);
layerId = m01;
shapes = (
{
closed = 1;
nodes = (
(110,-15,o),
(157,-18,o),
(186,24,cs),
(803,873,l),
(1113,46,ls),
(1131,-6,o),
(1181,-14,o),
(1216,4,cs),
(1242,17,o),
(1251,43,o),
(1235,86,cs),
(893,995,l),
(1555,1908,ls),
(1586,1949,o),
(1580,1983,o),
(1558,2000,cs),
(1531,2023,o),
(1483,2021,o),
(1453,1979,cs),
(839,1137,l),
(527,1965,ls),
(508,2016,o),
(468,2025,o),
(435,2011,cs),
(402,2000,o),
(391,1971,o),
(412,1917,cs),
(751,1015,l),
(76,90,l),
(51,58,o),
(57,28,o),
(79,10,cs)
);
}
);
vertWidth = 0;
width = 1546;
},
{
anchors = (
{
name = bottom;
pos = (639,0);
},
{
name = top;
pos = (993,2008);
}
);
layerId = "140DECC1-64C4-40C0-9C07-503DBC3F4160";
shapes = (
{
closed = 1;
nodes = (
(132,-10,o),
(254,-26,o),
(308,49,cs),
(770,695,l),
(998,86,ls),
(1032,-3,o),
(1149,-18,o),
(1219,18,cs),
(1284,52,o),
(1315,112,o),
(1284,187,c),
(981,989,l),
(1552,1787,ls),
(1606,1860,o),
(1593,1925,o),
(1536,1974,cs),
(1481,2024,o),
(1370,2026,o),
(1315,1951,cs),
(858,1316,l),
(628,1925,ls),
(595,2011,o),
(496,2024,o),
(425,2000,cs),
(345,1972,o),
(316,1907,o),
(353,1810,cs),
(647,1023,l),
(64,213,ls),
(17,148,o),
(17,88,o),
(72,39,cs)
);
}
);
vertWidth = 0;
width = 1536;
}
);
unicode = 88;
},
{
glyphname = Y;
kernLeft = Y;
kernRight = Y;
layers = (
{
anchors = (
{
name = bottom;
pos = (597,0);
},
{
name = top;
pos = (951,2008);
},
{
name = topleft;
pos = (412,2008);
}
);
layerId = m01;
shapes = (
{
closed = 1;
nodes = (
(833,1136,l),
(517,1959,ls),
(504,1993,o),
(483,2013,o),
(441,2013,cs),
(410,2013,o),
(384,1990,o),
(384,1965,cs),
(384,1949,o),
(387,1944,o),
(397,1917,cs),
(745,1015,l),
(58,67,ls),
(33,33,o),
(68,0,o),
(104,0,cs),
(143,0,o),
(171,42,o),
(190,68,cs),
(1545,1900,ls),
(1563,1925,o),
(1569,1940,o),
(1569,1955,cs),
(1569,1982,o),
(1539,2006,o),
(1509,2006,cs),
(1480,2006,o),
(1463,2004,o),
(1440,1972,cs)
);
}
);
vertWidth = 0;
width = 1439;
},
{
anchors = (
{
name = bottom;
pos = (783,0);
},
{
name = top;
pos = (1137,2008);
},
{
name = topleft;
pos = (511,2008);
}
);
layerId = "140DECC1-64C4-40C0-9C07-503DBC3F4160";
shapes = (
{
closed = 1;
nodes = (
(1001,1292,l),
(766,1912,ls),
(741,1979,o),
(701,2008,o),
(636,2008,cs),
(545,2008,o),
(472,1959,o),
(472,1894,cs),
(472,1862,o),
(477,1844,o),
(490,1810,cs),
(798,1014,l),
(174,156,ls),
(123,86,o),
(224,0,o),
(311,0,cs),
(394,0,o),
(445,77,o),
(484,130,cs),
(1717,1777,ls),
(1742,1811,o),
(1753,1843,o),
(1753,1879,cs),
(1753,1960,o),
(1657,2009,o),
(1602,2009,cs),
(1553,2009,o),
(1506,1986,o),
(1475,1944,cs)
);
}
);
vertWidth = 0;
width = 1524;
}
);
unicode = 89;
},
{
glyphname = Z;
kernLeft = Z;
kernRight = Z;
layers = (
{
anchors = (
{
name = bottom;
pos = (662,0);
},
{
name = center;
pos = (839,1004);
},
{
name = top;
pos = (1016,2008);
}
);
layerId = m01;
shapes = (
{
closed = 1;
nodes = (
(1195,-5,ls),
(1250,-5,o),
(1263,23,o),
(1263,59,cs),
(1263,92,o),
(1251,110,o),
(1195,110,cs),
(253,110,l),
(1546,1904,ls),
(1561,1926,o),
(1571,1949,o),
(1571,1965,cs),
(1571,2000,o),
(1556,2013,o),
(1505,2013,cs),
(481,2013,ls),
(428,2013,o),
(415,1985,o),
(415,1952,cs),
(415,1917,o),
(426,1901,o),
(481,1901,cs),
(1398,1901,l),
(96,93,ls),
(83,75,o),
(80,61,o),
(80,46,cs),
(80,19,o),
(97,-5,o),
(148,-5,cs)
);
}
);
vertWidth = 0;
width = 1471;
},
{
anchors = (
{
name = bottom;
pos = (702,0);
},
{
name = center;
pos = (879,1004);
},
{
name = top;
pos = (1056,2008);
}
);
layerId = "140DECC1-64C4-40C0-9C07-503DBC3F4160";
shapes = (
{
closed = 1;
nodes = (
(1216,0,ls),
(1315,0,o),
(1370,60,o),
(1370,133,cs),
(1370,213,o),
(1307,278,o),
(1216,278,cs),
(520,278,l),
(1614,1782,ls),
(1643,1821,o),
(1653,1855,o),
(1653,1886,cs),
(1653,1961,o),
(1588,2018,o),
(1487,2018,cs),
(548,2018,ls),
(454,2018,o),
(394,1956,o),
(394,1875,cs),
(394,1802,o),
(449,1740,o),
(548,1740,cs),
(1218,1740,l),
(106,216,ls),
(88,192,o),
(80,164,o),
(80,135,cs),
(80,78,o),
(119,0,o),
(257,0,cs)
);
}
);
vertWidth = 0;
width = 1553;
}
);
unicode = 90;
},
{
color = 10;
glyphname = A.ss02;
kernLeft = A;
kernRight = A;
layers = (
{
anchors = (
{
name = bottom;
pos = (638,0);
},
{
name = ogonek;
pos = (1188,10);
},
{
name = top;
pos = (992,2008);
}
);
layerId = m01;
shapes = (
{
closed = 1;
nodes = (
(141,0,o),
(158,25,o),
(188,83,cs),
(659,1008,l),
(1059,1008,l),
(1132,84,ls),
(1135,52,o),
(1147,0,o),
(1221,0,cs),
(1283,0,o),
(1304,39,o),
(1300,91,cs),
(1144,1943,ls),
(1141,1978,o),
(1116,2008,o),
(1059,2008,cs),
(983,2008,o),
(979,1968,o),
(958,1928,cs),
(13,113,ls),
(-24,43,o),
(23,0,o),
(76,0,cs)
);
},
{
closed = 1;
nodes = (
(33,20,o),
(1,49,o),
(30,104,cs),
(976,1919,ls),
(999,1963,o),
(1000,1988,o),
(1059,1988,cs),
(1105,1988,o),
(1122,1968,o),
(1124,1940,cs),
(1281,89,ls),
(1285,45,o),
(1270,20,o),
(1221,20,cs),
(1163,20,o),
(1154,55,o),
(1152,85,cs),
(1077,1028,l),
(647,1028,l),
(170,92,ls),
(141,36,o),
(130,20,o),
(76,20,cs)
);
},
{
closed = 1;
nodes = (
(1046,1159,l),
(1006,1689,l),
(737,1159,l)
);
},
{
closed = 1;
nodes = (
(996,1713,ls),
(1015,1750,o),
(1020,1750,o),
(1023,1708,cs),
(1068,1140,l),
(704,1140,l)
);
}
);
vertWidth = 0;
width = 1500;
},
{
anchors = (
{
name = bottom;
pos = (756,0);
},
{
name = ogonek;
pos = (1371,10);
},
{
name = top;
pos = (1110,2008);
}
);
layerId = "140DECC1-64C4-40C0-9C07-503DBC3F4160";
shapes = (
{
closed = 1;
nodes = (
(285,-20,o),
(340,8,o),
(382,92,cs),
(742,803,l),
(1125,802,l),
(1181,124,ls),
(1188,37,o),
(1245,-20,o),
(1352,-20,cs),
(1448,-20,o),
(1521,35,o),
(1512,145,cs),
(1364,1864,ls),
(1355,1972,o),
(1275,2028,o),
(1170,2028,cs),
(1060,2028,o),
(990,1976,o),
(957,1913,cs),
(62,194,ls),
(-3,70,o),
(86,-20,o),
(195,-20,cs)
);
},
{
closed = 1;
nodes = (
(109,20,o),
(47,78,o),
(98,176,cs),
(993,1895,ls),
(1021,1949,o),
(1075,1988,o),
(1170,1988,cs),
(1260,1988,o),
(1316,1948,o),
(1324,1860,cs),
(1472,141,ls),
(1479,56,o),
(1431,20,o),
(1352,20,cs),
(1264,20,o),
(1227,58,o),
(1221,126,cs),
(1161,842,l),
(718,843,l),
(346,110,ls),
(310,39,o),
(273,20,o),
(195,20,cs)
);
},
{
closed = 1;
nodes = (
(1099,1122,l),
(1071,1451,l),
(904,1122,l)
);
},
{
closed = 1;
nodes = (
(1054,1505,ls),
(1088,1571,o),
(1099,1576,o),
(1105,1509,cs),
(1141,1082,l),
(839,1082,l)
);
}
);
vertWidth = 0;
width = 1678;
}
);
metricLeft = A;
metricRight = A;
},
{
color = 10;
glyphname = B.ss02;
kernLeft = H;
kernRight = B;
layers = (
{
anchors = (
{
name = bottom;
pos = (736,0);
},
{
name = center;
pos = (913,1004);
},
{
name = top;
pos = (1090,2008);
}
);
layerId = m01;
shapes = (
{
closed = 1;
nodes = (
(1139,0,o),
(1389,167,o),
(1442,509,cs),
(1485,787,o),
(1348,976,o),
(1057,1077,c),
(1436,1138,o),
(1531,1279,o),
(1555,1469,cs),
(1602,1839,o),
(1283,2008,o),
(622,2008,cs),
(566,2008,o),
(534,1984,o),
(522,1918,cs),
(202,107,ls),
(193,55,o),
(219,0,o),
(268,0,cs)
);
},
{
closed = 1;
nodes = (
(233,20,o),
(213,60,o),
(221,103,cs),
(541,1914,ls),
(551,1972,o),
(574,1988,o),
(622,1988,cs),
(1276,1988,o),
(1579,1827,o),
(1535,1472,cs),
(1510,1270,o),
(1410,1136,o),
(964,1084,c),
(1308,994,o),
(1467,802,o),
(1423,511,cs),
(1373,180,o),
(1131,20,o),
(268,20,cs)
);
},
{
closed = 1;
nodes = (
(921,166,o),
(1231,246,o),
(1271,529,cs),
(1309,796,o),
(1096,999,o),
(537,1020,c),
(386,162,l)
);
},
{
closed = 1;
nodes = (
(520,1040,l),
(1102,1022,o),
(1331,807,o),
(1291,527,cs),
(1248,225,o),
(915,144,o),
(362,142,c)
);
},
{
closed = 1;
nodes = (
(1262,1169,o),
(1360,1287,o),
(1381,1476,cs),
(1410,1741,o),
(1145,1842,o),
(682,1849,c),
(561,1160,l)
);
},
{
closed = 1;
nodes = (
(666,1869,l),
(1143,1865,o),
(1434,1759,o),
(1401,1474,cs),
(1378,1274,o),
(1271,1147,o),
(538,1140,c)
);
}
);
vertWidth = 0;
width = 1590;
},
{
anchors = (
{
name = bottom;
pos = (823,0);
},
{
name = center;
pos = (1000,1004);
},
{
name = top;
pos = (1177,2008);
}
);
layerId = "140DECC1-64C4-40C0-9C07-503DBC3F4160";
shapes = (
{
closed = 1;
nodes = (
(1254,-20,o),
(1582,62,o),
(1644,507,cs),
(1683,784,o),
(1567,954,o),
(1354,1063,c),
(1631,1146,o),
(1770,1292,o),
(1790,1455,cs),
(1838,1856,o),
(1468,2028,o),
(666,2028,cs),
(590,2028,o),
(517,2002,o),
(496,1884,cs),
(193,167,ls),
(174,61,o),
(251,-20,o),
(343,-20,cs)
);
},
{
closed = 1;
nodes = (
(272,20,o),
(218,76,o),
(233,161,cs),
(536,1878,ls),
(552,1970,o),
(600,1988,o),
(666,1988,cs),
(1456,1988,o),
(1793,1832,o),
(1750,1461,cs),
(1729,1285,o),
(1573,1147,o),
(1231,1073,c),
(1501,973,o),
(1646,807,o),
(1604,513,cs),
(1545,97,o),
(1246,20,o),
(343,20,cs)
);
},
{
closed = 1;
nodes = (
(1100,313,o),
(1269,373,o),
(1297,567,cs),
(1331,797,o),
(1181,898,o),
(682,917,c),
(573,299,l)
);
},
{
closed = 1;
nodes = (
(649,959,l),
(1192,942,o),
(1375,825,o),
(1337,561,cs),
(1305,336,o),
(1099,269,o),
(525,257,c)
);
},
{
closed = 1;
nodes = (
(1404,1234,o),
(1431,1377,o),
(1440,1476,cs),
(1451,1605,o),
(1355,1689,o),
(821,1706,c),
(733,1213,l)
);
},
{
closed = 1;
nodes = (
(787,1747,l),
(1369,1733,o),
(1494,1629,o),
(1480,1472,cs),
(1470,1365,o),
(1441,1188,o),
(686,1171,c)
);
}
);
vertWidth = 0;
width = 1761;
}
);
metricLeft = B;
metricRight = B;
},
{
color = 10;
glyphname = C.ss02;
kernLeft = C;
kernRight = C;
layers = (
{
anchors = (
{
name = bottom;
pos = (720,0);
},
{
name = top;
pos = (1074,2008);
}
);
layerId = m01;
shapes = (
{
closed = 1;
nodes = (
(1045,0,o),
(1254,139,o),
(1430,333,cs),
(1507,418,o),
(1515,459,o),
(1512,483,cs),
(1504,524,o),
(1473,546,o),
(1430,546,cs),
(1374,546,o),
(1355,490,o),
(1295,437,cs),
(1128,278,o),
(979,162,o),
(781,162,cs),
(567,162,o),
(346,430,o),
(433,938,cs),
(495,1290,o),
(639,1849,o),
(1167,1849,cs),
(1307,1849,o),
(1452,1786,o),
(1588,1644,cs),
(1634,1598,o),
(1682,1611,o),
(1710,1641,cs),
(1739,1673,o),
(1731,1727,o),
(1700,1757,cs),
(1542,1909,o),
(1363,2008,o),
(1170,2008,cs),
(513,2008,o),
(339,1380,o),
(261,944,cs),
(152,335,o),
(479,0,o),
(779,0,cs)
);
},
{
closed = 1;
nodes = (
(489,20,o),
(174,343,o),
(281,941,cs),
(358,1375,o),
(528,1988,o),
(1170,1988,cs),
(1358,1988,o),
(1537,1900,o),
(1686,1743,cs),
(1712,1718,o),
(1718,1677,o),
(1695,1654,cs),
(1674,1629,o),
(1639,1620,o),
(1602,1657,cs),
(1464,1803,o),
(1311,1869,o),
(1167,1869,cs),
(624,1869,o),
(475,1294,o),
(414,941,cs),
(325,422,o),
(556,142,o),
(781,142,cs),
(986,142,o),
(1141,263,o),
(1308,423,cs),
(1373,479,o),
(1387,526,o),
(1430,526,cs),
(1466,526,o),
(1486,511,o),
(1492,480,cs),
(1495,461,o),
(1488,427,o),
(1415,346,cs),
(1241,154,o),
(1038,20,o),
(779,20,cs)
);
}
);
vertWidth = 0;
width = 1668;
},
{
anchors = (
{
name = bottom;
pos = (755,0);
},
{
name = top;
pos = (1109,2008);
}
);
layerId = "140DECC1-64C4-40C0-9C07-503DBC3F4160";
shapes = (
{
closed = 1;
nodes = (
(1114,-20,o),
(1384,103,o),
(1568,303,cs),
(1647,389,o),
(1679,435,o),
(1679,499,cs),
(1679,567,o),
(1627,626,o),
(1534,626,cs),
(1481,626,o),
(1413,607,o),
(1335,520,cs),
(1210,380,o),
(1034,298,o),
(861,298,cs),
(645,298,o),
(533,561,o),
(597,936,cs),
(685,1455,o),
(901,1710,o),
(1251,1710,cs),
(1388,1710,o),
(1480,1680,o),
(1576,1592,cs),
(1656,1521,o),
(1762,1487,o),
(1840,1565,cs),
(1921,1646,o),
(1875,1750,o),
(1792,1825,cs),
(1624,1977,o),
(1450,2028,o),
(1254,2028,cs),
(712,2028,o),
(375,1661,o),
(248,945,cs),
(152,394,o),
(412,-20,o),
(858,-20,cs)
);
},
{
closed = 1;
nodes = (
(437,20,o),
(195,405,o),
(288,939,cs),
(412,1640,o),
(732,1988,o),
(1254,1988,cs),
(1443,1988,o),
(1605,1941,o),
(1766,1795,cs),
(1840,1728,o),
(1872,1654,o),
(1812,1593,cs),
(1752,1534,o),
(1674,1558,o),
(1602,1622,cs),
(1500,1716,o),
(1395,1750,o),
(1251,1750,cs),
(880,1750,o),
(648,1475,o),
(557,942,cs),
(491,552,o),
(616,258,o),
(861,258,cs),
(1044,258,o),
(1233,347,o),
(1365,494,cs),
(1434,570,o),
(1488,586,o),
(1534,586,cs),
(1606,586,o),
(1639,549,o),
(1639,499,cs),
(1639,448,o),
(1615,414,o),
(1538,331,cs),
(1361,137,o),
(1104,20,o),
(858,20,cs)
);
}
);
vertWidth = 0;
width = 1799;
}
);
metricLeft = C;
metricRight = C;
},
{
color = 10;
glyphname = D.ss02;
kernLeft = H;
kernRight = D;
layers = (
{
anchors = (
{
name = bottom;
pos = (784,0);
},
{
name = center;
pos = (961,1004);
},
{
name = top;
pos = (1138,2008);
}
);
layerId = m01;
shapes = (
{
closed = 1;
nodes = (
(481,0,ls),
(1072,0,o),
(1571,377,o),
(1662,1062,cs),
(1743,1677,o),
(1304,2008,o),
(735,2008,cs),
(624,2008,ls),
(553,2008,o),
(533,1969,o),
(524,1918,cs),
(202,94,ls),
(193,41,o),
(219,0,o),
(281,0,cs)
);
},
{
closed = 1;
nodes = (
(231,20,o),
(213,47,o),
(221,90,cs),
(544,1914,ls),
(552,1961,o),
(566,1988,o),
(624,1988,cs),
(735,1988,ls),
(1296,1988,o),
(1721,1667,o),
(1642,1065,cs),
(1552,389,o),
(1064,20,o),
(481,20,cs),
(281,20,ls)
);
},
{
closed = 1;
nodes = (
(481,162,ls),
(972,162,o),
(1416,471,o),
(1490,1085,cs),
(1546,1571,o),
(1211,1849,o),
(746,1849,cs),
(685,1849,l),
(387,162,l)
);
},
{
closed = 1;
nodes = (
(668,1869,l),
(746,1869,ls),
(1219,1869,o),
(1567,1581,o),
(1510,1083,cs),
(1434,459,o),
(979,142,o),
(481,142,cs),
(364,142,l)
);
}
);
vertWidth = 0;
width = 1692;
},
{
anchors = (
{
name = bottom;
pos = (877,0);
},
{
name = center;
pos = (1054,1004);
},
{
name = top;
pos = (1231,2008);
}
);
layerId = "140DECC1-64C4-40C0-9C07-503DBC3F4160";
shapes = (
{
closed = 1;
nodes = (
(593,-20,ls),
(1225,-20,o),
(1756,451,o),
(1841,1082,cs),
(1921,1668,o),
(1533,2028,o),
(832,2028,cs),
(677,2028,ls),
(571,2028,o),
(515,1979,o),
(498,1885,cs),
(193,155,ls),
(176,59,o),
(246,-20,o),
(354,-20,cs)
);
},
{
closed = 1;
nodes = (
(267,20,o),
(220,74,o),
(233,147,cs),
(538,1877,ls),
(552,1956,o),
(589,1988,o),
(677,1988,cs),
(832,1988,ls),
(1514,1988,o),
(1878,1649,o),
(1801,1088,cs),
(1718,473,o),
(1207,20,o),
(593,20,cs),
(354,20,ls)
);
},
{
closed = 1;
nodes = (
(593,296,ls),
(1057,296,o),
(1443,632,o),
(1502,1085,cs),
(1553,1476,o),
(1308,1712,o),
(848,1712,cs),
(824,1712,l),
(575,296,l)
);
},
{
closed = 1;
nodes = (
(790,1752,l),
(848,1752,ls),
(1327,1752,o),
(1596,1493,o),
(1542,1079,cs),
(1481,610,o),
(1074,256,o),
(593,256,cs),
(527,256,l)
);
}
);
vertWidth = 0;
width = 1866;
}
);
metricLeft = D;
metricRight = D;
},
{
color = 10;
glyphname = E.ss02;
kernLeft = H;
kernRight = E;
layers = (
{
anchors = (
{
name = bottom;
pos = (723,0);
},
{
name = ogonek;
pos = (1302,10);
},
{
name = top;
pos = (1077,2008);
},
{
name = topleft;
pos = (375,2008);
}
);
layerId = m01;
shapes = (
{
closed = 1;
nodes = (
(1309,0,ls),
(1378,0,o),
(1399,51,o),
(1399,90,cs),
(1399,130,o),
(1377,162,o),
(1309,162,cs),
(387,162,l),
(536,1005,l),
(1340,1005,ls),
(1410,1005,o),
(1430,1045,o),
(1429,1078,cs),
(1428,1120,o),
(1409,1160,o),
(1339,1160,cs),
(563,1160,l),
(685,1849,l),
(1608,1849,ls),
(1676,1849,o),
(1697,1881,o),
(1697,1924,cs),
(1697,1963,o),
(1677,2008,o),
(1608,2008,cs),
(627,2008,ls),
(553,2008,o),
(533,1968,o),
(524,1918,cs),
(202,94,ls),
(193,41,o),
(219,0,o),
(281,0,cs)
);
},
{
closed = 1;
nodes = (
(231,20,o),
(213,47,o),
(221,90,cs),
(544,1914,ls),
(552,1961,o),
(566,1988,o),
(627,1988,cs),
(1608,1988,ls),
(1663,1988,o),
(1678,1957,o),
(1678,1924,cs),
(1678,1888,o),
(1665,1869,o),
(1608,1869,cs),
(668,1869,l),
(539,1140,l),
(1339,1140,ls),
(1396,1140,o),
(1408,1114,o),
(1409,1078,cs),
(1410,1051,o),
(1397,1025,o),
(1340,1025,cs),
(519,1025,l),
(364,142,l),
(1309,142,ls),
(1366,142,o),
(1380,123,o),
(1380,90,cs),
(1380,56,o),
(1364,20,o),
(1309,20,cs),
(281,20,ls)
);
}
);
vertWidth = 0;
width = 1677;
},
{
anchors = (
{
name = bottom;
pos = (775,0);
},
{
name = ogonek;
pos = (1410,10);
},
{
name = top;
pos = (1129,2008);
},
{
name = topleft;
pos = (355,2008);
}
);
layerId = "140DECC1-64C4-40C0-9C07-503DBC3F4160";
shapes = (
{
closed = 1;
nodes = (
(1402,-20,ls),
(1503,-20,o),
(1575,37,o),
(1575,130,cs),
(1575,212,o),
(1519,296,o),
(1407,296,cs),
(575,296,l),
(682,910,l),
(1466,910,ls),
(1574,910,o),
(1652,978,o),
(1652,1063,cs),
(1652,1155,o),
(1582,1213,o),
(1481,1213,cs),
(736,1213,l),
(824,1712,l),
(1706,1712,ls),
(1810,1712,o),
(1885,1781,o),
(1885,1873,cs),
(1885,1962,o),
(1819,2028,o),
(1714,2028,cs),
(684,2028,ls),
(580,2028,o),
(517,1988,o),
(500,1892,cs),
(193,156,ls),
(176,61,o),
(223,-20,o),
(328,-20,cs)
);
},
{
closed = 1;
nodes = (
(249,20,o),
(219,72,o),
(233,150,cs),
(540,1884,ls),
(554,1962,o),
(594,1988,o),
(684,1988,cs),
(1714,1988,ls),
(1800,1988,o),
(1845,1943,o),
(1845,1873,cs),
(1845,1801,o),
(1792,1752,o),
(1706,1752,cs),
(790,1752,l),
(688,1173,l),
(1481,1173,ls),
(1565,1173,o),
(1612,1134,o),
(1612,1063,cs),
(1612,999,o),
(1556,950,o),
(1466,950,cs),
(648,950,l),
(527,256,l),
(1407,256,ls),
(1495,256,o),
(1535,197,o),
(1535,130,cs),
(1535,59,o),
(1486,20,o),
(1402,20,cs),
(328,20,ls)
);
}
);
vertWidth = 0;
width = 1805;
}
);
metricLeft = E;
metricRight = E;
},
{
color = 10;
glyphname = F.ss02;
kernLeft = F;
kernRight = F;
layers = (
{
anchors = (
{
name = bottom;
pos = (641,0);
},
{
name = top;
pos = (995,2008);
}
);
layerId = m01;
shapes = (
{
closed = 1;
nodes = (
(356,0,o),
(367,54,o),
(373,86,cs),
(536,1005,l),
(1306,1005,ls),
(1376,1005,o),
(1396,1045,o),
(1396,1078,cs),
(1396,1120,o),
(1376,1160,o),
(1306,1160,cs),
(564,1160,l),
(685,1849,l),
(1577,1849,ls),
(1645,1849,o),
(1667,1881,o),
(1667,1924,cs),
(1667,1963,o),
(1646,2008,o),
(1577,2008,cs),
(627,2008,ls),
(553,2008,o),
(533,1968,o),
(524,1918,cs),
(202,94,ls),
(193,41,o),
(220,0,o),
(282,0,cs)
);
},
{
closed = 1;
nodes = (
(232,20,o),
(214,48,o),
(221,90,cs),
(544,1914,ls),
(552,1961,o),
(566,1988,o),
(627,1988,cs),
(1577,1988,ls),
(1633,1988,o),
(1647,1957,o),
(1647,1924,cs),
(1647,1888,o),
(1634,1869,o),
(1577,1869,cs),
(668,1869,l),
(540,1140,l),
(1306,1140,ls),
(1363,1140,o),
(1377,1114,o),
(1377,1078,cs),
(1377,1051,o),
(1363,1025,o),
(1306,1025,cs),
(519,1025,l),
(354,89,ls),
(349,59,o),
(340,20,o),
(282,20,cs)
);
}
);
vertWidth = 0;
width = 1647;
},
{
anchors = (
{
name = bottom;
pos = (721,0);
},
{
name = top;
pos = (1075,2008);
}
);
layerId = "140DECC1-64C4-40C0-9C07-503DBC3F4160";
shapes = (
{
closed = 1;
nodes = (
(456,-20,o),
(531,53,o),
(549,156,cs),
(681,910,l),
(1450,910,ls),
(1560,910,o),
(1620,980,o),
(1620,1065,cs),
(1620,1154,o),
(1556,1213,o),
(1452,1213,cs),
(734,1213,l),
(822,1712,l),
(1669,1712,ls),
(1783,1712,o),
(1850,1792,o),
(1850,1868,cs),
(1850,1964,o),
(1784,2028,o),
(1679,2028,cs),
(676,2028,ls),
(570,2028,o),
(514,1985,o),
(497,1889,cs),
(194,170,ls),
(178,79,o),
(210,-20,o),
(349,-20,cs)
);
},
{
closed = 1;
nodes = (
(241,20,o),
(220,85,o),
(234,162,cs),
(537,1883,ls),
(551,1961,o),
(586,1988,o),
(676,1988,cs),
(1679,1988,ls),
(1765,1988,o),
(1810,1945,o),
(1810,1868,cs),
(1810,1809,o),
(1762,1752,o),
(1669,1752,cs),
(788,1752,l),
(686,1173,l),
(1452,1173,ls),
(1538,1173,o),
(1580,1134,o),
(1580,1065,cs),
(1580,997,o),
(1539,950,o),
(1450,950,cs),
(647,950,l),
(509,162,ls),
(494,75,o),
(438,20,o),
(349,20,cs)
);
}
);
vertWidth = 0;
width = 1730;
}
);
metricLeft = F;
metricRight = F;
},
{
color = 10;
glyphname = G.ss02;
kernLeft = G;
kernRight = G;
layers = (
{
anchors = (
{
name = bottom;
pos = (773,0);
},
{
name = top;
pos = (1127,2008);
}
);
layerId = m01;
shapes = (
{
closed = 1;
nodes = (
(942,-20,o),
(1111,95,o),
(1308,363,c),
(1264,94,ls),
(1258,55,o),
(1268,4,o),
(1335,0,cs),
(1415,-3,o),
(1432,56,o),
(1438,91,cs),
(1557,783,ls),
(1567,840,o),
(1551,877,o),
(1488,877,cs),
(1420,877,o),
(1386,829,o),
(1352,748,cs),
(1191,379,o),
(979,142,o),
(764,142,cs),
(496,142,o),
(358,487,o),
(434,938,cs),
(539,1545,o),
(785,1869,o),
(1168,1869,cs),
(1308,1869,o),
(1443,1809,o),
(1581,1666,cs),
(1624,1622,o),
(1672,1634,o),
(1701,1664,cs),
(1731,1695,o),
(1724,1749,o),
(1693,1780,cs),
(1542,1939,o),
(1364,2028,o),
(1171,2028,cs),
(694,2028,o),
(390,1648,o),
(262,944,cs),
(169,404,o),
(380,-20,o),
(761,-20,cs)
);
},
{
closed = 1;
nodes = (
(394,0,o),
(190,409,o),
(282,941,cs),
(408,1638,o),
(704,2008,o),
(1171,2008,cs),
(1359,2008,o),
(1530,1923,o),
(1679,1767,cs),
(1705,1740,o),
(1707,1701,o),
(1686,1677,cs),
(1664,1653,o),
(1630,1644,o),
(1595,1679,cs),
(1455,1826,o),
(1312,1889,o),
(1168,1889,cs),
(774,1889,o),
(520,1555,o),
(415,941,cs),
(337,483,o),
(481,122,o),
(764,122,cs),
(988,122,o),
(1208,367,o),
(1370,740,cs),
(1404,819,o),
(1431,857,o),
(1488,857,cs),
(1538,857,o),
(1546,836,o),
(1538,787,cs),
(1419,94,ls),
(1413,61,o),
(1400,17,o),
(1336,20,cs),
(1285,23,o),
(1279,56,o),
(1284,90,cs),
(1332,389,ls),
(1339,435,o),
(1332,432,o),
(1304,392,cs),
(1105,113,o),
(940,0,o),
(761,0,cs)
);
}
);
vertWidth = 0;
width = 1760;
},
{
anchors = (
{
name = bottom;
pos = (841,0);
},
{
name = top;
pos = (1195,2008);
}
);
layerId = "140DECC1-64C4-40C0-9C07-503DBC3F4160";
shapes = (
{
closed = 1;
nodes = (
(997,-20,o),
(1142,72,o),
(1273,235,c),
(1261,174,ls),
(1240,65,o),
(1317,-1,o),
(1435,-1,cs),
(1555,-1,o),
(1589,65,o),
(1603,146,cs),
(1722,822,ls),
(1741,930,o),
(1680,1001,o),
(1572,1001,cs),
(1507,1001,o),
(1433,985,o),
(1350,832,cs),
(1194,560,o),
(1000,298,o),
(800,298,cs),
(631,298,o),
(532,533,o),
(601,936,cs),
(689,1455,o),
(905,1710,o),
(1255,1710,cs),
(1392,1710,o),
(1484,1680,o),
(1580,1592,cs),
(1660,1521,o),
(1766,1487,o),
(1844,1565,cs),
(1925,1646,o),
(1879,1750,o),
(1796,1825,cs),
(1628,1977,o),
(1454,2028,o),
(1258,2028,cs),
(716,2028,o),
(379,1661,o),
(252,945,cs),
(148,351,o),
(384,-20,o),
(797,-20,cs)
);
},
{
closed = 1;
nodes = (
(408,20,o),
(191,363,o),
(292,939,cs),
(416,1640,o),
(736,1988,o),
(1258,1988,cs),
(1447,1988,o),
(1609,1941,o),
(1770,1795,cs),
(1844,1728,o),
(1876,1654,o),
(1816,1593,cs),
(1756,1534,o),
(1678,1558,o),
(1606,1622,cs),
(1504,1716,o),
(1399,1750,o),
(1255,1750,cs),
(884,1750,o),
(652,1475,o),
(561,942,cs),
(489,523,o),
(602,258,o),
(800,258,cs),
(1021,258,o),
(1227,537,o),
(1384,812,cs),
(1458,948,o),
(1512,961,o),
(1572,961,cs),
(1659,961,o),
(1697,915,o),
(1682,828,cs),
(1563,152,ls),
(1551,81,o),
(1529,39,o),
(1435,39,cs),
(1335,39,o),
(1286,82,o),
(1301,166,cs),
(1325,297,ls),
(1336,355,o),
(1316,360,o),
(1279,309,cs),
(1143,121,o),
(1003,20,o),
(797,20,cs)
);
}
);
vertWidth = 0;
width = 1916;
}
);
metricLeft = G;
metricRight = G;
},
{
color = 10;
glyphname = H.ss02;
kernLeft = H;
kernRight = H;
layers = (
{
anchors = (
{
name = bottom;
pos = (788,0);
},
{
name = center;
pos = (965,1004);
},
{
name = top;
pos = (1142,2008);
},
{
name = topleft;
pos = (375,2008);
}
);
layerId = m01;
shapes = (
{
closed = 1;
nodes = (
(356,0,o),
(368,54,o),
(374,86,cs),
(536,1005,l),
(1390,1005,l),
(1232,94,ls),
(1225,55,o),
(1233,0,o),
(1311,0,cs),
(1378,0,o),
(1398,45,o),
(1403,76,cs),
(1726,1909,ls),
(1736,1966,o),
(1713,2008,o),
(1647,2008,cs),
(1584,2008,o),
(1555,1968,o),
(1549,1933,cs),
(1416,1160,l),
(563,1160,l),
(694,1901,ls),
(705,1963,o),
(685,2008,o),
(626,2008,cs),
(561,2008,o),
(533,1969,o),
(524,1918,cs),
(202,94,ls),
(193,41,o),
(220,0,o),
(281,0,cs)
);
},
{
closed = 1;
nodes = (
(231,20,o),
(213,47,o),
(221,90,cs),
(543,1914,ls),
(551,1960,o),
(572,1988,o),
(626,1988,cs),
(672,1988,o),
(684,1958,o),
(674,1904,cs),
(539,1140,l),
(1433,1140,l),
(1569,1929,ls),
(1574,1959,o),
(1596,1988,o),
(1647,1988,cs),
(1700,1988,o),
(1716,1961,o),
(1707,1912,cs),
(1384,79,ls),
(1379,52,o),
(1365,20,o),
(1311,20,cs),
(1251,20,o),
(1246,56,o),
(1252,90,cs),
(1413,1025,l),
(519,1025,l),
(354,89,ls),
(349,59,o),
(341,20,o),
(281,20,cs)
);
}
);
vertWidth = 0;
width = 1768;
},
{
anchors = (
{
name = bottom;
pos = (857,0);
},
{
name = center;
pos = (1034,1004);
},
{
name = top;
pos = (1211,2008);
},
{
name = topleft;
pos = (354,2008);
}
);
layerId = "140DECC1-64C4-40C0-9C07-503DBC3F4160";
shapes = (
{
closed = 1;
nodes = (
(477,-20,o),
(533,52,o),
(542,122,c),
(669,851,l),
(1350,851,l),
(1228,154,ls),
(1210,53,o),
(1275,-20,o),
(1388,-20,cs),
(1486,-20,o),
(1560,39,o),
(1575,110,c),
(1877,1848,ls),
(1897,1961,o),
(1823,2028,o),
(1716,2028,cs),
(1619,2028,o),
(1545,1975,o),
(1532,1897,cs),
(1405,1170,l),
(724,1170,l),
(841,1841,ls),
(862,1963,o),
(796,2028,o),
(696,2028,cs),
(606,2028,o),
(515,1985,o),
(497,1885,cs),
(193,155,ls),
(175,56,o),
(249,-20,o),
(358,-20,cs)
);
},
{
closed = 1;
nodes = (
(268,20,o),
(219,72,o),
(233,147,cs),
(537,1877,ls),
(551,1955,o),
(618,1988,o),
(696,1988,cs),
(777,1988,o),
(819,1946,o),
(801,1847,cs),
(676,1130,l),
(1439,1130,l),
(1572,1891,ls),
(1581,1950,o),
(1634,1988,o),
(1716,1988,cs),
(1804,1988,o),
(1853,1944,o),
(1837,1856,cs),
(1535,118,ls),
(1524,63,o),
(1470,20,o),
(1388,20,cs),
(1296,20,o),
(1253,68,o),
(1268,148,cs),
(1398,891,l),
(635,891,l),
(502,128,l),
(495,70,o),
(455,20,o),
(358,20,cs)
);
}
);
vertWidth = 0;
width = 1930;
}
);
metricLeft = H;
metricRight = H;
},
{
color = 10;
glyphname = I.ss02;
kernLeft = I;
kernRight = I;
layers = (
{
anchors = (
{
name = bottom;
pos = (398,0);
},
{
name = ogonek;
pos = (726,10);
},
{
name = top;
pos = (752,2008);
},
{
name = topleft;
pos = (362,2008);
}
);
layerId = m01;
shapes = (
{
closed = 1;
nodes = (
(552,0,ls),
(622,0,o),
(642,40,o),
(642,79,cs),
(642,122,o),
(622,162,o),
(552,162,cs),
(511,162,l),
(808,1849,l),
(872,1849,ls),
(938,1849,o),
(959,1892,o),
(959,1931,cs),
(959,1971,o),
(938,2008,o),
(872,2008,cs),
(599,2008,ls),
(530,2008,o),
(510,1971,o),
(510,1931,cs),
(510,1892,o),
(530,1849,o),
(599,1849,cs),
(629,1849,l),
(335,162,l),
(267,162,ls),
(201,162,o),
(180,121,o),
(180,79,cs),
(180,40,o),
(201,0,o),
(267,0,cs)
);
},
{
closed = 1;
nodes = (
(214,20,o),
(200,46,o),
(200,79,cs),
(200,115,o),
(214,142,o),
(267,142,cs),
(352,142,l),
(653,1869,l),
(599,1869,ls),
(543,1869,o),
(529,1897,o),
(529,1931,cs),
(529,1965,o),
(543,1988,o),
(599,1988,cs),
(872,1988,ls),
(926,1988,o),
(939,1965,o),
(939,1931,cs),
(939,1897,o),
(925,1869,o),
(872,1869,cs),
(791,1869,l),
(488,142,l),
(552,142,ls),
(609,142,o),
(622,115,o),
(622,79,cs),
(622,46,o),
(609,20,o),
(552,20,cs),
(267,20,ls)
);
}
);
vertWidth = 0;
width = 959;
},
{
anchors = (
{
name = bottom;
pos = (490,0);
},
{
name = ogonek;
pos = (836,10);
},
{
name = top;
pos = (844,2008);
},
{
name = topleft;
pos = (432,2008);
}
);
layerId = "140DECC1-64C4-40C0-9C07-503DBC3F4160";
shapes = (
{
closed = 1;
nodes = (
(815,-20,ls),
(933,-20,o),
(972,54,o),
(983,132,cs),
(997,218,o),
(951,298,o),
(859,298,cs),
(765,298,l),
(1010,1710,l),
(1125,1710,ls),
(1236,1710,o),
(1287,1793,o),
(1301,1872,cs),
(1312,1961,o),
(1251,2028,o),
(1169,2028,cs),
(617,2028,ls),
(512,2028,o),
(461,1961,o),
(447,1878,cs),
(432,1795,o),
(489,1710,o),
(576,1710,cs),
(656,1710,l),
(412,298,l),
(310,298,ls),
(200,298,o),
(146,221,o),
(132,138,cs),
(117,54,o),
(175,-20,o),
(266,-20,cs)
);
},
{
closed = 1;
nodes = (
(198,20,o),
(160,67,o),
(172,132,cs),
(184,203,o),
(222,258,o),
(310,258,cs),
(446,258,l),
(704,1750,l),
(576,1750,ls),
(514,1750,o),
(475,1807,o),
(487,1872,cs),
(499,1943,o),
(534,1988,o),
(617,1988,cs),
(1169,1988,ls),
(1230,1988,o),
(1270,1944,o),
(1261,1878,cs),
(1249,1809,o),
(1212,1750,o),
(1125,1750,cs),
(976,1750,l),
(717,258,l),
(859,258,ls),
(926,258,o),
(955,207,o),
(943,138,cs),
(934,68,o),
(907,20,o),
(815,20,cs),
(266,20,ls)
);
}
);
vertWidth = 0;
width = 1252;
}
);
metricLeft = I;
metricRight = I;
},
{
color = 10;
glyphname = J.ss02;
kernLeft = J;
kernRight = J;
layers = (
{
anchors = (
{
name = bottom;
pos = (615,0);
},
{
name = top;
pos = (969,2008);
}
);
layerId = m01;
shapes = (
{
closed = 1;
nodes = (
(98,0,o),
(374,13,o),
(434,21,cs),
(855,83,o),
(938,461,o),
(1019,915,cs),
(1213,2008,l),
(1039,2008,l),
(848,933,ls),
(786,586,o),
(735,234,o),
(444,184,cs),
(361,169,o),
(77,162,o),
(5,162,cs),
(-38,162,o),
(-82,132,o),
(-82,84,cs),
(-82,33,o),
(-38,0,o),
(5,0,cs)
);
},
{
closed = 1;
nodes = (
(-30,20,o),
(-62,44,o),
(-62,84,cs),
(-62,121,o),
(-31,142,o),
(5,142,cs),
(77,142,o),
(363,150,o),
(447,165,cs),
(752,217,o),
(805,582,o),
(867,930,cs),
(1055,1988,l),
(1190,1988,l),
(999,919,ls),
(918,465,o),
(838,101,o),
(431,41,cs),
(372,33,o),
(98,20,o),
(5,20,cs)
);
}
);
vertWidth = 0;
width = 1419;
},
{
anchors = (
{
name = bottom;
pos = (661,0);
},
{
name = top;
pos = (1015,2008);
}
);
layerId = "140DECC1-64C4-40C0-9C07-503DBC3F4160";
shapes = (
{
closed = 1;
nodes = (
(173,-20,o),
(443,-15,o),
(499,-7,cs),
(1077,63,o),
(1076,486,o),
(1150,904,cs),
(1346,2008,l),
(991,2008,l),
(803,950,ls),
(745,622,o),
(720,343,o),
(487,314,cs),
(413,304,o),
(147,298,o),
(82,298,cs),
(-3,298,o),
(-89,230,o),
(-89,138,cs),
(-89,42,o),
(-2,-20,o),
(82,-20,cs)
);
},
{
closed = 1;
nodes = (
(13,20,o),
(-49,65,o),
(-49,138,cs),
(-49,208,o),
(14,258,o),
(82,258,cs),
(147,258,o),
(417,264,o),
(493,274,cs),
(757,307,o),
(785,618,o),
(843,944,cs),
(1024,1966,l),
(1298,1966,l),
(1110,912,ls),
(1035,490,o),
(1038,99,o),
(493,33,cs),
(439,25,o),
(173,20,o),
(82,20,cs)
);
}
);
vertWidth = 0;
width = 1512;
}
);
},
{
color = 10;
glyphname = K.ss02;
kernLeft = H;
kernRight = K;
layers = (
{
anchors = (
{
name = bottom;
pos = (718,0);
},
{
name = top;
pos = (1072,2008);
}
);
layerId = m01;
shapes = (
{
closed = 1;
nodes = (
(1357,0,o),
(1401,35,o),
(1401,79,cs),
(1401,106,o),
(1389,128,o),
(1363,163,cs),
(675,1075,l),
(1665,1846,ls),
(1703,1876,o),
(1725,1898,o),
(1725,1942,cs),
(1725,1971,o),
(1701,2008,o),
(1657,2008,cs),
(1628,2008,o),
(1593,1997,o),
(1555,1967,cs),
(568,1191,l),
(695,1901,ls),
(706,1961,o),
(691,2008,o),
(623,2008,cs),
(556,2008,o),
(533,1969,o),
(524,1917,cs),
(202,110,ls),
(193,58,o),
(219,0,o),
(281,0,cs),
(353,0,o),
(369,62,o),
(376,104,cs),
(532,988,l),
(1218,64,ls),
(1242,32,o),
(1270,0,o),
(1316,0,cs)
);
},
{
closed = 1;
nodes = (
(1279,20,o),
(1257,45,o),
(1234,75,cs),
(541,1009,ls),
(523,1034,o),
(520,1033,o),
(516,1008,cs),
(356,107,ls),
(349,66,o),
(338,20,o),
(281,20,cs),
(233,20,o),
(213,63,o),
(221,106,cs),
(543,1914,ls),
(551,1961,o),
(568,1988,o),
(623,1988,cs),
(675,1988,o),
(685,1959,o),
(675,1904,cs),
(546,1178,ls),
(541,1150,o),
(545,1148,o),
(573,1170,cs),
(1567,1952,ls),
(1603,1980,o),
(1632,1988,o),
(1655,1988,cs),
(1689,1988,o),
(1705,1964,o),
(1705,1942,cs),
(1705,1907,o),
(1690,1890,o),
(1653,1861,cs),
(647,1079,l),
(1347,151,ls),
(1372,118,o),
(1381,101,o),
(1381,79,cs),
(1381,46,o),
(1349,20,o),
(1316,20,cs)
);
}
);
vertWidth = 0;
width = 1530;
},
{
anchors = (
{
name = bottom;
pos = (770,0);
},
{
name = top;
pos = (1124,2008);
}
);
layerId = "140DECC1-64C4-40C0-9C07-503DBC3F4160";
shapes = (
{
closed = 1;
nodes = (
(1486,-20,o),
(1557,58,o),
(1557,146,cs),
(1557,191,o),
(1541,241,o),
(1518,274,cs),
(968,1056,l),
(1795,1733,ls),
(1843,1772,o),
(1880,1823,o),
(1880,1888,cs),
(1880,1961,o),
(1825,2028,o),
(1722,2028,cs),
(1668,2028,o),
(1602,2010,o),
(1550,1967,cs),
(749,1313,l),
(844,1841,ls),
(869,1979,o),
(769,2028,o),
(687,2028,cs),
(601,2028,o),
(515,1984,o),
(497,1885,cs),
(193,169,ls),
(175,66,o),
(251,-20,o),
(361,-20,cs),
(466,-20,o),
(525,48,o),
(540,134,cs),
(670,865,l),
(1224,67,ls),
(1262,13,o),
(1328,-20,o),
(1391,-20,cs)
);
},
{
closed = 1;
nodes = (
(1339,20,o),
(1288,45,o),
(1258,89,cs),
(691,905,ls),
(656,955,o),
(645,952,o),
(635,895,cs),
(500,142,ls),
(487,69,o),
(446,20,o),
(361,20,cs),
(272,20,o),
(218,81,o),
(233,163,cs),
(537,1877,ls),
(551,1956,o),
(613,1988,o),
(687,1988,cs),
(757,1988,o),
(823,1955,o),
(804,1847,cs),
(704,1286,ls),
(693,1227,o),
(699,1219,o),
(762,1271,cs),
(1576,1935,ls),
(1621,1972,o),
(1675,1988,o),
(1722,1988,cs),
(1804,1988,o),
(1840,1944,o),
(1840,1888,cs),
(1840,1838,o),
(1813,1799,o),
(1769,1763,cs),
(914,1064,l),
(1484,252,ls),
(1504,223,o),
(1517,183,o),
(1517,146,cs),
(1517,76,o),
(1466,20,o),
(1391,20,cs)
);
}
);
vertWidth = 0;
width = 1680;
}
);
metricLeft = K;
metricRight = K;
},
{
color = 10;
glyphname = L.ss02;
kernLeft = H;
kernRight = L;
layers = (
{
anchors = (
{
name = bottom;
pos = (723,0);
},
{
name = center;
pos = (900,1004);
},
{
name = top;
pos = (1077,2008);
},
{
name = topright;
pos = (1781,2008);
}
);
layerId = m01;
shapes = (
{
closed = 1;
nodes = (
(1312,0,ls),
(1375,0,o),
(1401,50,o),
(1401,90,cs),
(1401,132,o),
(1373,162,o),
(1312,162,cs),
(388,162,l),
(696,1901,ls),
(706,1960,o),
(695,2008,o),
(624,2008,cs),
(556,2008,o),
(530,1969,o),
(521,1918,cs),
(202,94,ls),
(191,42,o),
(221,0,o),
(281,0,cs)
);
},
{
closed = 1;
nodes = (
(233,20,o),
(213,48,o),
(222,90,cs),
(540,1914,ls),
(551,1961,o),
(568,1988,o),
(624,1988,cs),
(678,1988,o),
(686,1959,o),
(676,1904,cs),
(364,142,l),
(1312,142,ls),
(1364,142,o),
(1381,122,o),
(1381,90,cs),
(1381,56,o),
(1362,20,o),
(1312,20,cs),
(281,20,ls)
);
}
);
vertWidth = 0;
width = 1491;
},
{
anchors = (
{
name = bottom;
pos = (780,0);
},
{
name = center;
pos = (957,1004);
},
{
name = top;
pos = (1134,2008);
},
{
name = topright;
pos = (1913,2008);
}
);
layerId = "140DECC1-64C4-40C0-9C07-503DBC3F4160";
shapes = (
{
closed = 1;
nodes = (
(1415,-20,ls),
(1519,-20,o),
(1591,58,o),
(1591,143,cs),
(1591,227,o),
(1519,298,o),
(1415,298,cs),
(575,298,l),
(850,1841,l),
(872,1988,o),
(785,2028,o),
(700,2028,cs),
(601,2028,o),
(518,1984,o),
(500,1885,cs),
(193,154,ls),
(176,56,o),
(243,-20,o),
(346,-20,cs)
);
},
{
closed = 1;
nodes = (
(264,20,o),
(219,71,o),
(233,148,cs),
(540,1877,ls),
(554,1956,o),
(613,1988,o),
(700,1988,cs),
(774,1988,o),
(828,1962,o),
(810,1847,cs),
(527,258,l),
(1415,258,ls),
(1500,258,o),
(1551,208,o),
(1551,143,cs),
(1551,76,o),
(1499,20,o),
(1415,20,cs),
(346,20,ls)
);
}
);
vertWidth = 0;
width = 1621;
}
);
metricLeft = L;
metricRight = L;
},
{
color = 10;
glyphname = M.ss02;
kernLeft = M;
kernRight = M;
layers = (
{
anchors = (
{
name = bottom;
pos = (1204,0);
},
{
name = top;
pos = (1558,2008);
}
);
layerId = m01;
shapes = (
{
closed = 1;
nodes = (
(112,0,o),
(155,25,o),
(185,83,cs),
(1001,1664,l),
(1119,83,ls),
(1122,51,o),
(1137,0,o),
(1214,0,cs),
(1280,0,o),
(1306,57,o),
(1318,80,cs),
(2139,1669,l),
(2260,84,ls),
(2263,51,o),
(2280,0,o),
(2353,0,cs),
(2408,0,o),
(2437,39,o),
(2432,91,cs),
(2282,1913,ls),
(2278,1965,o),
(2267,2008,o),
(2195,2008,cs),
(2122,2008,o),
(2101,1956,o),
(2083,1922,cs),
(1264,329,l),
(1142,1943,ls),
(1138,1968,o),
(1118,2008,o),
(1055,2008,cs),
(997,2008,o),
(974,1969,o),
(953,1928,cs),
(15,130,ls),
(-24,50,o),
(21,0,o),
(77,0,cs)
);
},
{
closed = 1;
nodes = (
(31,20,o),
(0,55,o),
(33,121,cs),
(970,1919,ls),
(991,1959,o),
(1009,1988,o),
(1055,1988,cs),
(1105,1988,o),
(1120,1961,o),
(1122,1941,cs),
(1245,310,ls),
(1248,268,o),
(1255,269,o),
(1275,308,cs),
(2101,1913,ls),
(2119,1947,o),
(2135,1988,o),
(2195,1988,cs),
(2252,1988,o),
(2258,1961,o),
(2262,1912,cs),
(2412,89,ls),
(2417,47,o),
(2396,20,o),
(2353,20,cs),
(2295,20,o),
(2282,56,o),
(2280,85,cs),
(2158,1689,ls),
(2155,1729,o),
(2150,1732,o),
(2128,1690,cs),
(1300,89,ls),
(1287,66,o),
(1267,20,o),
(1214,20,cs),
(1152,20,o),
(1142,55,o),
(1139,85,cs),
(1019,1683,ls),
(1016,1719,o),
(1007,1721,o),
(985,1678,cs),
(168,92,ls),
(141,39,o),
(107,20,o),
(77,20,cs)
);
}
);
vertWidth = 0;
width = 2633;
},
{
anchors = (
{
name = bottom;
pos = (1259,0);
},
{
name = top;
pos = (1613,2008);
}
);
layerId = "140DECC1-64C4-40C0-9C07-503DBC3F4160";
shapes = (
{
closed = 1;
nodes = (
(260,-20,o),
(354,11,o),
(395,92,cs),
(1011,1300,l),
(1101,123,ls),
(1107,44,o),
(1170,-20,o),
(1274,-20,cs),
(1409,-20,o),
(1445,50,o),
(1464,87,cs),
(2090,1303,l),
(2175,124,ls),
(2180,48,o),
(2255,-20,o),
(2361,-20,cs),
(2461,-20,o),
(2530,52,o),
(2522,145,cs),
(2381,1875,ls),
(2373,1968,o),
(2350,2028,o),
(2226,2028,cs),
(2127,2028,o),
(2067,1987,o),
(2029,1913,cs),
(1392,681,l),
(1305,1874,ls),
(1298,1971,o),
(1255,2028,o),
(1116,2028,cs),
(1021,2028,o),
(988,1984,o),
(952,1916,cs),
(60,207,ls),
(-2,88,o),
(92,-20,o),
(197,-20,cs)
);
},
{
closed = 1;
nodes = (
(115,20,o),
(47,95,o),
(96,189,cs),
(988,1898,ls),
(1021,1961,o),
(1042,1988,o),
(1116,1988,cs),
(1233,1988,o),
(1259,1954,o),
(1265,1872,cs),
(1355,634,ls),
(1361,552,o),
(1369,552,o),
(1412,634,cs),
(2065,1895,ls),
(2097,1957,o),
(2141,1988,o),
(2226,1988,cs),
(2322,1988,o),
(2334,1956,o),
(2341,1871,cs),
(2482,141,ls),
(2488,69,o),
(2442,20,o),
(2361,20,cs),
(2273,20,o),
(2219,69,o),
(2215,126,cs),
(2126,1363,ls),
(2121,1437,o),
(2115,1437,o),
(2074,1358,cs),
(1428,105,ls),
(1410,69,o),
(1384,20,o),
(1274,20,cs),
(1190,20,o),
(1146,64,o),
(1141,127,cs),
(1048,1354,ls),
(1042,1433,o),
(1035,1432,o),
(995,1354,cs),
(359,110,ls),
(326,45,o),
(252,20,o),
(197,20,cs)
);
}
);
vertWidth = 0;
width = 2688;
}
);
metricLeft = M;
metricRight = M;
},
{
color = 10;
glyphname = N.ss02;
kernLeft = H;
kernRight = H;
layers = (
{
anchors = (
{
name = bottom;
pos = (786,0);
},
{
name = top;
pos = (1140,2008);
}
);
layerId = m01;
shapes = (
{
closed = 1;
nodes = (
(356,0,o),
(369,56,o),
(376,94,cs),
(648,1646,l),
(1227,61,ls),
(1239,29,o),
(1270,0,o),
(1318,0,cs),
(1391,0,o),
(1398,55,o),
(1403,86,cs),
(1722,1901,ls),
(1732,1960,o),
(1721,2008,o),
(1653,2008,cs),
(1588,2008,o),
(1562,1969,o),
(1553,1917,cs),
(1282,388,l),
(726,1940,ls),
(715,1970,o),
(680,2008,o),
(620,2008,cs),
(549,2008,o),
(530,1968,o),
(521,1918,cs),
(202,94,ls),
(193,42,o),
(221,0,o),
(281,0,cs)
);
},
{
closed = 1;
nodes = (
(232,20,o),
(214,48,o),
(221,90,cs),
(540,1914,ls),
(548,1962,o),
(563,1988,o),
(620,1988,cs),
(671,1988,o),
(698,1959,o),
(707,1933,cs),
(1272,356,ls),
(1284,322,o),
(1290,322,o),
(1296,356,cs),
(1573,1914,ls),
(1581,1960,o),
(1600,1988,o),
(1653,1988,cs),
(1704,1988,o),
(1713,1959,o),
(1703,1904,cs),
(1384,89,ls),
(1379,58,o),
(1374,20,o),
(1318,20,cs),
(1279,20,o),
(1256,41,o),
(1246,68,cs),
(658,1676,ls),
(645,1712,o),
(639,1712,o),
(633,1676,cs),
(356,97,ls),
(350,60,o),
(341,20,o),
(281,20,cs)
);
}
);
vertWidth = 0;
width = 1765;
},
{
anchors = (
{
name = bottom;
pos = (856,0);
},
{
name = top;
pos = (1210,2008);
}
);
layerId = "140DECC1-64C4-40C0-9C07-503DBC3F4160";
shapes = (
{
closed = 1;
nodes = (
(459,-20,o),
(529,48,o),
(542,127,cs),
(734,1290,l),
(1243,78,ls),
(1270,15,o),
(1323,-20,o),
(1409,-20,cs),
(1527,-20,o),
(1563,52,o),
(1575,121,cs),
(1877,1840,ls),
(1896,1950,o),
(1839,2038,o),
(1724,2038,cs),
(1629,2038,o),
(1548,1983,o),
(1532,1884,cs),
(1339,710,l),
(829,1925,ls),
(798,2000,o),
(735,2028,o),
(665,2028,cs),
(578,2028,o),
(517,1979,o),
(500,1884,cs),
(193,155,ls),
(175,56,o),
(245,-20,o),
(345,-20,cs)
);
},
{
closed = 1;
nodes = (
(266,20,o),
(220,71,o),
(233,147,cs),
(540,1878,ls),
(554,1955,o),
(594,1988,o),
(665,1988,cs),
(723,1988,o),
(768,1968,o),
(793,1909,cs),
(1319,652,ls),
(1351,576,o),
(1357,576,o),
(1370,657,cs),
(1572,1878,ls),
(1585,1957,o),
(1644,1998,o),
(1724,1998,cs),
(1814,1998,o),
(1853,1939,o),
(1837,1848,cs),
(1535,129,ls),
(1524,66,o),
(1500,20,o),
(1409,20,cs),
(1337,20,o),
(1300,43,o),
(1279,94,cs),
(754,1348,ls),
(723,1422,o),
(716,1421,o),
(703,1344,cs),
(502,133,ls),
(492,70,o),
(441,20,o),
(345,20,cs)
);
}
);
vertWidth = 0;
width = 1931;
}
);
metricLeft = N;
metricRight = N;
},
{
color = 10;
glyphname = O.ss02;
kernLeft = O;
kernRight = O;
layers = (
{
anchors = (
{
name = bottom;
pos = (752,0);
},
{
name = center;
pos = (929,1004);
},
{
name = ogonek;
pos = (1408,10);
},
{
name = top;
pos = (1106,2008);
},
{
name = topleft;
pos = (307,2008);
},
{
name = topright;
pos = (1905,2008);
}
);
layerId = m01;
shapes = (
{
closed = 1;
nodes = (
(1337,0,o),
(1575,790,o),
(1646,1192,cs),
(1737,1700,o),
(1571,2008,o),
(1128,2008,cs),
(578,2008,o),
(342,1443,o),
(269,1019,cs),
(184,519,o),
(267,0,o),
(805,0,cs)
);
},
{
closed = 1;
nodes = (
(284,20,o),
(204,520,o),
(289,1015,cs),
(361,1437,o),
(591,1988,o),
(1128,1988,cs),
(1558,1988,o),
(1716,1695,o),
(1626,1196,cs),
(1556,795,o),
(1322,20,o),
(805,20,cs)
);
},
{
closed = 1;
nodes = (
(374,627,o),
(404,162,o),
(802,162,cs),
(1150,162,o),
(1415,842,o),
(1474,1178,cs),
(1536,1524,o),
(1511,1849,o),
(1113,1849,cs),
(675,1849,o),
(486,1249,o),
(438,984,cs)
);
},
{
closed = 1;
nodes = (
(467,1254,o),
(660,1869,o),
(1113,1869,cs),
(1530,1869,o),
(1556,1524,o),
(1493,1175,cs),
(1434,836,o),
(1165,142,o),
(802,142,cs),
(385,142,o),
(354,628,o),
(419,988,cs)
);
}
);
vertWidth = 0;
width = 1690;
},
{
anchors = (
{
name = bottom;
pos = (809,0);
},
{
name = center;
pos = (986,1004);
},
{
name = ogonek;
pos = (1538,10);
},
{
name = top;
pos = (1163,2008);
},
{
name = topleft;
pos = (273,2008);
},
{
name = topright;
pos = (2053,2008);
}
);
layerId = "140DECC1-64C4-40C0-9C07-503DBC3F4160";
shapes = (
{
closed = 1;
nodes = (
(1335,-20,o),
(1689,447,o),
(1822,1193,cs),
(1911,1710,o),
(1741,2028,o),
(1211,2028,cs),
(696,2028,o),
(374,1687,o),
(255,1020,cs),
(143,382,o),
(383,-20,o),
(883,-20,cs)
);
},
{
closed = 1;
nodes = (
(408,20,o),
(186,394,o),
(295,1014,cs),
(411,1666,o),
(716,1988,o),
(1211,1988,cs),
(1714,1988,o),
(1869,1701,o),
(1782,1199,cs),
(1652,466,o),
(1313,20,o),
(883,20,cs)
);
},
{
closed = 1;
nodes = (
(525,548,o),
(631,298,o),
(881,298,cs),
(1151,298,o),
(1377,630,o),
(1472,1181,cs),
(1534,1529,o),
(1510,1710,o),
(1195,1710,cs),
(885,1710,o),
(689,1471,o),
(599,983,cs)
);
},
{
closed = 1;
nodes = (
(652,1491,o),
(864,1750,o),
(1195,1750,cs),
(1546,1750,o),
(1575,1532,o),
(1512,1175,cs),
(1415,612,o),
(1175,258,o),
(881,258,cs),
(603,258,o),
(483,540,o),
(559,989,cs)
);
}
);
vertWidth = 0;
width = 1813;
}
);
metricLeft = O;
metricRight = O;
},
{
color = 10;
glyphname = P.ss02;
kernLeft = H;
kernRight = P;
layers = (
{
anchors = (
{
name = bottom;
pos = (698,0);
},
{
name = top;
pos = (1052,2008);
}
);
layerId = m01;
shapes = (
{
closed = 1;
nodes = (
(357,0,o),
(368,55,o),
(373,86,cs),
(535,999,l),
(1137,1004,o),
(1597,1071,o),
(1653,1493,cs),
(1700,1846,o),
(1288,2008,o),
(627,2008,cs),
(553,2008,o),
(533,1969,o),
(524,1918,cs),
(202,94,ls),
(193,42,o),
(221,0,o),
(282,0,cs)
);
},
{
closed = 1;
nodes = (
(233,20,o),
(215,48,o),
(222,90,cs),
(544,1914,ls),
(552,1961,o),
(566,1988,o),
(627,1988,cs),
(1282,1988,o),
(1677,1832,o),
(1633,1496,cs),
(1579,1085,o),
(1126,1023,o),
(519,1018,c),
(354,89,ls),
(349,58,o),
(341,20,o),
(282,20,cs)
);
},
{
closed = 1;
nodes = (
(1053,1167,o),
(1447,1230,o),
(1482,1512,cs),
(1506,1706,o),
(1281,1840,o),
(685,1849,c),
(564,1160,l)
);
},
{
closed = 1;
nodes = (
(668,1869,l),
(1284,1863,o),
(1526,1720,o),
(1500,1509,cs),
(1464,1206,o),
(1042,1145,o),
(540,1140,c)
);
}
);
vertWidth = 0;
width = 1597;
},
{
anchors = (
{
name = bottom;
pos = (794,0);
},
{
name = top;
pos = (1148,2008);
}
);
layerId = "140DECC1-64C4-40C0-9C07-503DBC3F4160";
shapes = (
{
closed = 1;
nodes = (
(474,-20,o),
(532,41,o),
(545,116,cs),
(681,893,l),
(1226,907,o),
(1735,920,o),
(1809,1441,cs),
(1871,1875,o),
(1446,2028,o),
(683,2028,cs),
(581,2028,o),
(516,1983,o),
(499,1885,cs),
(193,152,ls),
(176,56,o),
(245,-20,o),
(358,-20,cs)
);
},
{
closed = 1;
nodes = (
(266,20,o),
(220,71,o),
(233,144,cs),
(539,1877,ls),
(553,1957,o),
(596,1988,o),
(683,1988,cs),
(1436,1988,o),
(1827,1847,o),
(1769,1447,cs),
(1699,946,o),
(1201,944,o),
(647,933,c),
(505,124,ls),
(494,61,o),
(452,20,o),
(358,20,cs)
);
},
{
closed = 1;
nodes = (
(1135,1229,o),
(1442,1231,o),
(1470,1461,cs),
(1492,1638,o),
(1424,1716,o),
(826,1717,c),
(737,1213,l)
);
},
{
closed = 1;
nodes = (
(792,1757,l),
(1445,1759,o),
(1535,1658,o),
(1510,1457,cs),
(1477,1186,o),
(1114,1183,o),
(689,1171,c)
);
}
);
vertWidth = 0;
width = 1696;
}
);
metricLeft = P;
metricRight = P;
},
{
color = 10;
glyphname = Q.ss02;
kernLeft = O;
kernRight = Q;
layers = (
{
anchors = (
{
name = bottom;
pos = (723,0);
},
{
name = top;
pos = (1077,2008);
}
);
layerId = m01;
shapes = (
{
closed = 1;
nodes = (
(859,-1,o),
(937,19,o),
(1006,53,c),
(1168,-182,ls),
(1202,-231,o),
(1256,-261,o),
(1300,-234,cs),
(1350,-207,o),
(1350,-141,o),
(1321,-101,cs),
(1148,151,l),
(1425,400,o),
(1566,898,o),
(1617,1191,cs),
(1708,1699,o),
(1542,2007,o),
(1099,2007,cs),
(549,2007,o),
(313,1442,o),
(240,1017,cs),
(155,518,o),
(238,-1,o),
(776,-1,cs)
);
},
{
closed = 1;
nodes = (
(255,19,o),
(175,519,o),
(260,1014,cs),
(332,1436,o),
(562,1987,o),
(1099,1987,cs),
(1529,1987,o),
(1687,1694,o),
(1597,1195,cs),
(1546,898,o),
(1403,395,o),
(1122,154,c),
(1305,-113,ls),
(1329,-146,o),
(1329,-196,o),
(1290,-217,cs),
(1256,-237,o),
(1215,-215,o),
(1185,-171,cs),
(1012,79,l),
(941,40,o),
(862,19,o),
(776,19,cs)
);
},
{
closed = 1;
nodes = (
(345,626,o),
(375,160,o),
(773,160,cs),
(820,160,o),
(865,173,o),
(909,195,c),
(850,281,ls),
(814,333,o),
(808,376,o),
(848,408,cs),
(897,448,o),
(958,426,o),
(992,378,cs),
(1045,301,l),
(1255,519,o),
(1403,937,o),
(1445,1177,cs),
(1507,1523,o),
(1482,1848,o),
(1084,1848,cs),
(646,1848,o),
(457,1248,o),
(409,983,cs)
);
},
{
closed = 1;
nodes = (
(438,1253,o),
(631,1868,o),
(1084,1868,cs),
(1501,1868,o),
(1527,1523,o),
(1464,1173,cs),
(1421,926,o),
(1264,486,o),
(1042,270,c),
(975,366,ls),
(946,408,o),
(900,425,o),
(861,392,cs),
(830,368,o),
(834,339,o),
(866,293,cs),
(937,189,l),
(886,158,o),
(830,140,o),
(773,140,cs),
(356,140,o),
(325,626,o),
(390,987,cs)
);
}
);
vertWidth = 0;
width = 1634;
},
{
anchors = (
{
name = bottom;
pos = (815,0);
},
{
name = top;
pos = (1169,2008);
}
);
layerId = "140DECC1-64C4-40C0-9C07-503DBC3F4160";
shapes = (
{
closed = 1;
nodes = (
(955,-20,o),
(1020,-10,o),
(1082,9,c),
(1200,-164,ls),
(1261,-256,o),
(1369,-286,o),
(1447,-235,cs),
(1526,-185,o),
(1544,-84,o),
(1489,-2,cs),
(1365,181,l),
(1583,385,o),
(1747,737,o),
(1828,1193,cs),
(1917,1710,o),
(1747,2028,o),
(1217,2028,cs),
(702,2028,o),
(380,1687,o),
(261,1020,cs),
(149,382,o),
(389,-20,o),
(889,-20,cs)
);
},
{
closed = 1;
nodes = (
(414,20,o),
(192,394,o),
(301,1014,cs),
(417,1666,o),
(722,1988,o),
(1217,1988,cs),
(1720,1988,o),
(1875,1701,o),
(1788,1199,cs),
(1705,732,o),
(1537,382,o),
(1313,187,c),
(1455,-24,ls),
(1500,-91,o),
(1488,-162,o),
(1425,-201,cs),
(1365,-241,o),
(1285,-220,o),
(1234,-142,cs),
(1098,57,l),
(1030,32,o),
(961,20,o),
(889,20,cs)
);
},
{
closed = 1;
nodes = (
(531,548,o),
(637,298,o),
(887,298,cs),
(886,298,o),
(886,298,o),
(885,298,c),
(876,312,ls),
(821,392,o),
(835,499,o),
(911,552,cs),
(989,608,o),
(1098,579,o),
(1159,487,cs),
(1183,451,l),
(1317,601,o),
(1421,851,o),
(1478,1181,cs),
(1540,1529,o),
(1516,1710,o),
(1201,1710,cs),
(891,1710,o),
(695,1471,o),
(605,983,cs)
);
},
{
closed = 1;
nodes = (
(658,1491,o),
(870,1750,o),
(1201,1750,cs),
(1552,1750,o),
(1581,1532,o),
(1518,1175,cs),
(1455,812,o),
(1333,537,o),
(1178,388,c),
(1125,465,ls),
(1074,542,o),
(995,563,o),
(935,520,cs),
(875,478,o),
(864,400,o),
(908,334,cs),
(959,262,l),
(933,262,o),
(912,258,o),
(887,258,cs),
(609,258,o),
(489,540,o),
(565,989,cs)
);
}
);
vertWidth = 0;
width = 1819;
}
);
metricLeft = Q;
metricRight = Q;
},
{
color = 10;
glyphname = R.ss02;
kernLeft = H;
kernRight = R;
layers = (
{
anchors = (
{
name = bottom;
pos = (708,0);
},
{
name = top;
pos = (1062,2008);
}
);
layerId = m01;
shapes = (
{
closed = 1;
nodes = (
(354,0,o),
(365,56,o),
(373,103,cs),
(525,956,l),
(1232,58,ls),
(1265,16,o),
(1298,0,o),
(1325,0,cs),
(1398,0,o),
(1429,80,o),
(1360,168,cs),
(705,1002,l),
(1206,1022,o),
(1601,1119,o),
(1650,1492,cs),
(1696,1845,o),
(1296,2008,o),
(624,2008,cs),
(550,2008,o),
(530,1969,o),
(521,1918,cs),
(202,112,ls),
(192,56,o),
(217,0,o),
(279,0,cs)
);
},
{
closed = 1;
nodes = (
(231,20,o),
(214,60,o),
(222,108,cs),
(541,1914,ls),
(549,1961,o),
(563,1988,o),
(624,1988,cs),
(1289,1988,o),
(1673,1832,o),
(1630,1496,cs),
(1583,1132,o),
(1197,1041,o),
(694,1022,cs),
(669,1021,o),
(667,1015,o),
(681,997,cs),
(1345,155,ls),
(1405,79,o),
(1383,20,o),
(1325,20,cs),
(1304,20,o),
(1277,33,o),
(1247,71,cs),
(535,971,ls),
(514,997,o),
(511,995,o),
(506,966,cs),
(354,107,ls),
(346,61,o),
(338,20,o),
(279,20,cs)
);
},
{
closed = 1;
nodes = (
(1047,1167,o),
(1442,1234,o),
(1479,1511,cs),
(1505,1710,o),
(1240,1840,o),
(682,1849,c),
(561,1160,l)
);
},
{
closed = 1;
nodes = (
(665,1869,l),
(1242,1863,o),
(1526,1725,o),
(1498,1508,cs),
(1459,1210,o),
(1036,1145,o),
(537,1140,c)
);
}
);
vertWidth = 0;
width = 1654;
},
{
anchors = (
{
name = bottom;
pos = (770,0);
},
{
name = top;
pos = (1124,2008);
}
);
layerId = "140DECC1-64C4-40C0-9C07-503DBC3F4160";
shapes = (
{
closed = 1;
nodes = (
(439,-20,o),
(528,57,o),
(546,161,cs),
(659,806,l),
(1234,57,ls),
(1288,-14,o),
(1366,-20,o),
(1407,-20,cs),
(1522,-20,o),
(1628,120,o),
(1498,289,cs),
(1019,914,l),
(1422,963,o),
(1745,1105,o),
(1811,1473,cs),
(1883,1876,o),
(1442,2028,o),
(684,2028,cs),
(580,2028,o),
(512,1983,o),
(495,1885,cs),
(194,169,ls),
(177,70,o),
(219,-20,o),
(333,-20,cs)
);
},
{
closed = 1;
nodes = (
(247,20,o),
(219,78,o),
(234,163,cs),
(535,1877,ls),
(549,1957,o),
(594,1988,o),
(684,1988,cs),
(1433,1988,o),
(1836,1848,o),
(1771,1481,cs),
(1708,1124,o),
(1395,996,o),
(988,951,cs),
(946,946,o),
(942,940,o),
(973,901,cs),
(1468,263,ls),
(1578,121,o),
(1497,20,o),
(1407,20,cs),
(1370,20,o),
(1308,26,o),
(1264,83,cs),
(681,839,ls),
(640,892,o),
(636,888,o),
(626,834,cs),
(508,167,ls),
(493,80,o),
(422,20,o),
(333,20,cs)
);
},
{
closed = 1;
nodes = (
(1139,1228,o),
(1439,1301,o),
(1471,1487,cs),
(1495,1630,o),
(1351,1710,o),
(821,1710,c),
(733,1213,l)
);
},
{
closed = 1;
nodes = (
(787,1750,l),
(1359,1754,o),
(1542,1659,o),
(1511,1481,cs),
(1472,1257,o),
(1120,1182,o),
(685,1171,c)
);
}
);
vertWidth = 0;
width = 1719;
}
);
metricLeft = R;
metricRight = R;
},
{
color = 10;
glyphname = S.ss02;
kernLeft = S;
kernRight = S;
layers = (
{
anchors = (
{
name = bottom;
pos = (453,0);
},
{
name = top;
pos = (807,2008);
}
);
layerId = m01;
shapes = (
{
closed = 1;
nodes = (
(785,-20,o),
(1092,251,o),
(1092,564,cs),
(1092,821,o),
(943,1001,o),
(747,1129,cs),
(652,1191,ls),
(445,1326,o),
(363,1424,o),
(363,1545,cs),
(363,1775,o),
(613,1848,o),
(939,1848,cs),
(1204,1848,ls),
(1248,1848,o),
(1284,1878,o),
(1284,1930,cs),
(1284,2008,o),
(1212,2008,o),
(1201,2008,cs),
(915,2008,ls),
(468,2008,o),
(182,1833,o),
(182,1535,cs),
(182,1372,o),
(299,1213,o),
(498,1079,cs),
(595,1014,ls),
(780,890,o),
(913,755,o),
(913,562,cs),
(913,330,o),
(693,143,o),
(268,143,cs),
(2,143,ls),
(-44,143,o),
(-83,110,o),
(-83,58,cs),
(-83,-20,o),
(-5,-20,o),
(2,-20,cs),
(249,-20,ls)
);
},
{
closed = 1;
nodes = (
(2,0,ls),
(-5,0,o),
(-63,0,o),
(-63,58,cs),
(-63,99,o),
(-35,123,o),
(2,123,cs),
(268,123,ls),
(702,123,o),
(933,319,o),
(933,562,cs),
(933,764,o),
(792,906,o),
(607,1030,cs),
(510,1095,ls),
(314,1227,o),
(202,1379,o),
(202,1535,cs),
(202,1821,o),
(474,1988,o),
(915,1988,cs),
(1201,1988,ls),
(1212,1988,o),
(1264,1988,o),
(1264,1930,cs),
(1264,1889,o),
(1239,1868,o),
(1204,1868,cs),
(939,1868,ls),
(608,1868,o),
(343,1790,o),
(343,1545,cs),
(343,1416,o),
(433,1314,o),
(642,1175,cs),
(735,1113,ls),
(928,984,o),
(1072,813,o),
(1072,564,cs),
(1072,262,o),
(776,0,o),
(249,0,cs)
);
}
);
vertWidth = 0;
width = 1095;
},
{
anchors = (
{
name = bottom;
pos = (544,0);
},
{
name = top;
pos = (898,2008);
}
);
layerId = "140DECC1-64C4-40C0-9C07-503DBC3F4160";
shapes = (
{
closed = 1;
nodes = (
(724,-20,o),
(1271,137,o),
(1271,593,cs),
(1271,884,o),
(1053,1040,o),
(862,1186,cs),
(803,1231,ls),
(619,1371,o),
(525,1430,o),
(525,1506,cs),
(525,1615,o),
(727,1687,o),
(928,1687,cs),
(1339,1687,ls),
(1431,1687,o),
(1505,1761,o),
(1505,1850,cs),
(1505,1978,o),
(1396,2008,o),
(1337,2008,cs),
(931,2008,ls),
(509,2008,o),
(178,1789,o),
(178,1493,cs),
(178,1258,o),
(376,1132,o),
(584,985,cs),
(649,939,ls),
(843,802,o),
(921,718,o),
(921,593,cs),
(921,372,o),
(591,301,o),
(413,301,cs),
(99,301,ls),
(7,301,o),
(-69,224,o),
(-69,135,cs),
(-69,10,o),
(50,-20,o),
(99,-20,cs),
(413,-20,ls)
);
},
{
closed = 1;
nodes = (
(99,20,ls),
(57,20,o),
(-29,42,o),
(-29,135,cs),
(-29,205,o),
(26,261,o),
(99,261,cs),
(413,261,ls),
(598,261,o),
(961,339,o),
(961,593,cs),
(961,735,o),
(870,831,o),
(673,971,cs),
(608,1017,ls),
(397,1166,o),
(218,1280,o),
(218,1493,cs),
(218,1766,o),
(524,1968,o),
(931,1968,cs),
(1337,1968,ls),
(1388,1968,o),
(1465,1947,o),
(1465,1850,cs),
(1465,1780,o),
(1412,1727,o),
(1339,1727,cs),
(928,1727,ls),
(716,1727,o),
(485,1644,o),
(485,1506,cs),
(485,1409,o),
(594,1340,o),
(779,1199,cs),
(838,1154,ls),
(1029,1008,o),
(1231,864,o),
(1231,593,cs),
(1231,168,o),
(715,20,o),
(413,20,cs)
);
}
);
vertWidth = 0;
width = 1277;
},
{
associatedMasterId = m01;
layerId = "A440414B-586A-40A5-AE6A-EB7CED442D21";
name = background;
shapes = (
{
closed = 1;
nodes = (
(235,0,o),
(412,59,o),
(412,219,cs),
(412,320,o),
(359,378,o),
(274,437,cs),
(187,498,o),
(133,537,o),
(133,590,cs),
(133,659,o),
(238,713,o),
(329,713,cs),
(484,713,ls),
(499,713,o),
(511,728,o),
(511,744,cs),
(511,772,o),
(487,772,o),
(482,772,cs),
(330,772,ls),
(177,772,o),
(72,684,o),
(72,586,cs),
(72,501,o),
(141,457,o),
(235,391,cs),
(320,330,o),
(353,286,o),
(353,217,cs),
(353,99,o),
(196,59,o),
(119,59,cs),
(0,59,ls),
(-15,59,o),
(-29,44,o),
(-29,29,cs),
(-29,0,o),
(-2,0,o),
(0,0,cs),
(119,0,ls)
);
}
);
vertWidth = 0;
width = 594;
}
);
},
{
color = 10;
glyphname = T.ss02;
kernLeft = T;
kernRight = T;
layers = (
{
anchors = (
{
name = bottom;
pos = (531,0);
},
{
name = center;
pos = (708,1004);
},
{
name = top;
pos = (885,2008);
}
);
layerId = m01;
shapes = (
{
closed = 1;
nodes = (
(693,0,o),
(705,54,o),
(710,86,cs),
(1018,1849,l),
(1524,1849,ls),
(1590,1849,o),
(1611,1888,o),
(1611,1929,cs),
(1611,1968,o),
(1591,2008,o),
(1524,2008,cs),
(340,2008,ls),
(270,2008,o),
(250,1968,o),
(250,1929,cs),
(250,1888,o),
(271,1849,o),
(340,1849,cs),
(843,1849,l),
(539,94,l),
(527,42,o),
(555,0,o),
(618,0,cs)
);
},
{
closed = 1;
nodes = (
(567,20,o),
(549,48,o),
(559,90,c),
(867,1869,l),
(340,1869,ls),
(283,1869,o),
(270,1895,o),
(270,1929,cs),
(270,1962,o),
(284,1988,o),
(340,1988,cs),
(1524,1988,ls),
(1577,1988,o),
(1591,1962,o),
(1591,1929,cs),
(1591,1895,o),
(1578,1869,o),
(1524,1869,cs),
(1001,1869,l),
(691,89,ls),
(686,58,o),
(677,20,o),
(618,20,cs)
);
}
);
vertWidth = 0;
width = 1511;
},
{
anchors = (
{
name = bottom;
pos = (588,0);
},
{
name = center;
pos = (765,1004);
},
{
name = top;
pos = (942,2008);
}
);
layerId = "140DECC1-64C4-40C0-9C07-503DBC3F4160";
shapes = (
{
closed = 1;
nodes = (
(788,-23,o),
(847,44,o),
(862,116,c),
(1142,1720,l),
(1552,1720,ls),
(1663,1720,o),
(1726,1792,o),
(1726,1875,cs),
(1726,1967,o),
(1657,2038,o),
(1552,2038,cs),
(434,2038,ls),
(329,2038,o),
(260,1967,o),
(260,1875,cs),
(260,1792,o),
(323,1720,o),
(434,1720,cs),
(789,1720,l),
(513,155,ls),
(495,56,o),
(567,-23,o),
(676,-23,cs)
);
},
{
closed = 1;
nodes = (
(588,17,o),
(538,71,o),
(553,147,cs),
(837,1760,l),
(434,1760,ls),
(344,1760,o),
(300,1810,o),
(300,1875,cs),
(300,1948,o),
(348,1998,o),
(434,1998,cs),
(1552,1998,ls),
(1638,1998,o),
(1686,1948,o),
(1686,1875,cs),
(1686,1810,o),
(1642,1760,o),
(1552,1760,cs),
(1108,1760,l),
(822,124,ls),
(810,64,o),
(768,17,o),
(676,17,cs)
);
}
);
vertWidth = 0;
width = 1636;
}
);
metricLeft = T;
metricRight = T;
},
{
color = 10;
glyphname = U.ss02;
kernLeft = U;
kernRight = H;
layers = (
{
anchors = (
{
name = bottom;
pos = (727,0);
},
{
name = ogonek;
pos = (1358,10);
},
{
name = top;
pos = (1081,2008);
},
{
name = topright;
pos = (1848,2008);
}
);
layerId = m01;
shapes = (
{
closed = 1;
nodes = (
(728,-14,o),
(1097,385,o),
(1308,885,c),
(1171,93,ls),
(1158,29,o),
(1201,-4,o),
(1250,-4,cs),
(1289,-4,o),
(1333,23,o),
(1342,74,cs),
(1666,1915,ls),
(1677,1967,o),
(1651,2007,o),
(1584,2007,cs),
(1521,2007,o),
(1498,1966,o),
(1489,1926,c),
(1430,1587,l),
(1173,757,o),
(753,147,o),
(464,147,cs),
(331,147,o),
(360,363,o),
(396,559,cs),
(642,1910,ls),
(651,1959,o),
(620,2003,o),
(567,2007,cs),
(512,2007,o),
(475,1960,o),
(467,1908,cs),
(225,569,ls),
(150,164,o),
(250,-14,o),
(438,-14,cs)
);
},
{
closed = 1;
nodes = (
(263,6,o),
(171,170,o),
(245,565,cs),
(486,1905,ls),
(494,1951,o),
(523,1987,o),
(566,1987,cs),
(608,1984,o),
(629,1953,o),
(622,1913,cs),
(377,562,ls),
(341,365,o),
(307,128,o),
(464,128,cs),
(766,128,o),
(1191,749,o),
(1449,1583,c),
(1509,1923,ls),
(1516,1958,o),
(1533,1987,o),
(1584,1987,cs),
(1638,1987,o),
(1656,1961,o),
(1647,1918,cs),
(1322,78,ls),
(1315,36,o),
(1282,16,o),
(1250,16,cs),
(1209,16,o),
(1180,39,o),
(1190,89,cs),
(1333,911,ls),
(1345,981,o),
(1338,1000,o),
(1300,915,cs),
(1058,372,o),
(710,6,o),
(438,6,cs)
);
}
);
vertWidth = 0;
width = 1708;
},
{
anchors = (
{
name = bottom;
pos = (797,0);
},
{
name = ogonek;
pos = (1500,10);
},
{
name = top;
pos = (1151,2008);
},
{
name = topright;
pos = (2008,2008);
}
);
layerId = "140DECC1-64C4-40C0-9C07-503DBC3F4160";
shapes = (
{
closed = 1;
nodes = (
(760,-33,o),
(1015,146,o),
(1223,459,c),
(1169,154,ls),
(1148,38,o),
(1236,-20,o),
(1332,-20,cs),
(1408,-20,o),
(1500,20,o),
(1516,111,cs),
(1823,1857,ls),
(1840,1955,o),
(1773,2028,o),
(1657,2028,cs),
(1560,2028,o),
(1488,1975,o),
(1473,1894,cs),
(1434,1682,l),
(1199,812,o),
(876,285,o),
(596,285,cs),
(521,285,o),
(528,386,o),
(561,568,cs),
(790,1851,ls),
(808,1953,o),
(732,2028,o),
(630,2028,cs),
(519,2031,o),
(452,1937,o),
(441,1877,cs),
(212,607,ls),
(133,167,o),
(271,-33,o),
(510,-33,cs)
);
},
{
closed = 1;
nodes = (
(295,7,o),
(177,181,o),
(252,599,cs),
(481,1869,ls),
(490,1919,o),
(541,1991,o),
(630,1988,cs),
(713,1988,o),
(764,1936,o),
(750,1859,cs),
(521,576,ls),
(487,388,o),
(477,245,o),
(596,245,cs),
(902,245,o),
(1236,794,o),
(1474,1674,c),
(1513,1888,ls),
(1524,1950,o),
(1575,1988,o),
(1657,1988,cs),
(1752,1988,o),
(1797,1940,o),
(1783,1863,cs),
(1476,117,ls),
(1464,50,o),
(1398,20,o),
(1332,20,cs),
(1252,20,o),
(1193,59,o),
(1209,148,cs),
(1279,550,ls),
(1292,622,o),
(1278,628,o),
(1236,556,cs),
(1028,202,o),
(765,7,o),
(510,7,cs)
);
}
);
vertWidth = 0;
width = 1876;
}
);
metricLeft = U;
metricRight = U;
},
{
color = 10;
glyphname = V.ss02;
kernLeft = V;
kernRight = V;
layers = (
{
anchors = (
{
name = bottom;
pos = (515,0);
},
{
name = top;
pos = (869,2008);
}
);
layerId = m01;
shapes = (
{
closed = 1;
nodes = (
(558,0,o),
(573,40,o),
(594,83,cs),
(1490,1896,ls),
(1525,1966,o),
(1482,2008,o),
(1430,2008,cs),
(1366,2008,o),
(1339,1982,o),
(1313,1928,cs),
(548,347,l),
(474,1926,ls),
(472,1959,o),
(456,2008,o),
(379,2008,cs),
(318,2008,o),
(297,1968,o),
(300,1917,cs),
(400,94,ls),
(402,53,o),
(432,0,o),
(492,0,cs)
);
},
{
closed = 1;
nodes = (
(445,20,o),
(422,60,o),
(420,96,cs),
(320,1918,ls),
(318,1962,o),
(331,1988,o),
(379,1988,cs),
(442,1988,o),
(454,1955,o),
(455,1925,cs),
(530,314,ls),
(532,273,o),
(534,273,o),
(553,312,cs),
(1331,1919,ls),
(1355,1969,o),
(1374,1988,o),
(1430,1988,cs),
(1472,1988,o),
(1500,1960,o),
(1472,1904,cs),
(576,92,ls),
(554,48,o),
(545,20,o),
(492,20,cs)
);
}
);
vertWidth = 0;
width = 1503;
},
{
anchors = (
{
name = bottom;
pos = (687,0);
},
{
name = top;
pos = (1041,2008);
}
);
layerId = "140DECC1-64C4-40C0-9C07-503DBC3F4160";
shapes = (
{
closed = 1;
nodes = (
(731,-25,o),
(779,34,o),
(809,95,cs),
(1659,1817,ls),
(1721,1938,o),
(1640,2028,o),
(1527,2028,cs),
(1430,2028,o),
(1366,1987,o),
(1332,1917,cs),
(754,724,l),
(699,1887,ls),
(696,1968,o),
(629,2028,o),
(520,2028,cs),
(422,2028,o),
(354,1971,o),
(360,1867,cs),
(458,134,ls),
(461,49,o),
(533,-25,o),
(632,-25,cs)
);
},
{
closed = 1;
nodes = (
(552,15,o),
(501,68,o),
(498,136,cs),
(400,1869,ls),
(395,1950,o),
(439,1988,o),
(520,1988,cs),
(611,1988,o),
(656,1947,o),
(659,1885,cs),
(717,673,ls),
(722,579,o),
(732,586,o),
(774,673,cs),
(1368,1901,ls),
(1394,1958,o),
(1444,1988,o),
(1527,1988,cs),
(1617,1988,o),
(1672,1930,o),
(1623,1835,cs),
(773,113,ls),
(745,56,o),
(710,15,o),
(632,15,cs)
);
}
);
vertWidth = 0;
width = 1533;
}
);
metricLeft = V;
metricRight = V;
},
{
color = 10;
glyphname = W.ss02;
kernLeft = W;
kernRight = W;
layers = (
{
anchors = (
{
name = bottom;
pos = (1042,0);
},
{
name = top;
pos = (1396,2008);
}
);
layerId = m01;
shapes = (
{
closed = 1;
nodes = (
(556,0,o),
(583,53,o),
(599,86,cs),
(1370,1677,l),
(1451,69,ls),
(1454,22,o),
(1482,0,o),
(1541,0,cs),
(1584,0,o),
(1614,30,o),
(1640,83,cs),
(2534,1896,ls),
(2568,1966,o),
(2525,2008,o),
(2463,2008,cs),
(2415,2008,o),
(2381,1980,o),
(2356,1928,cs),
(1597,360,l),
(1517,1927,ls),
(1515,1959,o),
(1494,2008,o),
(1414,2008,cs),
(1360,2008,o),
(1323,1952,o),
(1313,1930,cs),
(552,351,l),
(475,1926,ls),
(473,1959,o),
(457,2008,o),
(380,2008,cs),
(318,2008,o),
(297,1968,o),
(300,1917,cs),
(400,94,ls),
(403,41,o),
(438,0,o),
(498,0,cs)
);
},
{
closed = 1;
nodes = (
(449,20,o),
(423,50,o),
(420,96,cs),
(320,1918,ls),
(317,1962,o),
(331,1988,o),
(380,1988,cs),
(442,1988,o),
(454,1955,o),
(455,1925,cs),
(534,318,ls),
(536,283,o),
(542,285,o),
(559,321,cs),
(1331,1921,ls),
(1341,1942,o),
(1371,1988,o),
(1414,1988,cs),
(1479,1988,o),
(1495,1954,o),
(1497,1925,cs),
(1578,339,ls),
(1580,295,o),
(1588,297,o),
(1608,338,cs),
(2373,1919,ls),
(2398,1966,o),
(2423,1988,o),
(2463,1988,cs),
(2515,1988,o),
(2544,1960,o),
(2516,1904,cs),
(1622,91,ls),
(1598,43,o),
(1576,20,o),
(1541,20,cs),
(1490,20,o),
(1473,33,o),
(1471,70,cs),
(1387,1706,ls),
(1385,1748,o),
(1380,1744,o),
(1361,1705,cs),
(581,94,ls),
(567,61,o),
(544,20,o),
(498,20,cs)
);
}
);
vertWidth = 0;
width = 2496;
},
{
anchors = (
{
name = bottom;
pos = (1193,0);
},
{
name = top;
pos = (1547,2008);
}
);
layerId = "140DECC1-64C4-40C0-9C07-503DBC3F4160";
shapes = (
{
closed = 1;
nodes = (
(705,-20,o),
(768,23,o),
(804,95,cs),
(1398,1292,l),
(1478,137,ls),
(1485,40,o),
(1554,-20,o),
(1649,-20,cs),
(1725,-20,o),
(1792,24,o),
(1829,100,cs),
(2671,1817,ls),
(2731,1939,o),
(2639,2028,o),
(2534,2028,cs),
(2427,2028,o),
(2368,1970,o),
(2339,1910,cs),
(1772,734,l),
(1690,1887,ls),
(1684,1973,o),
(1623,2028,o),
(1504,2028,cs),
(1389,2028,o),
(1356,1960,o),
(1337,1921,cs),
(749,719,l),
(699,1887,ls),
(696,1967,o),
(633,2028,o),
(523,2028,cs),
(425,2028,o),
(355,1971,o),
(360,1867,cs),
(451,134,ls),
(456,40,o),
(529,-20,o),
(638,-20,cs)
);
},
{
closed = 1;
nodes = (
(546,20,o),
(495,62,o),
(491,136,cs),
(400,1869,ls),
(396,1950,o),
(442,1988,o),
(523,1988,cs),
(614,1988,o),
(656,1947,o),
(659,1885,cs),
(711,656,ls),
(714,575,o),
(723,578,o),
(761,655,cs),
(1373,1903,ls),
(1392,1942,o),
(1414,1988,o),
(1504,1988,cs),
(1605,1988,o),
(1645,1952,o),
(1650,1885,cs),
(1736,669,ls),
(1741,595,o),
(1747,593,o),
(1784,669,cs),
(2375,1892,ls),
(2400,1944,o),
(2445,1988,o),
(2534,1988,cs),
(2617,1988,o),
(2681,1928,o),
(2635,1835,cs),
(1793,118,ls),
(1761,54,o),
(1711,20,o),
(1649,20,cs),
(1571,20,o),
(1523,62,o),
(1518,139,cs),
(1435,1344,ls),
(1430,1421,o),
(1418,1422,o),
(1380,1345,cs),
(768,113,ls),
(738,53,o),
(691,20,o),
(638,20,cs)
);
}
);
vertWidth = 0;
width = 2564;
}
);
metricLeft = W;
metricRight = W;
},
{
color = 10;
glyphname = X.ss02;
kernLeft = X;
kernRight = X;
layers = (
{
anchors = (
{
name = bottom;
pos = (645,0);
},
{
name = top;
pos = (999,2008);
}
);
layerId = m01;
shapes = (
{
closed = 1;
nodes = (
(124,-11,o),
(189,-13,o),
(226,38,cs),
(797,825,l),
(1082,66,ls),
(1106,1,o),
(1174,-11,o),
(1217,11,cs),
(1252,29,o),
(1266,70,o),
(1247,121,cs),
(919,992,l),
(1555,1866,ls),
(1591,1916,o),
(1583,1967,o),
(1553,1990,cs),
(1518,2019,o),
(1453,2017,o),
(1415,1965,cs),
(847,1185,l),
(560,1945,ls),
(537,2007,o),
(481,2020,o),
(438,2004,cs),
(395,1988,o),
(379,1944,o),
(402,1882,cs),
(726,1018,l),
(80,132,ls),
(49,90,o),
(57,44,o),
(86,20,cs)
);
},
{
closed = 1;
nodes = (
(76,54,o),
(71,87,o),
(95,120,cs),
(748,1015,l),
(420,1889,ls),
(400,1942,o),
(411,1974,o),
(445,1986,cs),
(479,2000,o),
(521,1990,o),
(541,1938,cs),
(832,1168,ls),
(840,1147,o),
(843,1147,o),
(860,1170,cs),
(1431,1954,ls),
(1462,1996,o),
(1513,1998,o),
(1540,1974,cs),
(1563,1957,o),
(1570,1920,o),
(1539,1878,cs),
(897,995,l),
(1229,114,ls),
(1245,71,o),
(1235,43,o),
(1208,29,cs),
(1172,10,o),
(1121,20,o),
(1101,73,cs),
(811,844,ls),
(804,863,o),
(801,863,o),
(788,845,cs),
(210,50,ls),
(179,8,o),
(130,10,o),
(99,36,cs)
);
}
);
vertWidth = 0;
width = 1549;
},
{
anchors = (
{
name = bottom;
pos = (659,0);
},
{
name = top;
pos = (1013,2008);
}
);
layerId = "140DECC1-64C4-40C0-9C07-503DBC3F4160";
shapes = (
{
closed = 1;
nodes = (
(146,-31,o),
(282,-49,o),
(344,37,cs),
(784,653,l),
(999,79,ls),
(1038,-24,o),
(1170,-40,o),
(1248,0,cs),
(1321,38,o),
(1358,109,o),
(1323,194,cs),
(1023,986,l),
(1588,1775,ls),
(1649,1857,o),
(1633,1934,o),
(1569,1989,cs),
(1507,2046,o),
(1382,2048,o),
(1319,1963,cs),
(884,1358,l),
(667,1932,ls),
(629,2031,o),
(516,2045,o),
(438,2019,cs),
(348,1987,o),
(313,1910,o),
(354,1803,cs),
(645,1026,l),
(68,225,ls),
(16,153,o),
(15,81,o),
(79,24,cs)
);
},
{
closed = 1;
nodes = (
(57,97,o),
(57,142,o),
(100,201,cs),
(689,1020,l),
(392,1817,ls),
(358,1906,o),
(380,1956,o),
(452,1981,cs),
(518,2004,o),
(601,1993,o),
(629,1918,cs),
(856,1316,ls),
(870,1278,o),
(875,1279,o),
(902,1316,cs),
(1351,1939,ls),
(1400,2006,o),
(1493,2004,o),
(1543,1959,cs),
(1595,1914,o),
(1605,1865,o),
(1556,1799,cs),
(979,992,l),
(1285,180,ls),
(1311,112,o),
(1289,67,o),
(1230,36,cs),
(1165,3,o),
(1066,15,o),
(1037,93,cs),
(812,694,ls),
(798,733,o),
(793,733,o),
(766,695,cs),
(312,61,ls),
(265,-5,o),
(160,9,o),
(105,54,cs)
);
}
);
vertWidth = 0;
width = 1576;
}
);
metricLeft = X;
metricRight = X;
},
{
color = 10;
glyphname = Y.ss02;
kernLeft = Y;
kernRight = Y;
layers = (
{
anchors = (
{
name = bottom;
pos = (503,0);
},
{
name = top;
pos = (857,2008);
},
{
name = topleft;
pos = (279,2008);
}
);
layerId = m01;
shapes = (
{
closed = 1;
nodes = (
(1292,1950,ls),
(1316,1983,o),
(1334,1985,o),
(1363,1985,cs),
(1393,1985,o),
(1425,1959,o),
(1425,1931,cs),
(1425,1915,o),
(1419,1900,o),
(1401,1875,cs),
(86,89,ls),
(50,40,o),
(31,20,o),
(-10,20,cs),
(-46,20,o),
(-78,56,o),
(-52,91,cs),
(615,1013,l),
(276,1889,ls),
(266,1915,o),
(264,1920,o),
(264,1937,cs),
(264,1963,o),
(291,1988,o),
(324,1988,cs),
(367,1988,o),
(389,1967,o),
(402,1933,cs),
(707,1139,l)
);
},
{
closed = 1;
nodes = (
(-103,51,o),
(-58,0,o),
(-10,0,cs),
(47,0,o),
(68,35,o),
(105,85,cs),
(1417,1863,ls),
(1437,1890,o),
(1445,1911,o),
(1445,1931,cs),
(1445,1971,o),
(1400,2005,o),
(1363,2005,cs),
(1330,2005,o),
(1303,2000,o),
(1276,1962,cs),
(713,1180,l),
(421,1940,ls),
(406,1979,o),
(375,2008,o),
(324,2008,cs),
(283,2008,o),
(244,1974,o),
(244,1937,cs),
(244,1916,o),
(248,1907,o),
(258,1882,cs),
(592,1014,l),
(-72,94,ls)
);
}
);
vertWidth = 0;
width = 1196;
},
{
anchors = (
{
name = bottom;
pos = (551,0);
},
{
name = top;
pos = (905,2008);
},
{
name = topleft;
pos = (279,2008);
}
);
layerId = "140DECC1-64C4-40C0-9C07-503DBC3F4160";
shapes = (
{
closed = 1;
nodes = (
(1261,1928,ls),
(1289,1967,o),
(1327,1984,o),
(1372,1984,cs),
(1422,1984,o),
(1503,1943,o),
(1503,1874,cs),
(1503,1842,o),
(1496,1818,o),
(1471,1784,cs),
(252,136,ls),
(199,64,o),
(159,22,o),
(92,22,cs),
(21,22,o),
(-64,92,o),
(-18,155,cs),
(592,1003,l),
(277,1817,ls),
(264,1850,o),
(260,1865,o),
(260,1894,cs),
(260,1948,o),
(319,1988,o),
(404,1988,cs),
(461,1988,o),
(492,1967,o),
(516,1904,cs),
(766,1246,l)
);
},
{
closed = 1;
nodes = (
(-116,81,o),
(0,-18,o),
(92,-18,cs),
(183,-18,o),
(233,48,o),
(292,128,cs),
(1503,1760,ls),
(1531,1798,o),
(1543,1833,o),
(1543,1874,cs),
(1543,1969,o),
(1434,2024,o),
(1372,2024,cs),
(1317,2024,o),
(1265,2000,o),
(1229,1950,cs),
(779,1325,l),
(553,1920,ls),
(525,1993,o),
(479,2028,o),
(404,2028,cs),
(304,2028,o),
(220,1972,o),
(220,1894,cs),
(220,1859,o),
(226,1838,o),
(239,1803,cs),
(548,1004,l),
(-58,161,ls)
);
}
);
vertWidth = 0;
width = 1292;
}
);
},
{
color = 10;
glyphname = Z.ss02;
kernLeft = Z;
kernRight = Z;
layers = (
{
anchors = (
{
name = bottom;
pos = (663,0);
},
{
name = center;
pos = (840,1004);
},
{
name = top;
pos = (1017,2008);
}
);
layerId = m01;
shapes = (
{
closed = 1;
nodes = (
(1186,0,ls),
(1256,0,o),
(1276,45,o),
(1276,87,cs),
(1276,127,o),
(1255,162,o),
(1186,162,cs),
(321,162,l),
(1547,1864,ls),
(1563,1887,o),
(1575,1916,o),
(1575,1937,cs),
(1575,1983,o),
(1547,2008,o),
(1487,2008,cs),
(493,2008,ls),
(425,2008,o),
(404,1963,o),
(404,1924,cs),
(404,1881,o),
(425,1849,o),
(493,1849,cs),
(1334,1849,l),
(99,135,ls),
(83,112,o),
(80,91,o),
(80,74,cs),
(80,38,o),
(108,0,o),
(170,0,cs)
);
},
{
closed = 1;
nodes = (
(118,20,o),
(99,47,o),
(99,74,cs),
(99,89,o),
(102,104,o),
(115,123,cs),
(1358,1848,ls),
(1372,1867,o),
(1371,1869,o),
(1345,1869,cs),
(493,1869,ls),
(437,1869,o),
(424,1888,o),
(424,1924,cs),
(424,1957,o),
(438,1988,o),
(493,1988,cs),
(1487,1988,ls),
(1538,1988,o),
(1556,1973,o),
(1556,1937,cs),
(1556,1920,o),
(1547,1897,o),
(1531,1875,cs),
(300,167,ls),
(284,144,o),
(285,142,o),
(315,142,cs),
(1186,142,ls),
(1243,142,o),
(1257,120,o),
(1257,87,cs),
(1257,51,o),
(1242,20,o),
(1186,20,cs),
(170,20,ls)
);
}
);
vertWidth = 0;
width = 1475;
},
{
anchors = (
{
name = bottom;
pos = (722,0);
},
{
name = center;
pos = (899,1004);
},
{
name = top;
pos = (1076,2008);
}
);
layerId = "140DECC1-64C4-40C0-9C07-503DBC3F4160";
shapes = (
{
closed = 1;
nodes = (
(1236,-20,ls),
(1346,-20,o),
(1410,50,o),
(1410,133,cs),
(1410,224,o),
(1338,298,o),
(1236,298,cs),
(579,298,l),
(1645,1760,ls),
(1677,1803,o),
(1688,1841,o),
(1688,1876,cs),
(1688,1963,o),
(1613,2028,o),
(1502,2028,cs),
(563,2028,ls),
(458,2028,o),
(389,1957,o),
(389,1865,cs),
(389,1782,o),
(452,1710,o),
(563,1710,cs),
(1194,1710,l),
(110,228,ls),
(90,200,o),
(80,167,o),
(80,135,cs),
(80,71,o),
(124,-20,o),
(277,-20,cs)
);
},
{
closed = 1;
nodes = (
(151,20,o),
(120,83,o),
(120,135,cs),
(120,161,o),
(126,183,o),
(142,204,cs),
(1244,1712,ls),
(1270,1747,o),
(1268,1750,o),
(1221,1750,cs),
(563,1750,ls),
(473,1750,o),
(429,1800,o),
(429,1865,cs),
(429,1938,o),
(477,1988,o),
(563,1988,cs),
(1502,1988,ls),
(1595,1988,o),
(1648,1942,o),
(1648,1876,cs),
(1648,1848,o),
(1639,1820,o),
(1613,1784,cs),
(532,301,ls),
(503,261,o),
(504,258,o),
(557,258,cs),
(1236,258,ls),
(1319,258,o),
(1370,205,o),
(1370,133,cs),
(1370,68,o),
(1326,20,o),
(1236,20,cs),
(277,20,ls)
);
}
);
vertWidth = 0;
width = 1588;
}
);
metricLeft = Z;
metricRight = Z;
},
{
color = 7;
glyphname = A.ss04;
kernLeft = A;
kernRight = A;
layers = (
{
anchors = (
{
name = bottom;
pos = (638,0);
},
{
name = ogonek;
pos = (1188,10);
},
{
name = top;
pos = (992,2008);
}
);
layerId = m01;
shapes = (
{
closed = 1;
nodes = (
(141,0,o),
(158,25,o),
(188,83,cs),
(659,1008,l),
(1059,1008,l),
(1132,84,ls),
(1135,52,o),
(1147,0,o),
(1221,0,cs),
(1283,0,o),
(1304,39,o),
(1300,91,cs),
(1144,1943,ls),
(1141,1978,o),
(1116,2008,o),
(1059,2008,cs),
(983,2008,o),
(979,1968,o),
(958,1928,cs),
(13,113,ls),
(-24,43,o),
(23,0,o),
(76,0,cs)
);
},
{
closed = 1;
nodes = (
(33,20,o),
(1,49,o),
(30,104,cs),
(976,1919,ls),
(999,1963,o),
(1000,1988,o),
(1059,1988,cs),
(1105,1988,o),
(1122,1968,o),
(1124,1940,cs),
(1281,89,ls),
(1285,45,o),
(1270,20,o),
(1221,20,cs),
(1163,20,o),
(1154,55,o),
(1152,85,cs),
(1077,1028,l),
(647,1028,l),
(170,92,ls),
(141,36,o),
(130,20,o),
(76,20,cs)
);
},
{
closed = 1;
nodes = (
(1046,1159,l),
(1006,1689,l),
(737,1159,l)
);
},
{
closed = 1;
nodes = (
(996,1713,ls),
(1015,1750,o),
(1020,1750,o),
(1023,1708,cs),
(1068,1140,l),
(704,1140,l)
);
},
{
closed = 1;
nodes = (
(1079,1874,o),
(1099,1894,o),
(1099,1919,cs),
(1099,1944,o),
(1079,1964,o),
(1054,1964,cs),
(1029,1964,o),
(1009,1944,o),
(1009,1919,cs),
(1009,1894,o),
(1029,1874,o),
(1054,1874,cs)
);
}
);
vertWidth = 0;
width = 1500;
},
{
anchors = (
{
name = bottom;
pos = (756,0);
},
{
name = ogonek;
pos = (1371,10);
},
{
name = top;
pos = (1110,2008);
}
);
layerId = "140DECC1-64C4-40C0-9C07-503DBC3F4160";
shapes = (
{
closed = 1;
nodes = (
(285,-20,o),
(340,8,o),
(382,92,cs),
(742,803,l),
(1125,802,l),
(1181,124,ls),
(1188,37,o),
(1245,-20,o),
(1352,-20,cs),
(1448,-20,o),
(1521,35,o),
(1512,145,cs),
(1364,1864,ls),
(1355,1972,o),
(1275,2028,o),
(1170,2028,cs),
(1060,2028,o),
(990,1976,o),
(957,1913,cs),
(62,194,ls),
(-3,70,o),
(86,-20,o),
(195,-20,cs)
);
},
{
closed = 1;
nodes = (
(109,20,o),
(47,78,o),
(98,176,cs),
(993,1895,ls),
(1021,1949,o),
(1075,1988,o),
(1170,1988,cs),
(1260,1988,o),
(1316,1948,o),
(1324,1860,cs),
(1472,141,ls),
(1479,56,o),
(1431,20,o),
(1352,20,cs),
(1264,20,o),
(1227,58,o),
(1221,126,cs),
(1161,842,l),
(718,843,l),
(346,110,ls),
(310,39,o),
(273,20,o),
(195,20,cs)
);
},
{
closed = 1;
nodes = (
(1099,1122,l),
(1071,1451,l),
(904,1122,l)
);
},
{
closed = 1;
nodes = (
(1054,1505,ls),
(1088,1571,o),
(1099,1576,o),
(1105,1509,cs),
(1141,1082,l),
(839,1082,l)
);
},
{
closed = 1;
nodes = (
(1190,1819,o),
(1217,1846,o),
(1217,1879,cs),
(1217,1912,o),
(1190,1939,o),
(1157,1939,cs),
(1124,1939,o),
(1097,1912,o),
(1097,1879,cs),
(1097,1846,o),
(1124,1819,o),
(1157,1819,cs)
);
}
);
vertWidth = 0;
width = 1678;
}
);
metricLeft = A;
metricRight = A;
},
{
color = 7;
glyphname = B.ss04;
kernLeft = H;
kernRight = B;
layers = (
{
anchors = (
{
name = bottom;
pos = (736,0);
},
{
name = center;
pos = (913,1004);
},
{
name = top;
pos = (1090,2008);
}
);
layerId = m01;
shapes = (
{
closed = 1;
nodes = (
(1139,0,o),
(1389,167,o),
(1442,509,cs),
(1485,787,o),
(1348,976,o),
(1057,1077,c),
(1436,1138,o),
(1531,1279,o),
(1555,1469,cs),
(1602,1839,o),
(1283,2008,o),
(622,2008,cs),
(566,2008,o),
(534,1984,o),
(522,1918,cs),
(202,107,ls),
(193,55,o),
(219,0,o),
(268,0,cs)
);
},
{
closed = 1;
nodes = (
(233,20,o),
(213,60,o),
(221,103,cs),
(541,1914,ls),
(551,1972,o),
(574,1988,o),
(622,1988,cs),
(1276,1988,o),
(1579,1827,o),
(1535,1472,cs),
(1510,1270,o),
(1410,1136,o),
(964,1084,c),
(1308,994,o),
(1467,802,o),
(1423,511,cs),
(1373,180,o),
(1131,20,o),
(268,20,cs)
);
},
{
closed = 1;
nodes = (
(921,166,o),
(1231,246,o),
(1271,529,cs),
(1309,796,o),
(1096,999,o),
(537,1020,c),
(386,162,l)
);
},
{
closed = 1;
nodes = (
(520,1040,l),
(1102,1022,o),
(1331,807,o),
(1291,527,cs),
(1248,225,o),
(915,144,o),
(362,142,c)
);
},
{
closed = 1;
nodes = (
(1262,1169,o),
(1360,1287,o),
(1381,1476,cs),
(1410,1741,o),
(1145,1842,o),
(682,1849,c),
(561,1160,l)
);
},
{
closed = 1;
nodes = (
(666,1869,l),
(1143,1865,o),
(1434,1759,o),
(1401,1474,cs),
(1378,1274,o),
(1271,1147,o),
(538,1140,c)
);
},
{
closed = 1;
nodes = (
(640,1874,o),
(660,1894,o),
(660,1919,cs),
(660,1944,o),
(640,1964,o),
(615,1964,cs),
(590,1964,o),
(570,1944,o),
(570,1919,cs),
(570,1894,o),
(590,1874,o),
(615,1874,cs)
);
}
);
vertWidth = 0;
width = 1590;
},
{
anchors = (
{
name = bottom;
pos = (823,0);
},
{
name = center;
pos = (1000,1004);
},
{
name = top;
pos = (1177,2008);
}
);
layerId = "140DECC1-64C4-40C0-9C07-503DBC3F4160";
shapes = (
{
closed = 1;
nodes = (
(1254,-20,o),
(1582,62,o),
(1644,507,cs),
(1683,784,o),
(1567,954,o),
(1354,1063,c),
(1631,1146,o),
(1770,1292,o),
(1790,1455,cs),
(1838,1856,o),
(1468,2028,o),
(666,2028,cs),
(590,2028,o),
(517,2002,o),
(496,1884,cs),
(193,167,ls),
(174,61,o),
(251,-20,o),
(343,-20,cs)
);
},
{
closed = 1;
nodes = (
(272,20,o),
(218,76,o),
(233,161,cs),
(536,1878,ls),
(552,1970,o),
(600,1988,o),
(666,1988,cs),
(1456,1988,o),
(1793,1832,o),
(1750,1461,cs),
(1729,1285,o),
(1573,1147,o),
(1231,1073,c),
(1501,973,o),
(1646,807,o),
(1604,513,cs),
(1545,97,o),
(1246,20,o),
(343,20,cs)
);
},
{
closed = 1;
nodes = (
(1100,313,o),
(1269,373,o),
(1297,567,cs),
(1331,797,o),
(1181,898,o),
(682,917,c),
(573,299,l)
);
},
{
closed = 1;
nodes = (
(649,959,l),
(1192,942,o),
(1375,825,o),
(1337,561,cs),
(1305,336,o),
(1099,269,o),
(525,257,c)
);
},
{
closed = 1;
nodes = (
(1404,1234,o),
(1431,1377,o),
(1440,1476,cs),
(1451,1605,o),
(1355,1689,o),
(821,1706,c),
(733,1213,l)
);
},
{
closed = 1;
nodes = (
(787,1747,l),
(1369,1733,o),
(1494,1629,o),
(1480,1472,cs),
(1470,1365,o),
(1441,1188,o),
(686,1171,c)
);
},
{
closed = 1;
nodes = (
(682,1819,o),
(709,1846,o),
(709,1879,cs),
(709,1912,o),
(682,1939,o),
(649,1939,cs),
(616,1939,o),
(589,1912,o),
(589,1879,cs),
(589,1846,o),
(616,1819,o),
(649,1819,cs)
);
}
);
vertWidth = 0;
width = 1761;
}
);
metricLeft = B;
metricRight = B;
},
{
color = 7;
glyphname = C.ss04;
kernLeft = C;
kernRight = C;
layers = (
{
anchors = (
{
name = bottom;
pos = (684,0);
},
{
name = top;
pos = (1038,2008);
}
);
layerId = m01;
shapes = (
{
closed = 1;
nodes = (
(1045,0,o),
(1254,139,o),
(1430,333,cs),
(1507,418,o),
(1515,459,o),
(1512,483,cs),
(1504,524,o),
(1473,546,o),
(1430,546,cs),
(1374,546,o),
(1355,490,o),
(1295,437,cs),
(1128,278,o),
(979,162,o),
(781,162,cs),
(567,162,o),
(346,430,o),
(433,938,cs),
(495,1290,o),
(639,1849,o),
(1167,1849,cs),
(1307,1849,o),
(1452,1786,o),
(1588,1644,cs),
(1634,1598,o),
(1682,1611,o),
(1710,1641,cs),
(1739,1673,o),
(1732,1721,o),
(1698,1757,cs),
(1554,1909,o),
(1363,2008,o),
(1170,2008,cs),
(513,2008,o),
(339,1380,o),
(261,944,cs),
(152,335,o),
(479,0,o),
(779,0,cs)
);
},
{
closed = 1;
nodes = (
(489,20,o),
(174,343,o),
(281,941,cs),
(358,1375,o),
(528,1988,o),
(1170,1988,cs),
(1358,1988,o),
(1537,1900,o),
(1686,1743,cs),
(1712,1718,o),
(1718,1677,o),
(1695,1654,cs),
(1674,1629,o),
(1639,1620,o),
(1602,1657,cs),
(1464,1803,o),
(1311,1869,o),
(1167,1869,cs),
(624,1869,o),
(475,1294,o),
(414,941,cs),
(325,422,o),
(556,142,o),
(781,142,cs),
(986,142,o),
(1141,263,o),
(1308,423,cs),
(1373,479,o),
(1387,526,o),
(1430,526,cs),
(1466,526,o),
(1486,511,o),
(1492,480,cs),
(1495,461,o),
(1488,427,o),
(1415,346,cs),
(1241,154,o),
(1038,20,o),
(779,20,cs)
);
},
{
closed = 1;
nodes = (
(1673,1650,o),
(1693,1670,o),
(1693,1695,cs),
(1693,1720,o),
(1673,1740,o),
(1648,1740,cs),
(1623,1740,o),
(1603,1720,o),
(1603,1695,cs),
(1603,1670,o),
(1623,1650,o),
(1648,1650,cs)
);
}
);
vertWidth = 0;
width = 1524;
},
{
anchors = (
{
name = bottom;
pos = (740,0);
},
{
name = top;
pos = (1094,2008);
}
);
layerId = "140DECC1-64C4-40C0-9C07-503DBC3F4160";
shapes = (
{
closed = 1;
nodes = (
(1114,-20,o),
(1384,103,o),
(1568,303,cs),
(1647,389,o),
(1679,435,o),
(1679,499,cs),
(1679,567,o),
(1627,626,o),
(1534,626,cs),
(1481,626,o),
(1413,607,o),
(1335,520,cs),
(1210,380,o),
(1034,298,o),
(861,298,cs),
(645,298,o),
(533,561,o),
(597,936,cs),
(685,1455,o),
(901,1710,o),
(1251,1710,cs),
(1388,1710,o),
(1480,1680,o),
(1576,1592,cs),
(1656,1521,o),
(1762,1487,o),
(1840,1565,cs),
(1921,1646,o),
(1875,1750,o),
(1792,1825,cs),
(1624,1977,o),
(1450,2028,o),
(1254,2028,cs),
(712,2028,o),
(375,1661,o),
(248,945,cs),
(152,394,o),
(412,-20,o),
(858,-20,cs)
);
},
{
closed = 1;
nodes = (
(437,20,o),
(195,405,o),
(288,939,cs),
(412,1640,o),
(732,1988,o),
(1254,1988,cs),
(1443,1988,o),
(1605,1941,o),
(1766,1795,cs),
(1840,1728,o),
(1872,1654,o),
(1812,1593,cs),
(1752,1534,o),
(1674,1558,o),
(1602,1622,cs),
(1500,1716,o),
(1395,1750,o),
(1251,1750,cs),
(880,1750,o),
(648,1475,o),
(557,942,cs),
(491,552,o),
(616,258,o),
(861,258,cs),
(1044,258,o),
(1233,347,o),
(1365,494,cs),
(1434,570,o),
(1488,586,o),
(1534,586,cs),
(1606,586,o),
(1639,549,o),
(1639,499,cs),
(1639,448,o),
(1615,414,o),
(1538,331,cs),
(1361,137,o),
(1104,20,o),
(858,20,cs)
);
},
{
closed = 1;
nodes = (
(1767,1612,o),
(1794,1639,o),
(1794,1672,cs),
(1794,1705,o),
(1767,1732,o),
(1734,1732,cs),
(1701,1732,o),
(1674,1705,o),
(1674,1672,cs),
(1674,1639,o),
(1701,1612,o),
(1734,1612,cs)
);
}
);
vertWidth = 0;
width = 1669;
}
);
metricLeft = C;
},
{
color = 7;
glyphname = D.ss04;
kernLeft = H;
kernRight = D;
layers = (
{
anchors = (
{
name = bottom;
pos = (784,0);
},
{
name = center;
pos = (961,1004);
},
{
name = top;
pos = (1138,2008);
}
);
layerId = m01;
shapes = (
{
closed = 1;
nodes = (
(481,0,ls),
(1072,0,o),
(1571,377,o),
(1662,1062,cs),
(1743,1677,o),
(1304,2008,o),
(735,2008,cs),
(624,2008,ls),
(553,2008,o),
(533,1969,o),
(524,1918,cs),
(202,94,ls),
(193,41,o),
(219,0,o),
(281,0,cs)
);
},
{
closed = 1;
nodes = (
(231,20,o),
(213,47,o),
(221,90,cs),
(544,1914,ls),
(552,1961,o),
(566,1988,o),
(624,1988,cs),
(735,1988,ls),
(1296,1988,o),
(1721,1667,o),
(1642,1065,cs),
(1552,389,o),
(1064,20,o),
(481,20,cs),
(281,20,ls)
);
},
{
closed = 1;
nodes = (
(481,162,ls),
(972,162,o),
(1416,471,o),
(1490,1085,cs),
(1546,1571,o),
(1211,1849,o),
(746,1849,cs),
(685,1849,l),
(387,162,l)
);
},
{
closed = 1;
nodes = (
(668,1869,l),
(746,1869,ls),
(1219,1869,o),
(1567,1581,o),
(1510,1083,cs),
(1434,459,o),
(979,142,o),
(481,142,cs),
(364,142,l)
);
},
{
closed = 1;
nodes = (
(642,1874,o),
(662,1894,o),
(662,1919,cs),
(662,1944,o),
(642,1964,o),
(617,1964,cs),
(592,1964,o),
(572,1944,o),
(572,1919,cs),
(572,1894,o),
(592,1874,o),
(617,1874,cs)
);
}
);
vertWidth = 0;
width = 1692;
},
{
anchors = (
{
name = bottom;
pos = (877,0);
},
{
name = center;
pos = (1054,1004);
},
{
name = top;
pos = (1231,2008);
}
);
layerId = "140DECC1-64C4-40C0-9C07-503DBC3F4160";
shapes = (
{
closed = 1;
nodes = (
(593,-20,ls),
(1225,-20,o),
(1756,451,o),
(1841,1082,cs),
(1921,1668,o),
(1533,2028,o),
(832,2028,cs),
(677,2028,ls),
(571,2028,o),
(515,1979,o),
(498,1885,cs),
(193,155,ls),
(176,59,o),
(246,-20,o),
(354,-20,cs)
);
},
{
closed = 1;
nodes = (
(267,20,o),
(220,74,o),
(233,147,cs),
(538,1877,ls),
(552,1956,o),
(589,1988,o),
(677,1988,cs),
(832,1988,ls),
(1514,1988,o),
(1878,1649,o),
(1801,1088,cs),
(1718,473,o),
(1207,20,o),
(593,20,cs),
(354,20,ls)
);
},
{
closed = 1;
nodes = (
(593,296,ls),
(1057,296,o),
(1443,632,o),
(1502,1085,cs),
(1553,1476,o),
(1308,1712,o),
(848,1712,cs),
(824,1712,l),
(575,296,l)
);
},
{
closed = 1;
nodes = (
(790,1752,l),
(848,1752,ls),
(1327,1752,o),
(1596,1493,o),
(1542,1079,cs),
(1481,610,o),
(1074,256,o),
(593,256,cs),
(527,256,l)
);
},
{
closed = 1;
nodes = (
(684,1819,o),
(711,1846,o),
(711,1879,cs),
(711,1912,o),
(684,1939,o),
(651,1939,cs),
(618,1939,o),
(591,1912,o),
(591,1879,cs),
(591,1846,o),
(618,1819,o),
(651,1819,cs)
);
}
);
vertWidth = 0;
width = 1866;
}
);
metricLeft = D;
metricRight = D;
},
{
color = 7;
glyphname = E.ss04;
kernLeft = H;
kernRight = E;
layers = (
{
anchors = (
{
name = bottom;
pos = (723,0);
},
{
name = ogonek;
pos = (1302,10);
},
{
name = top;
pos = (1077,2008);
},
{
name = topleft;
pos = (375,2008);
}
);
layerId = m01;
shapes = (
{
closed = 1;
nodes = (
(1309,0,ls),
(1378,0,o),
(1399,51,o),
(1399,90,cs),
(1399,130,o),
(1377,162,o),
(1309,162,cs),
(387,162,l),
(536,1005,l),
(1340,1005,ls),
(1410,1005,o),
(1430,1045,o),
(1429,1078,cs),
(1428,1120,o),
(1409,1160,o),
(1339,1160,cs),
(563,1160,l),
(685,1849,l),
(1608,1849,ls),
(1676,1849,o),
(1697,1881,o),
(1697,1924,cs),
(1697,1963,o),
(1677,2008,o),
(1608,2008,cs),
(627,2008,ls),
(553,2008,o),
(533,1968,o),
(524,1918,cs),
(202,94,ls),
(193,41,o),
(219,0,o),
(281,0,cs)
);
},
{
closed = 1;
nodes = (
(231,20,o),
(213,47,o),
(221,90,cs),
(544,1914,ls),
(552,1961,o),
(566,1988,o),
(627,1988,cs),
(1608,1988,ls),
(1663,1988,o),
(1678,1957,o),
(1678,1924,cs),
(1678,1888,o),
(1665,1869,o),
(1608,1869,cs),
(668,1869,l),
(539,1140,l),
(1339,1140,ls),
(1396,1140,o),
(1408,1114,o),
(1409,1078,cs),
(1410,1051,o),
(1397,1025,o),
(1340,1025,cs),
(519,1025,l),
(364,142,l),
(1309,142,ls),
(1366,142,o),
(1380,123,o),
(1380,90,cs),
(1380,56,o),
(1364,20,o),
(1309,20,cs),
(281,20,ls)
);
},
{
closed = 1;
nodes = (
(642,1874,o),
(662,1894,o),
(662,1919,cs),
(662,1944,o),
(642,1964,o),
(617,1964,cs),
(592,1964,o),
(572,1944,o),
(572,1919,cs),
(572,1894,o),
(592,1874,o),
(617,1874,cs)
);
}
);
vertWidth = 0;
width = 1677;
},
{
anchors = (
{
name = bottom;
pos = (775,0);
},
{
name = ogonek;
pos = (1410,10);
},
{
name = top;
pos = (1129,2008);
},
{
name = topleft;
pos = (355,2008);
}
);
layerId = "140DECC1-64C4-40C0-9C07-503DBC3F4160";
shapes = (
{
closed = 1;
nodes = (
(1402,-20,ls),
(1503,-20,o),
(1575,37,o),
(1575,130,cs),
(1575,212,o),
(1519,296,o),
(1407,296,cs),
(575,296,l),
(682,910,l),
(1466,910,ls),
(1574,910,o),
(1652,978,o),
(1652,1063,cs),
(1652,1155,o),
(1582,1213,o),
(1481,1213,cs),
(736,1213,l),
(824,1712,l),
(1706,1712,ls),
(1810,1712,o),
(1885,1781,o),
(1885,1873,cs),
(1885,1962,o),
(1819,2028,o),
(1714,2028,cs),
(684,2028,ls),
(580,2028,o),
(517,1988,o),
(500,1892,cs),
(193,156,ls),
(176,61,o),
(223,-20,o),
(328,-20,cs)
);
},
{
closed = 1;
nodes = (
(249,20,o),
(219,72,o),
(233,150,cs),
(540,1884,ls),
(554,1962,o),
(594,1988,o),
(684,1988,cs),
(1714,1988,ls),
(1800,1988,o),
(1845,1943,o),
(1845,1873,cs),
(1845,1801,o),
(1792,1752,o),
(1706,1752,cs),
(790,1752,l),
(688,1173,l),
(1481,1173,ls),
(1565,1173,o),
(1612,1134,o),
(1612,1063,cs),
(1612,999,o),
(1556,950,o),
(1466,950,cs),
(648,950,l),
(527,256,l),
(1407,256,ls),
(1495,256,o),
(1535,197,o),
(1535,130,cs),
(1535,59,o),
(1486,20,o),
(1402,20,cs),
(328,20,ls)
);
},
{
closed = 1;
nodes = (
(684,1819,o),
(711,1846,o),
(711,1879,cs),
(711,1912,o),
(684,1939,o),
(651,1939,cs),
(618,1939,o),
(591,1912,o),
(591,1879,cs),
(591,1846,o),
(618,1819,o),
(651,1819,cs)
);
}
);
vertWidth = 0;
width = 1805;
}
);
metricLeft = E;
metricRight = E;
},
{
color = 7;
glyphname = F.ss04;
kernLeft = H;
kernRight = F;
layers = (
{
anchors = (
{
name = bottom;
pos = (641,0);
},
{
name = top;
pos = (995,2008);
}
);
layerId = m01;
shapes = (
{
closed = 1;
nodes = (
(356,0,o),
(367,54,o),
(373,86,cs),
(536,1005,l),
(1306,1005,ls),
(1376,1005,o),
(1396,1045,o),
(1396,1078,cs),
(1396,1120,o),
(1376,1160,o),
(1306,1160,cs),
(564,1160,l),
(685,1849,l),
(1577,1849,ls),
(1645,1849,o),
(1667,1881,o),
(1667,1924,cs),
(1667,1963,o),
(1646,2008,o),
(1577,2008,cs),
(627,2008,ls),
(553,2008,o),
(533,1968,o),
(524,1918,cs),
(202,94,ls),
(193,41,o),
(220,0,o),
(282,0,cs)
);
},
{
closed = 1;
nodes = (
(232,20,o),
(214,48,o),
(221,90,cs),
(544,1914,ls),
(552,1961,o),
(566,1988,o),
(627,1988,cs),
(1577,1988,ls),
(1633,1988,o),
(1647,1957,o),
(1647,1924,cs),
(1647,1888,o),
(1634,1869,o),
(1577,1869,cs),
(668,1869,l),
(540,1140,l),
(1306,1140,ls),
(1363,1140,o),
(1377,1114,o),
(1377,1078,cs),
(1377,1051,o),
(1363,1025,o),
(1306,1025,cs),
(519,1025,l),
(354,89,ls),
(349,59,o),
(340,20,o),
(282,20,cs)
);
},
{
closed = 1;
nodes = (
(642,1874,o),
(662,1894,o),
(662,1919,cs),
(662,1944,o),
(642,1964,o),
(617,1964,cs),
(592,1964,o),
(572,1944,o),
(572,1919,cs),
(572,1894,o),
(592,1874,o),
(617,1874,cs)
);
}
);
vertWidth = 0;
width = 1647;
},
{
anchors = (
{
name = bottom;
pos = (721,0);
},
{
name = top;
pos = (1075,2008);
}
);
layerId = "140DECC1-64C4-40C0-9C07-503DBC3F4160";
shapes = (
{
closed = 1;
nodes = (
(456,-20,o),
(531,53,o),
(549,156,cs),
(681,910,l),
(1450,910,ls),
(1560,910,o),
(1620,980,o),
(1620,1065,cs),
(1620,1154,o),
(1556,1213,o),
(1452,1213,cs),
(734,1213,l),
(822,1712,l),
(1669,1712,ls),
(1783,1712,o),
(1850,1792,o),
(1850,1868,cs),
(1850,1964,o),
(1784,2028,o),
(1679,2028,cs),
(676,2028,ls),
(570,2028,o),
(514,1985,o),
(497,1889,cs),
(194,170,ls),
(178,79,o),
(210,-20,o),
(349,-20,cs)
);
},
{
closed = 1;
nodes = (
(241,20,o),
(220,85,o),
(234,162,cs),
(537,1883,ls),
(551,1961,o),
(586,1988,o),
(676,1988,cs),
(1679,1988,ls),
(1765,1988,o),
(1810,1945,o),
(1810,1868,cs),
(1810,1809,o),
(1762,1752,o),
(1669,1752,cs),
(788,1752,l),
(686,1173,l),
(1452,1173,ls),
(1538,1173,o),
(1580,1134,o),
(1580,1065,cs),
(1580,997,o),
(1539,950,o),
(1450,950,cs),
(647,950,l),
(509,162,ls),
(494,75,o),
(438,20,o),
(349,20,cs)
);
},
{
closed = 1;
nodes = (
(682,1819,o),
(709,1846,o),
(709,1879,cs),
(709,1912,o),
(682,1939,o),
(649,1939,cs),
(616,1939,o),
(589,1912,o),
(589,1879,cs),
(589,1846,o),
(616,1819,o),
(649,1819,cs)
);
}
);
vertWidth = 0;
width = 1730;
}
);
metricLeft = F;
metricRight = F;
},
{
color = 7;
glyphname = G.ss04;
kernLeft = G;
kernRight = G;
layers = (
{
anchors = (
{
name = bottom;
pos = (773,0);
},
{
name = top;
pos = (1127,2008);
}
);
layerId = m01;
shapes = (
{
closed = 1;
nodes = (
(942,-20,o),
(1111,95,o),
(1308,363,c),
(1264,94,ls),
(1258,55,o),
(1268,4,o),
(1335,0,cs),
(1415,-3,o),
(1432,56,o),
(1438,91,cs),
(1557,783,ls),
(1567,840,o),
(1551,877,o),
(1488,877,cs),
(1420,877,o),
(1386,829,o),
(1352,748,cs),
(1191,379,o),
(979,142,o),
(764,142,cs),
(496,142,o),
(358,487,o),
(434,938,cs),
(539,1545,o),
(785,1869,o),
(1168,1869,cs),
(1308,1869,o),
(1443,1809,o),
(1581,1666,cs),
(1624,1622,o),
(1672,1634,o),
(1701,1664,cs),
(1731,1695,o),
(1724,1749,o),
(1693,1780,cs),
(1542,1939,o),
(1364,2028,o),
(1171,2028,cs),
(694,2028,o),
(390,1648,o),
(262,944,cs),
(169,404,o),
(380,-20,o),
(761,-20,cs)
);
},
{
closed = 1;
nodes = (
(394,0,o),
(190,409,o),
(282,941,cs),
(408,1638,o),
(704,2008,o),
(1171,2008,cs),
(1359,2008,o),
(1530,1923,o),
(1679,1767,cs),
(1705,1740,o),
(1707,1701,o),
(1686,1677,cs),
(1664,1653,o),
(1630,1644,o),
(1595,1679,cs),
(1455,1826,o),
(1312,1889,o),
(1168,1889,cs),
(774,1889,o),
(520,1555,o),
(415,941,cs),
(337,483,o),
(481,122,o),
(764,122,cs),
(988,122,o),
(1208,367,o),
(1370,740,cs),
(1404,819,o),
(1431,857,o),
(1488,857,cs),
(1538,857,o),
(1546,836,o),
(1538,787,cs),
(1419,94,ls),
(1413,61,o),
(1400,17,o),
(1336,20,cs),
(1285,23,o),
(1279,56,o),
(1284,90,cs),
(1332,389,ls),
(1339,435,o),
(1332,432,o),
(1304,392,cs),
(1105,113,o),
(940,0,o),
(761,0,cs)
);
},
{
closed = 1;
nodes = (
(1664,1675,o),
(1684,1695,o),
(1684,1720,cs),
(1684,1745,o),
(1664,1765,o),
(1639,1765,cs),
(1614,1765,o),
(1594,1745,o),
(1594,1720,cs),
(1594,1695,o),
(1614,1675,o),
(1639,1675,cs)
);
}
);
vertWidth = 0;
width = 1760;
},
{
anchors = (
{
name = bottom;
pos = (841,0);
},
{
name = top;
pos = (1195,2008);
}
);
layerId = "140DECC1-64C4-40C0-9C07-503DBC3F4160";
shapes = (
{
closed = 1;
nodes = (
(997,-20,o),
(1142,72,o),
(1273,235,c),
(1261,174,ls),
(1240,65,o),
(1317,-1,o),
(1435,-1,cs),
(1555,-1,o),
(1589,65,o),
(1603,146,cs),
(1722,822,ls),
(1741,930,o),
(1680,1001,o),
(1572,1001,cs),
(1507,1001,o),
(1433,985,o),
(1350,832,cs),
(1194,560,o),
(1000,298,o),
(800,298,cs),
(631,298,o),
(532,533,o),
(601,936,cs),
(689,1455,o),
(905,1710,o),
(1255,1710,cs),
(1392,1710,o),
(1484,1680,o),
(1580,1592,cs),
(1660,1521,o),
(1766,1487,o),
(1844,1565,cs),
(1925,1646,o),
(1879,1750,o),
(1796,1825,cs),
(1628,1977,o),
(1454,2028,o),
(1258,2028,cs),
(716,2028,o),
(379,1661,o),
(252,945,cs),
(148,351,o),
(384,-20,o),
(797,-20,cs)
);
},
{
closed = 1;
nodes = (
(408,20,o),
(191,363,o),
(292,939,cs),
(416,1640,o),
(736,1988,o),
(1258,1988,cs),
(1447,1988,o),
(1609,1941,o),
(1770,1795,cs),
(1844,1728,o),
(1876,1654,o),
(1816,1593,cs),
(1756,1534,o),
(1678,1558,o),
(1606,1622,cs),
(1504,1716,o),
(1399,1750,o),
(1255,1750,cs),
(884,1750,o),
(652,1475,o),
(561,942,cs),
(489,523,o),
(602,258,o),
(800,258,cs),
(1021,258,o),
(1227,537,o),
(1384,812,cs),
(1458,948,o),
(1512,961,o),
(1572,961,cs),
(1659,961,o),
(1697,915,o),
(1682,828,cs),
(1563,152,ls),
(1551,81,o),
(1529,39,o),
(1435,39,cs),
(1335,39,o),
(1286,82,o),
(1301,166,cs),
(1325,297,ls),
(1336,355,o),
(1316,360,o),
(1279,309,cs),
(1143,121,o),
(1003,20,o),
(797,20,cs)
);
},
{
closed = 1;
nodes = (
(1771,1612,o),
(1798,1639,o),
(1798,1672,cs),
(1798,1705,o),
(1771,1732,o),
(1738,1732,cs),
(1705,1732,o),
(1678,1705,o),
(1678,1672,cs),
(1678,1639,o),
(1705,1612,o),
(1738,1612,cs)
);
}
);
vertWidth = 0;
width = 1916;
}
);
metricLeft = G;
metricRight = G;
},
{
color = 7;
glyphname = H.ss04;
kernLeft = H;
kernRight = H;
layers = (
{
anchors = (
{
name = bottom;
pos = (788,0);
},
{
name = center;
pos = (965,1004);
},
{
name = top;
pos = (1142,2008);
},
{
name = topleft;
pos = (375,2008);
}
);
layerId = m01;
shapes = (
{
closed = 1;
nodes = (
(356,0,o),
(368,54,o),
(374,86,cs),
(536,1005,l),
(1390,1005,l),
(1232,94,ls),
(1225,55,o),
(1233,0,o),
(1311,0,cs),
(1378,0,o),
(1398,45,o),
(1403,76,cs),
(1726,1909,ls),
(1736,1966,o),
(1713,2008,o),
(1647,2008,cs),
(1584,2008,o),
(1555,1968,o),
(1549,1933,cs),
(1416,1160,l),
(563,1160,l),
(694,1901,ls),
(705,1963,o),
(685,2008,o),
(626,2008,cs),
(561,2008,o),
(533,1969,o),
(524,1918,cs),
(202,94,ls),
(193,41,o),
(220,0,o),
(281,0,cs)
);
},
{
closed = 1;
nodes = (
(231,20,o),
(213,47,o),
(221,90,cs),
(543,1914,ls),
(551,1960,o),
(572,1988,o),
(626,1988,cs),
(672,1988,o),
(684,1958,o),
(674,1904,cs),
(539,1140,l),
(1433,1140,l),
(1569,1929,ls),
(1574,1959,o),
(1596,1988,o),
(1647,1988,cs),
(1700,1988,o),
(1716,1961,o),
(1707,1912,cs),
(1384,79,ls),
(1379,52,o),
(1365,20,o),
(1311,20,cs),
(1251,20,o),
(1246,56,o),
(1252,90,cs),
(1413,1025,l),
(519,1025,l),
(354,89,ls),
(349,59,o),
(341,20,o),
(281,20,cs)
);
},
{
closed = 1;
nodes = (
(635,1874,o),
(655,1894,o),
(655,1919,cs),
(655,1944,o),
(635,1964,o),
(610,1964,cs),
(585,1964,o),
(565,1944,o),
(565,1919,cs),
(565,1894,o),
(585,1874,o),
(610,1874,cs)
);
}
);
vertWidth = 0;
width = 1768;
},
{
anchors = (
{
name = bottom;
pos = (857,0);
},
{
name = center;
pos = (1034,1004);
},
{
name = top;
pos = (1211,2008);
},
{
name = topleft;
pos = (354,2008);
}
);
layerId = "140DECC1-64C4-40C0-9C07-503DBC3F4160";
shapes = (
{
closed = 1;
nodes = (
(477,-20,o),
(533,52,o),
(542,122,c),
(669,851,l),
(1350,851,l),
(1228,154,ls),
(1210,53,o),
(1275,-20,o),
(1388,-20,cs),
(1486,-20,o),
(1560,39,o),
(1575,110,c),
(1877,1848,ls),
(1897,1961,o),
(1823,2028,o),
(1716,2028,cs),
(1619,2028,o),
(1545,1975,o),
(1532,1897,cs),
(1405,1170,l),
(724,1170,l),
(841,1841,ls),
(862,1963,o),
(796,2028,o),
(696,2028,cs),
(606,2028,o),
(515,1985,o),
(497,1885,cs),
(193,155,ls),
(175,56,o),
(249,-20,o),
(358,-20,cs)
);
},
{
closed = 1;
nodes = (
(268,20,o),
(219,72,o),
(233,147,cs),
(537,1877,ls),
(551,1955,o),
(618,1988,o),
(696,1988,cs),
(777,1988,o),
(819,1946,o),
(801,1847,cs),
(676,1130,l),
(1439,1130,l),
(1572,1891,ls),
(1581,1950,o),
(1634,1988,o),
(1716,1988,cs),
(1804,1988,o),
(1853,1944,o),
(1837,1856,cs),
(1535,118,ls),
(1524,63,o),
(1470,20,o),
(1388,20,cs),
(1296,20,o),
(1253,68,o),
(1268,148,cs),
(1398,891,l),
(635,891,l),
(502,128,l),
(495,70,o),
(455,20,o),
(358,20,cs)
);
},
{
closed = 1;
nodes = (
(704,1819,o),
(731,1846,o),
(731,1879,cs),
(731,1912,o),
(704,1939,o),
(671,1939,cs),
(638,1939,o),
(611,1912,o),
(611,1879,cs),
(611,1846,o),
(638,1819,o),
(671,1819,cs)
);
}
);
vertWidth = 0;
width = 1930;
}
);
metricLeft = H;
metricRight = H;
},
{
color = 7;
glyphname = I.ss04;
kernLeft = I;
kernRight = I;
layers = (
{
anchors = (
{
name = bottom;
pos = (398,0);
},
{
name = ogonek;
pos = (726,10);
},
{
name = top;
pos = (752,2008);
},
{
name = topleft;
pos = (362,2008);
}
);
layerId = m01;
shapes = (
{
closed = 1;
nodes = (
(552,0,ls),
(622,0,o),
(642,40,o),
(642,79,cs),
(642,122,o),
(622,162,o),
(552,162,cs),
(511,162,l),
(808,1849,l),
(872,1849,ls),
(938,1849,o),
(959,1892,o),
(959,1931,cs),
(959,1971,o),
(938,2008,o),
(872,2008,cs),
(599,2008,ls),
(530,2008,o),
(510,1971,o),
(510,1931,cs),
(510,1892,o),
(530,1849,o),
(599,1849,cs),
(629,1849,l),
(335,162,l),
(267,162,ls),
(201,162,o),
(180,121,o),
(180,79,cs),
(180,40,o),
(201,0,o),
(267,0,cs)
);
},
{
closed = 1;
nodes = (
(214,20,o),
(200,46,o),
(200,79,cs),
(200,115,o),
(214,142,o),
(267,142,cs),
(352,142,l),
(653,1869,l),
(599,1869,ls),
(543,1869,o),
(529,1897,o),
(529,1931,cs),
(529,1965,o),
(543,1988,o),
(599,1988,cs),
(872,1988,ls),
(926,1988,o),
(939,1965,o),
(939,1931,cs),
(939,1897,o),
(925,1869,o),
(872,1869,cs),
(791,1869,l),
(488,142,l),
(552,142,ls),
(609,142,o),
(622,115,o),
(622,79,cs),
(622,46,o),
(609,20,o),
(552,20,cs),
(267,20,ls)
);
},
{
closed = 1;
nodes = (
(745,1822,o),
(765,1842,o),
(765,1867,cs),
(765,1892,o),
(745,1912,o),
(720,1912,cs),
(695,1912,o),
(675,1892,o),
(675,1867,cs),
(675,1842,o),
(695,1822,o),
(720,1822,cs)
);
}
);
vertWidth = 0;
width = 959;
},
{
anchors = (
{
name = bottom;
pos = (490,0);
},
{
name = ogonek;
pos = (836,10);
},
{
name = top;
pos = (844,2008);
},
{
name = topleft;
pos = (432,2008);
}
);
layerId = "140DECC1-64C4-40C0-9C07-503DBC3F4160";
shapes = (
{
closed = 1;
nodes = (
(815,-20,ls),
(933,-20,o),
(972,54,o),
(983,132,cs),
(997,218,o),
(951,298,o),
(859,298,cs),
(765,298,l),
(1010,1710,l),
(1125,1710,ls),
(1236,1710,o),
(1287,1793,o),
(1301,1872,cs),
(1312,1961,o),
(1251,2028,o),
(1169,2028,cs),
(617,2028,ls),
(512,2028,o),
(461,1961,o),
(447,1878,cs),
(432,1795,o),
(489,1710,o),
(576,1710,cs),
(656,1710,l),
(412,298,l),
(310,298,ls),
(200,298,o),
(146,221,o),
(132,138,cs),
(117,54,o),
(175,-20,o),
(266,-20,cs)
);
},
{
closed = 1;
nodes = (
(198,20,o),
(160,67,o),
(172,132,cs),
(184,203,o),
(222,258,o),
(310,258,cs),
(446,258,l),
(704,1750,l),
(576,1750,ls),
(514,1750,o),
(475,1807,o),
(487,1872,cs),
(499,1943,o),
(534,1988,o),
(617,1988,cs),
(1169,1988,ls),
(1230,1988,o),
(1270,1944,o),
(1261,1878,cs),
(1249,1809,o),
(1212,1750,o),
(1125,1750,cs),
(976,1750,l),
(717,258,l),
(859,258,ls),
(926,258,o),
(955,207,o),
(943,138,cs),
(934,68,o),
(907,20,o),
(815,20,cs),
(266,20,ls)
);
},
{
closed = 1;
nodes = (
(865,1691,o),
(892,1718,o),
(892,1751,cs),
(892,1784,o),
(865,1811,o),
(832,1811,cs),
(799,1811,o),
(772,1784,o),
(772,1751,cs),
(772,1718,o),
(799,1691,o),
(832,1691,cs)
);
}
);
vertWidth = 0;
width = 1252;
}
);
metricLeft = I;
metricRight = I;
},
{
color = 7;
glyphname = J.ss04;
kernLeft = J;
kernRight = J;
layers = (
{
anchors = (
{
name = bottom;
pos = (615,0);
},
{
name = top;
pos = (969,2008);
}
);
background = {
shapes = (
{
closed = 1;
nodes = (
(98,0,o),
(374,13,o),
(434,21,cs),
(855,83,o),
(938,461,o),
(1019,915,cs),
(1185,1849,l),
(1576,1849,ls),
(1645,1849,o),
(1665,1888,o),
(1665,1929,cs),
(1665,1968,o),
(1645,2008,o),
(1576,2008,cs),
(646,2008,ls),
(577,2008,o),
(556,1968,o),
(556,1929,cs),
(556,1888,o),
(577,1849,o),
(646,1849,cs),
(1011,1849,l),
(848,933,ls),
(786,586,o),
(735,234,o),
(444,184,cs),
(361,169,o),
(77,162,o),
(5,162,cs),
(-38,162,o),
(-82,132,o),
(-82,84,cs),
(-82,33,o),
(-38,0,o),
(5,0,cs)
);
},
{
closed = 1;
nodes = (
(-30,20,o),
(-62,44,o),
(-62,84,cs),
(-62,121,o),
(-31,142,o),
(5,142,cs),
(77,142,o),
(363,150,o),
(447,165,cs),
(752,217,o),
(805,582,o),
(867,930,cs),
(1034,1869,l),
(646,1869,ls),
(590,1869,o),
(576,1895,o),
(576,1929,cs),
(576,1962,o),
(590,1988,o),
(646,1988,cs),
(1576,1988,ls),
(1631,1988,o),
(1645,1962,o),
(1645,1929,cs),
(1645,1895,o),
(1632,1869,o),
(1576,1869,cs),
(1169,1869,l),
(999,919,ls),
(918,465,o),
(838,101,o),
(431,41,cs),
(372,33,o),
(98,20,o),
(5,20,cs)
);
}
);
};
layerId = m01;
shapes = (
{
closed = 1;
nodes = (
(1125,1822,o),
(1145,1842,o),
(1145,1867,cs),
(1145,1892,o),
(1125,1912,o),
(1100,1912,cs),
(1075,1912,o),
(1055,1892,o),
(1055,1867,cs),
(1055,1842,o),
(1075,1822,o),
(1100,1822,cs)
);
},
{
closed = 1;
nodes = (
(98,0,o),
(374,13,o),
(434,21,cs),
(855,83,o),
(938,461,o),
(1019,915,cs),
(1213,2008,l),
(1039,2008,l),
(848,933,ls),
(786,586,o),
(735,234,o),
(444,184,cs),
(361,169,o),
(77,162,o),
(5,162,cs),
(-38,162,o),
(-82,132,o),
(-82,84,cs),
(-82,33,o),
(-38,0,o),
(5,0,cs)
);
},
{
closed = 1;
nodes = (
(-30,20,o),
(-62,44,o),
(-62,84,cs),
(-62,121,o),
(-31,142,o),
(5,142,cs),
(77,142,o),
(363,150,o),
(447,165,cs),
(752,217,o),
(805,582,o),
(867,930,cs),
(1055,1988,l),
(1190,1988,l),
(999,919,ls),
(918,465,o),
(838,101,o),
(431,41,cs),
(372,33,o),
(98,20,o),
(5,20,cs)
);
}
);
vertWidth = 0;
width = 1419;
},
{
anchors = (
{
name = bottom;
pos = (661,0);
},
{
name = top;
pos = (1015,2008);
}
);
background = {
shapes = (
{
closed = 1;
nodes = (
(173,-20,o),
(443,-15,o),
(499,-7,cs),
(1077,63,o),
(1076,486,o),
(1150,904,cs),
(1293,1710,l),
(1591,1710,ls),
(1702,1710,o),
(1764,1782,o),
(1764,1873,cs),
(1764,1971,o),
(1694,2028,o),
(1593,2028,cs),
(704,2028,ls),
(598,2028,o),
(528,1968,o),
(528,1873,cs),
(528,1776,o),
(597,1710,o),
(699,1710,cs),
(938,1710,l),
(803,950,ls),
(745,623,o),
(720,343,o),
(487,314,cs),
(413,304,o),
(147,298,o),
(82,298,cs),
(-3,298,o),
(-89,230,o),
(-89,138,cs),
(-89,42,o),
(-2,-20,o),
(82,-20,cs)
);
},
{
closed = 1;
nodes = (
(13,20,o),
(-49,65,o),
(-49,138,cs),
(-49,208,o),
(14,258,o),
(82,258,cs),
(147,258,o),
(417,264,o),
(493,274,cs),
(757,307,o),
(785,617,o),
(843,944,cs),
(986,1750,l),
(699,1750,ls),
(616,1750,o),
(568,1796,o),
(568,1873,cs),
(568,1947,o),
(615,1988,o),
(704,1988,cs),
(1593,1988,ls),
(1677,1988,o),
(1724,1950,o),
(1724,1873,cs),
(1724,1799,o),
(1681,1750,o),
(1591,1750,cs),
(1259,1750,l),
(1110,912,ls),
(1035,489,o),
(1038,99,o),
(493,33,cs),
(439,25,o),
(173,20,o),
(82,20,cs)
);
}
);
};
layerId = "140DECC1-64C4-40C0-9C07-503DBC3F4160";
shapes = (
{
closed = 1;
nodes = (
(1152,1691,o),
(1179,1718,o),
(1179,1751,cs),
(1179,1784,o),
(1152,1811,o),
(1119,1811,cs),
(1086,1811,o),
(1059,1784,o),
(1059,1751,cs),
(1059,1718,o),
(1086,1691,o),
(1119,1691,cs)
);
},
{
closed = 1;
nodes = (
(173,-20,o),
(443,-15,o),
(499,-7,cs),
(1077,63,o),
(1076,486,o),
(1150,904,cs),
(1346,2008,l),
(991,2008,l),
(803,950,ls),
(745,622,o),
(720,343,o),
(487,314,cs),
(413,304,o),
(147,298,o),
(82,298,cs),
(-3,298,o),
(-89,230,o),
(-89,138,cs),
(-89,42,o),
(-2,-20,o),
(82,-20,cs)
);
},
{
closed = 1;
nodes = (
(13,20,o),
(-49,65,o),
(-49,138,cs),
(-49,208,o),
(14,258,o),
(82,258,cs),
(147,258,o),
(417,264,o),
(493,274,cs),
(757,307,o),
(785,618,o),
(843,944,cs),
(1024,1966,l),
(1298,1966,l),
(1110,912,ls),
(1035,490,o),
(1038,99,o),
(493,33,cs),
(439,25,o),
(173,20,o),
(82,20,cs)
);
}
);
vertWidth = 0;
width = 1512;
}
);
},
{
color = 7;
glyphname = K.ss04;
kernLeft = H;
kernRight = K;
layers = (
{
anchors = (
{
name = bottom;
pos = (718,0);
},
{
name = top;
pos = (1072,2008);
}
);
layerId = m01;
shapes = (
{
closed = 1;
nodes = (
(1357,0,o),
(1401,35,o),
(1401,79,cs),
(1401,106,o),
(1389,128,o),
(1363,163,cs),
(675,1075,l),
(1665,1846,ls),
(1703,1876,o),
(1725,1898,o),
(1725,1942,cs),
(1725,1971,o),
(1701,2008,o),
(1657,2008,cs),
(1628,2008,o),
(1593,1997,o),
(1555,1967,cs),
(568,1191,l),
(695,1901,ls),
(706,1961,o),
(691,2008,o),
(623,2008,cs),
(556,2008,o),
(533,1969,o),
(524,1917,cs),
(202,110,ls),
(193,58,o),
(219,0,o),
(281,0,cs),
(353,0,o),
(369,62,o),
(376,104,cs),
(532,988,l),
(1218,64,ls),
(1242,32,o),
(1270,0,o),
(1316,0,cs)
);
},
{
closed = 1;
nodes = (
(1279,20,o),
(1257,45,o),
(1234,75,cs),
(541,1009,ls),
(523,1034,o),
(520,1033,o),
(516,1008,cs),
(356,107,ls),
(349,66,o),
(338,20,o),
(281,20,cs),
(233,20,o),
(213,63,o),
(221,106,cs),
(543,1914,ls),
(551,1961,o),
(568,1988,o),
(623,1988,cs),
(675,1988,o),
(685,1959,o),
(675,1904,cs),
(546,1178,ls),
(541,1150,o),
(545,1148,o),
(573,1170,cs),
(1567,1952,ls),
(1603,1980,o),
(1632,1988,o),
(1655,1988,cs),
(1689,1988,o),
(1705,1964,o),
(1705,1942,cs),
(1705,1907,o),
(1690,1890,o),
(1653,1861,cs),
(647,1079,l),
(1347,151,ls),
(1372,118,o),
(1381,101,o),
(1381,79,cs),
(1381,46,o),
(1349,20,o),
(1316,20,cs)
);
},
{
closed = 1;
nodes = (
(636,1874,o),
(656,1894,o),
(656,1919,cs),
(656,1944,o),
(636,1964,o),
(611,1964,cs),
(586,1964,o),
(566,1944,o),
(566,1919,cs),
(566,1894,o),
(586,1874,o),
(611,1874,cs)
);
}
);
vertWidth = 0;
width = 1530;
},
{
anchors = (
{
name = bottom;
pos = (770,0);
},
{
name = top;
pos = (1124,2008);
}
);
layerId = "140DECC1-64C4-40C0-9C07-503DBC3F4160";
shapes = (
{
closed = 1;
nodes = (
(1486,-20,o),
(1557,58,o),
(1557,146,cs),
(1557,191,o),
(1541,241,o),
(1518,274,cs),
(968,1056,l),
(1795,1733,ls),
(1843,1772,o),
(1880,1823,o),
(1880,1888,cs),
(1880,1961,o),
(1825,2028,o),
(1722,2028,cs),
(1668,2028,o),
(1602,2010,o),
(1550,1967,cs),
(749,1313,l),
(844,1841,ls),
(869,1979,o),
(769,2028,o),
(687,2028,cs),
(601,2028,o),
(515,1984,o),
(497,1885,cs),
(193,169,ls),
(175,66,o),
(251,-20,o),
(361,-20,cs),
(466,-20,o),
(525,48,o),
(540,134,cs),
(670,865,l),
(1224,67,ls),
(1262,13,o),
(1328,-20,o),
(1391,-20,cs)
);
},
{
closed = 1;
nodes = (
(1339,20,o),
(1288,45,o),
(1258,89,cs),
(691,905,ls),
(656,955,o),
(645,952,o),
(635,895,cs),
(500,142,ls),
(487,69,o),
(446,20,o),
(361,20,cs),
(272,20,o),
(218,81,o),
(233,163,cs),
(537,1877,ls),
(551,1956,o),
(613,1988,o),
(687,1988,cs),
(757,1988,o),
(823,1955,o),
(804,1847,cs),
(704,1286,ls),
(693,1227,o),
(699,1219,o),
(762,1271,cs),
(1576,1935,ls),
(1621,1972,o),
(1675,1988,o),
(1722,1988,cs),
(1804,1988,o),
(1840,1944,o),
(1840,1888,cs),
(1840,1838,o),
(1813,1799,o),
(1769,1763,cs),
(914,1064,l),
(1484,252,ls),
(1504,223,o),
(1517,183,o),
(1517,146,cs),
(1517,76,o),
(1466,20,o),
(1391,20,cs)
);
},
{
closed = 1;
nodes = (
(702,1819,o),
(729,1846,o),
(729,1879,cs),
(729,1912,o),
(702,1939,o),
(669,1939,cs),
(636,1939,o),
(609,1912,o),
(609,1879,cs),
(609,1846,o),
(636,1819,o),
(669,1819,cs)
);
}
);
vertWidth = 0;
width = 1680;
}
);
metricLeft = K;
metricRight = K;
},
{
color = 7;
glyphname = L.ss04;
kernLeft = H;
kernRight = L;
layers = (
{
anchors = (
{
name = bottom;
pos = (723,0);
},
{
name = center;
pos = (900,1004);
},
{
name = top;
pos = (1077,2008);
},
{
name = topright;
pos = (1781,2008);
}
);
layerId = m01;
shapes = (
{
closed = 1;
nodes = (
(1312,0,ls),
(1375,0,o),
(1401,50,o),
(1401,90,cs),
(1401,132,o),
(1373,162,o),
(1312,162,cs),
(388,162,l),
(696,1901,ls),
(706,1960,o),
(695,2008,o),
(624,2008,cs),
(556,2008,o),
(530,1969,o),
(521,1918,cs),
(202,94,ls),
(193,42,o),
(221,0,o),
(281,0,cs)
);
},
{
closed = 1;
nodes = (
(233,20,o),
(215,48,o),
(222,90,cs),
(540,1914,ls),
(548,1962,o),
(568,1988,o),
(624,1988,cs),
(678,1988,o),
(686,1959,o),
(676,1904,cs),
(364,142,l),
(1312,142,ls),
(1364,142,o),
(1381,122,o),
(1381,90,cs),
(1381,56,o),
(1362,20,o),
(1312,20,cs),
(281,20,ls)
);
},
{
closed = 1;
nodes = (
(638,1874,o),
(658,1894,o),
(658,1919,cs),
(658,1944,o),
(638,1964,o),
(613,1964,cs),
(588,1964,o),
(568,1944,o),
(568,1919,cs),
(568,1894,o),
(588,1874,o),
(613,1874,cs)
);
}
);
vertWidth = 0;
width = 1491;
},
{
anchors = (
{
name = bottom;
pos = (780,0);
},
{
name = center;
pos = (957,1004);
},
{
name = top;
pos = (1134,2008);
},
{
name = topright;
pos = (1913,2008);
}
);
layerId = "140DECC1-64C4-40C0-9C07-503DBC3F4160";
shapes = (
{
closed = 1;
nodes = (
(1415,-20,ls),
(1519,-20,o),
(1591,58,o),
(1591,143,cs),
(1591,227,o),
(1519,298,o),
(1415,298,cs),
(575,298,l),
(850,1841,ls),
(876,1987,o),
(785,2028,o),
(700,2028,cs),
(601,2028,o),
(518,1984,o),
(500,1885,cs),
(193,154,ls),
(176,56,o),
(243,-20,o),
(346,-20,cs)
);
},
{
closed = 1;
nodes = (
(264,20,o),
(219,71,o),
(233,148,cs),
(540,1877,ls),
(554,1956,o),
(613,1988,o),
(700,1988,cs),
(774,1988,o),
(830,1962,o),
(810,1847,cs),
(527,258,l),
(1415,258,ls),
(1500,258,o),
(1551,208,o),
(1551,143,cs),
(1551,76,o),
(1499,20,o),
(1415,20,cs),
(346,20,ls)
);
},
{
closed = 1;
nodes = (
(710,1819,o),
(737,1846,o),
(737,1879,cs),
(737,1912,o),
(710,1939,o),
(677,1939,cs),
(644,1939,o),
(617,1912,o),
(617,1879,cs),
(617,1846,o),
(644,1819,o),
(677,1819,cs)
);
}
);
vertWidth = 0;
width = 1621;
}
);
metricLeft = L;
metricRight = L;
},
{
color = 7;
glyphname = M.ss04;
kernLeft = M;
kernRight = M;
layers = (
{
anchors = (
{
name = bottom;
pos = (1204,0);
},
{
name = top;
pos = (1558,2008);
}
);
layerId = m01;
shapes = (
{
closed = 1;
nodes = (
(113,0,o),
(156,25,o),
(186,83,cs),
(1002,1664,l),
(1120,83,ls),
(1122,51,o),
(1138,0,o),
(1215,0,cs),
(1281,0,o),
(1307,57,o),
(1319,80,cs),
(2140,1669,l),
(2261,84,ls),
(2264,51,o),
(2281,0,o),
(2354,0,cs),
(2409,0,o),
(2437,39,o),
(2433,91,cs),
(2283,1913,ls),
(2279,1965,o),
(2268,2008,o),
(2196,2008,cs),
(2123,2008,o),
(2102,1956,o),
(2084,1922,cs),
(1265,329,l),
(1143,1943,ls),
(1141,1968,o),
(1119,2008,o),
(1056,2008,cs),
(998,2008,o),
(975,1969,o),
(954,1928,cs),
(16,130,ls),
(-25,51,o),
(22,0,o),
(78,0,cs)
);
},
{
closed = 1;
nodes = (
(32,20,o),
(0,56,o),
(34,121,cs),
(971,1919,ls),
(992,1959,o),
(1010,1988,o),
(1056,1988,cs),
(1106,1988,o),
(1121,1961,o),
(1123,1941,cs),
(1246,310,ls),
(1249,268,o),
(1256,269,o),
(1276,308,cs),
(2102,1913,ls),
(2120,1947,o),
(2136,1988,o),
(2196,1988,cs),
(2253,1988,o),
(2259,1961,o),
(2263,1912,cs),
(2413,89,ls),
(2416,47,o),
(2397,20,o),
(2354,20,cs),
(2296,20,o),
(2283,56,o),
(2281,85,cs),
(2159,1689,ls),
(2156,1729,o),
(2151,1732,o),
(2129,1690,cs),
(1301,89,ls),
(1289,66,o),
(1268,20,o),
(1215,20,cs),
(1153,20,o),
(1142,55,o),
(1140,85,cs),
(1020,1683,ls),
(1017,1719,o),
(1008,1721,o),
(986,1678,cs),
(169,92,ls),
(142,39,o),
(108,20,o),
(78,20,cs)
);
},
{
closed = 1;
nodes = (
(110,38,o),
(130,58,o),
(130,83,cs),
(130,108,o),
(110,128,o),
(85,128,cs),
(60,128,o),
(40,108,o),
(40,83,cs),
(40,58,o),
(60,38,o),
(85,38,cs)
);
}
);
vertWidth = 0;
width = 2633;
},
{
anchors = (
{
name = bottom;
pos = (1259,0);
},
{
name = top;
pos = (1613,2008);
}
);
layerId = "140DECC1-64C4-40C0-9C07-503DBC3F4160";
shapes = (
{
closed = 1;
nodes = (
(260,-20,o),
(354,11,o),
(395,92,cs),
(1011,1300,l),
(1101,123,ls),
(1107,44,o),
(1170,-20,o),
(1274,-20,cs),
(1409,-20,o),
(1445,50,o),
(1464,87,cs),
(2090,1303,l),
(2175,124,ls),
(2180,48,o),
(2255,-20,o),
(2361,-20,cs),
(2461,-20,o),
(2530,52,o),
(2522,145,cs),
(2381,1875,ls),
(2373,1968,o),
(2350,2028,o),
(2226,2028,cs),
(2127,2028,o),
(2067,1987,o),
(2029,1913,cs),
(1392,681,l),
(1305,1874,ls),
(1298,1971,o),
(1255,2028,o),
(1116,2028,cs),
(1021,2028,o),
(988,1984,o),
(952,1916,cs),
(60,207,ls),
(-2,88,o),
(92,-20,o),
(197,-20,cs)
);
},
{
closed = 1;
nodes = (
(115,20,o),
(47,95,o),
(96,189,cs),
(988,1898,ls),
(1021,1961,o),
(1042,1988,o),
(1116,1988,cs),
(1233,1988,o),
(1259,1954,o),
(1265,1872,cs),
(1355,634,ls),
(1361,552,o),
(1369,552,o),
(1412,634,cs),
(2065,1895,ls),
(2097,1957,o),
(2141,1988,o),
(2226,1988,cs),
(2322,1988,o),
(2334,1956,o),
(2341,1871,cs),
(2482,141,ls),
(2488,69,o),
(2442,20,o),
(2361,20,cs),
(2273,20,o),
(2219,69,o),
(2215,126,cs),
(2126,1363,ls),
(2121,1437,o),
(2115,1437,o),
(2074,1358,cs),
(1428,105,ls),
(1410,69,o),
(1384,20,o),
(1274,20,cs),
(1190,20,o),
(1146,64,o),
(1141,127,cs),
(1048,1354,ls),
(1042,1433,o),
(1035,1432,o),
(995,1354,cs),
(359,110,ls),
(326,45,o),
(252,20,o),
(197,20,cs)
);
},
{
closed = 1;
nodes = (
(236,70,o),
(263,97,o),
(263,130,cs),
(263,163,o),
(236,190,o),
(203,190,cs),
(170,190,o),
(143,163,o),
(143,130,cs),
(143,97,o),
(170,70,o),
(203,70,cs)
);
}
);
vertWidth = 0;
width = 2688;
}
);
metricLeft = M;
metricRight = M;
},
{
color = 7;
glyphname = N.ss04;
kernLeft = H;
kernRight = H;
layers = (
{
anchors = (
{
name = bottom;
pos = (786,0);
},
{
name = top;
pos = (1140,2008);
}
);
layerId = m01;
shapes = (
{
closed = 1;
nodes = (
(356,0,o),
(369,56,o),
(376,94,cs),
(648,1646,l),
(1227,61,ls),
(1239,29,o),
(1270,0,o),
(1318,0,cs),
(1391,0,o),
(1398,55,o),
(1403,86,cs),
(1722,1901,ls),
(1732,1960,o),
(1721,2008,o),
(1653,2008,cs),
(1588,2008,o),
(1562,1969,o),
(1553,1917,cs),
(1282,388,l),
(726,1940,ls),
(715,1970,o),
(680,2008,o),
(620,2008,cs),
(549,2008,o),
(530,1968,o),
(521,1918,cs),
(202,94,ls),
(193,42,o),
(221,0,o),
(281,0,cs)
);
},
{
closed = 1;
nodes = (
(232,20,o),
(214,48,o),
(221,90,cs),
(540,1914,ls),
(548,1962,o),
(563,1988,o),
(620,1988,cs),
(671,1988,o),
(698,1959,o),
(707,1933,cs),
(1272,356,ls),
(1284,322,o),
(1290,322,o),
(1296,356,cs),
(1573,1914,ls),
(1581,1960,o),
(1600,1988,o),
(1653,1988,cs),
(1704,1988,o),
(1713,1959,o),
(1703,1904,cs),
(1384,89,ls),
(1379,58,o),
(1374,20,o),
(1318,20,cs),
(1279,20,o),
(1256,41,o),
(1246,68,cs),
(658,1676,ls),
(645,1712,o),
(639,1712,o),
(633,1676,cs),
(356,97,ls),
(350,60,o),
(341,20,o),
(281,20,cs)
);
},
{
closed = 1;
nodes = (
(310,38,o),
(330,58,o),
(330,83,cs),
(330,108,o),
(310,128,o),
(285,128,cs),
(260,128,o),
(240,108,o),
(240,83,cs),
(240,58,o),
(260,38,o),
(285,38,cs)
);
}
);
vertWidth = 0;
width = 1765;
},
{
anchors = (
{
name = bottom;
pos = (856,0);
},
{
name = top;
pos = (1210,2008);
}
);
layerId = "140DECC1-64C4-40C0-9C07-503DBC3F4160";
shapes = (
{
closed = 1;
nodes = (
(459,-20,o),
(529,48,o),
(542,127,cs),
(734,1290,l),
(1243,78,ls),
(1270,15,o),
(1323,-20,o),
(1409,-20,cs),
(1527,-20,o),
(1563,52,o),
(1575,121,cs),
(1877,1840,ls),
(1896,1950,o),
(1839,2038,o),
(1724,2038,cs),
(1629,2038,o),
(1548,1983,o),
(1532,1884,cs),
(1339,710,l),
(829,1925,ls),
(798,2000,o),
(735,2028,o),
(665,2028,cs),
(578,2028,o),
(517,1979,o),
(500,1884,cs),
(193,155,ls),
(175,56,o),
(245,-20,o),
(345,-20,cs)
);
},
{
closed = 1;
nodes = (
(266,20,o),
(220,71,o),
(233,147,cs),
(540,1878,ls),
(554,1955,o),
(594,1988,o),
(665,1988,cs),
(723,1988,o),
(768,1968,o),
(793,1909,cs),
(1319,652,ls),
(1351,576,o),
(1357,576,o),
(1370,657,cs),
(1572,1878,ls),
(1585,1957,o),
(1644,1998,o),
(1724,1998,cs),
(1814,1998,o),
(1853,1939,o),
(1837,1848,cs),
(1535,129,ls),
(1524,66,o),
(1500,20,o),
(1409,20,cs),
(1337,20,o),
(1300,43,o),
(1279,94,cs),
(754,1348,ls),
(723,1422,o),
(716,1421,o),
(703,1344,cs),
(502,133,ls),
(492,70,o),
(441,20,o),
(345,20,cs)
);
},
{
closed = 1;
nodes = (
(392,70,o),
(419,97,o),
(419,130,cs),
(419,163,o),
(392,190,o),
(359,190,cs),
(326,190,o),
(299,163,o),
(299,130,cs),
(299,97,o),
(326,70,o),
(359,70,cs)
);
}
);
vertWidth = 0;
width = 1931;
}
);
metricLeft = N;
metricRight = N;
},
{
color = 7;
glyphname = O.ss04;
kernLeft = O;
kernRight = O;
layers = (
{
anchors = (
{
name = bottom;
pos = (752,0);
},
{
name = center;
pos = (929,1004);
},
{
name = ogonek;
pos = (1408,10);
},
{
name = top;
pos = (1106,2008);
},
{
name = topleft;
pos = (307,2008);
},
{
name = topright;
pos = (1905,2008);
}
);
layerId = m01;
shapes = (
{
closed = 1;
nodes = (
(1337,0,o),
(1575,790,o),
(1646,1192,cs),
(1737,1700,o),
(1571,2008,o),
(1128,2008,cs),
(578,2008,o),
(342,1443,o),
(269,1019,cs),
(184,519,o),
(267,0,o),
(805,0,cs)
);
},
{
closed = 1;
nodes = (
(284,20,o),
(204,520,o),
(289,1015,cs),
(361,1437,o),
(591,1988,o),
(1128,1988,cs),
(1558,1988,o),
(1716,1695,o),
(1626,1196,cs),
(1556,795,o),
(1322,20,o),
(805,20,cs)
);
},
{
closed = 1;
nodes = (
(374,627,o),
(404,162,o),
(802,162,cs),
(1150,162,o),
(1415,842,o),
(1474,1178,cs),
(1536,1524,o),
(1511,1849,o),
(1113,1849,cs),
(675,1849,o),
(486,1249,o),
(438,984,cs)
);
},
{
closed = 1;
nodes = (
(467,1254,o),
(660,1869,o),
(1113,1869,cs),
(1530,1869,o),
(1556,1524,o),
(1493,1175,cs),
(1434,836,o),
(1165,142,o),
(802,142,cs),
(385,142,o),
(354,628,o),
(419,988,cs)
);
},
{
closed = 1;
nodes = (
(1473,1779,o),
(1493,1799,o),
(1493,1824,cs),
(1493,1849,o),
(1473,1869,o),
(1448,1869,cs),
(1423,1869,o),
(1403,1849,o),
(1403,1824,cs),
(1403,1799,o),
(1423,1779,o),
(1448,1779,cs)
);
}
);
vertWidth = 0;
width = 1690;
},
{
anchors = (
{
name = bottom;
pos = (809,0);
},
{
name = center;
pos = (986,1004);
},
{
name = ogonek;
pos = (1538,10);
},
{
name = top;
pos = (1163,2008);
},
{
name = topleft;
pos = (273,2008);
},
{
name = topright;
pos = (2053,2008);
}
);
layerId = "140DECC1-64C4-40C0-9C07-503DBC3F4160";
shapes = (
{
closed = 1;
nodes = (
(1335,-20,o),
(1689,447,o),
(1822,1193,cs),
(1911,1710,o),
(1741,2028,o),
(1211,2028,cs),
(696,2028,o),
(374,1687,o),
(255,1020,cs),
(143,382,o),
(383,-20,o),
(883,-20,cs)
);
},
{
closed = 1;
nodes = (
(408,20,o),
(186,394,o),
(295,1014,cs),
(411,1666,o),
(716,1988,o),
(1211,1988,cs),
(1714,1988,o),
(1869,1701,o),
(1782,1199,cs),
(1652,466,o),
(1313,20,o),
(883,20,cs)
);
},
{
closed = 1;
nodes = (
(525,548,o),
(631,298,o),
(881,298,cs),
(1151,298,o),
(1377,630,o),
(1472,1181,cs),
(1534,1529,o),
(1510,1710,o),
(1195,1710,cs),
(885,1710,o),
(689,1471,o),
(599,983,cs)
);
},
{
closed = 1;
nodes = (
(652,1491,o),
(864,1750,o),
(1195,1750,cs),
(1546,1750,o),
(1575,1532,o),
(1512,1175,cs),
(1415,612,o),
(1175,258,o),
(881,258,cs),
(603,258,o),
(483,540,o),
(559,989,cs)
);
},
{
closed = 1;
nodes = (
(1550,1735,o),
(1577,1762,o),
(1577,1795,cs),
(1577,1828,o),
(1550,1855,o),
(1517,1855,cs),
(1484,1855,o),
(1457,1828,o),
(1457,1795,cs),
(1457,1762,o),
(1484,1735,o),
(1517,1735,cs)
);
}
);
vertWidth = 0;
width = 1813;
}
);
metricLeft = O;
metricRight = O;
},
{
color = 7;
glyphname = P.ss04;
kernLeft = H;
kernRight = P;
layers = (
{
anchors = (
{
name = bottom;
pos = (698,0);
},
{
name = top;
pos = (1052,2008);
}
);
layerId = m01;
shapes = (
{
closed = 1;
nodes = (
(357,0,o),
(368,55,o),
(373,86,cs),
(535,999,l),
(1137,1004,o),
(1597,1071,o),
(1653,1493,cs),
(1700,1846,o),
(1288,2008,o),
(627,2008,cs),
(553,2008,o),
(533,1969,o),
(524,1918,cs),
(202,94,ls),
(193,42,o),
(221,0,o),
(282,0,cs)
);
},
{
closed = 1;
nodes = (
(233,20,o),
(215,48,o),
(222,90,cs),
(544,1914,ls),
(552,1961,o),
(566,1988,o),
(627,1988,cs),
(1282,1988,o),
(1677,1832,o),
(1633,1496,cs),
(1579,1085,o),
(1126,1023,o),
(519,1018,c),
(354,89,ls),
(349,58,o),
(341,20,o),
(282,20,cs)
);
},
{
closed = 1;
nodes = (
(1053,1167,o),
(1447,1230,o),
(1482,1512,cs),
(1506,1706,o),
(1281,1840,o),
(685,1849,c),
(564,1160,l)
);
},
{
closed = 1;
nodes = (
(668,1869,l),
(1284,1863,o),
(1526,1720,o),
(1500,1509,cs),
(1464,1206,o),
(1042,1145,o),
(540,1140,c)
);
},
{
closed = 1;
nodes = (
(642,1874,o),
(662,1894,o),
(662,1919,cs),
(662,1944,o),
(642,1964,o),
(617,1964,cs),
(592,1964,o),
(572,1944,o),
(572,1919,cs),
(572,1894,o),
(592,1874,o),
(617,1874,cs)
);
}
);
vertWidth = 0;
width = 1597;
},
{
anchors = (
{
name = bottom;
pos = (794,0);
},
{
name = top;
pos = (1148,2008);
}
);
layerId = "140DECC1-64C4-40C0-9C07-503DBC3F4160";
shapes = (
{
closed = 1;
nodes = (
(474,-20,o),
(532,41,o),
(545,116,cs),
(681,893,l),
(1226,907,o),
(1735,920,o),
(1809,1441,cs),
(1871,1875,o),
(1446,2028,o),
(683,2028,cs),
(581,2028,o),
(516,1983,o),
(499,1885,cs),
(193,152,ls),
(176,56,o),
(245,-20,o),
(358,-20,cs)
);
},
{
closed = 1;
nodes = (
(266,20,o),
(220,71,o),
(233,144,cs),
(539,1877,ls),
(553,1957,o),
(596,1988,o),
(683,1988,cs),
(1436,1988,o),
(1827,1847,o),
(1769,1447,cs),
(1699,946,o),
(1201,944,o),
(647,933,c),
(505,124,ls),
(494,61,o),
(452,20,o),
(358,20,cs)
);
},
{
closed = 1;
nodes = (
(1135,1229,o),
(1442,1231,o),
(1470,1461,cs),
(1492,1638,o),
(1424,1716,o),
(826,1717,c),
(737,1213,l)
);
},
{
closed = 1;
nodes = (
(792,1757,l),
(1445,1759,o),
(1535,1658,o),
(1510,1457,cs),
(1477,1186,o),
(1114,1183,o),
(689,1171,c)
);
},
{
closed = 1;
nodes = (
(685,1819,o),
(712,1846,o),
(712,1879,cs),
(712,1912,o),
(685,1939,o),
(652,1939,cs),
(619,1939,o),
(592,1912,o),
(592,1879,cs),
(592,1846,o),
(619,1819,o),
(652,1819,cs)
);
}
);
vertWidth = 0;
width = 1696;
}
);
metricLeft = P;
metricRight = P;
},
{
color = 7;
glyphname = Q.ss04;
kernLeft = O;
kernRight = Q;
layers = (
{
anchors = (
{
name = bottom;
pos = (723,0);
},
{
name = top;
pos = (1077,2008);
}
);
layerId = m01;
shapes = (
{
closed = 1;
nodes = (
(859,-1,o),
(937,19,o),
(1006,53,c),
(1168,-182,ls),
(1202,-231,o),
(1256,-261,o),
(1300,-234,cs),
(1350,-207,o),
(1350,-141,o),
(1321,-101,cs),
(1148,151,l),
(1425,400,o),
(1566,898,o),
(1617,1191,cs),
(1708,1699,o),
(1542,2007,o),
(1099,2007,cs),
(549,2007,o),
(313,1442,o),
(240,1017,cs),
(155,518,o),
(238,-1,o),
(776,-1,cs)
);
},
{
closed = 1;
nodes = (
(255,19,o),
(175,519,o),
(260,1014,cs),
(332,1436,o),
(562,1987,o),
(1099,1987,cs),
(1529,1987,o),
(1687,1694,o),
(1597,1195,cs),
(1546,898,o),
(1403,395,o),
(1122,154,c),
(1305,-113,ls),
(1329,-146,o),
(1329,-196,o),
(1290,-217,cs),
(1256,-237,o),
(1215,-215,o),
(1185,-171,cs),
(1012,79,l),
(941,40,o),
(862,19,o),
(776,19,cs)
);
},
{
closed = 1;
nodes = (
(345,626,o),
(375,160,o),
(773,160,cs),
(820,160,o),
(865,173,o),
(909,195,c),
(850,281,ls),
(814,333,o),
(808,376,o),
(848,408,cs),
(897,448,o),
(958,426,o),
(992,378,cs),
(1045,301,l),
(1255,519,o),
(1403,937,o),
(1445,1177,cs),
(1507,1523,o),
(1482,1848,o),
(1084,1848,cs),
(646,1848,o),
(457,1248,o),
(409,983,cs)
);
},
{
closed = 1;
nodes = (
(438,1253,o),
(631,1868,o),
(1084,1868,cs),
(1501,1868,o),
(1527,1523,o),
(1464,1173,cs),
(1421,926,o),
(1264,486,o),
(1042,270,c),
(975,366,ls),
(946,408,o),
(900,425,o),
(861,392,cs),
(830,368,o),
(834,339,o),
(866,293,cs),
(937,189,l),
(886,158,o),
(830,140,o),
(773,140,cs),
(356,140,o),
(325,626,o),
(390,987,cs)
);
},
{
closed = 1;
nodes = (
(1444,1779,o),
(1464,1799,o),
(1464,1824,cs),
(1464,1849,o),
(1444,1869,o),
(1419,1869,cs),
(1394,1869,o),
(1374,1849,o),
(1374,1824,cs),
(1374,1799,o),
(1394,1779,o),
(1419,1779,cs)
);
}
);
vertWidth = 0;
width = 1634;
},
{
anchors = (
{
name = bottom;
pos = (815,0);
},
{
name = top;
pos = (1169,2008);
}
);
layerId = "140DECC1-64C4-40C0-9C07-503DBC3F4160";
shapes = (
{
closed = 1;
nodes = (
(955,-20,o),
(1020,-10,o),
(1082,9,c),
(1200,-164,ls),
(1261,-256,o),
(1369,-286,o),
(1447,-235,cs),
(1526,-185,o),
(1544,-84,o),
(1489,-2,cs),
(1365,181,l),
(1583,385,o),
(1747,737,o),
(1828,1193,cs),
(1917,1710,o),
(1747,2028,o),
(1217,2028,cs),
(702,2028,o),
(380,1687,o),
(261,1020,cs),
(149,382,o),
(389,-20,o),
(889,-20,cs)
);
},
{
closed = 1;
nodes = (
(414,20,o),
(192,394,o),
(301,1014,cs),
(417,1666,o),
(722,1988,o),
(1217,1988,cs),
(1720,1988,o),
(1875,1701,o),
(1788,1199,cs),
(1705,732,o),
(1537,382,o),
(1313,187,c),
(1455,-24,ls),
(1500,-91,o),
(1488,-162,o),
(1425,-201,cs),
(1365,-241,o),
(1285,-220,o),
(1234,-142,cs),
(1098,57,l),
(1030,32,o),
(961,20,o),
(889,20,cs)
);
},
{
closed = 1;
nodes = (
(531,548,o),
(637,298,o),
(887,298,cs),
(886,298,o),
(886,298,o),
(885,298,c),
(876,312,ls),
(821,392,o),
(835,499,o),
(911,552,cs),
(989,608,o),
(1098,579,o),
(1159,487,cs),
(1183,451,l),
(1317,601,o),
(1421,851,o),
(1478,1181,cs),
(1540,1529,o),
(1516,1710,o),
(1201,1710,cs),
(891,1710,o),
(695,1471,o),
(605,983,cs)
);
},
{
closed = 1;
nodes = (
(658,1491,o),
(870,1750,o),
(1201,1750,cs),
(1552,1750,o),
(1581,1532,o),
(1518,1175,cs),
(1455,812,o),
(1333,537,o),
(1178,388,c),
(1125,465,ls),
(1074,542,o),
(995,563,o),
(935,520,cs),
(875,478,o),
(864,400,o),
(908,334,cs),
(959,262,l),
(933,262,o),
(912,258,o),
(887,258,cs),
(609,258,o),
(489,540,o),
(565,989,cs)
);
},
{
closed = 1;
nodes = (
(1556,1735,o),
(1583,1762,o),
(1583,1795,cs),
(1583,1828,o),
(1556,1855,o),
(1523,1855,cs),
(1490,1855,o),
(1463,1828,o),
(1463,1795,cs),
(1463,1762,o),
(1490,1735,o),
(1523,1735,cs)
);
}
);
vertWidth = 0;
width = 1819;
}
);
metricLeft = Q;
metricRight = Q;
},
{
color = 7;
glyphname = R.ss04;
kernLeft = H;
kernRight = R;
layers = (
{
anchors = (
{
name = bottom;
pos = (708,0);
},
{
name = top;
pos = (1062,2008);
}
);
layerId = m01;
shapes = (
{
closed = 1;
nodes = (
(354,0,o),
(365,56,o),
(373,103,cs),
(525,956,l),
(1232,58,ls),
(1265,16,o),
(1298,0,o),
(1325,0,cs),
(1398,0,o),
(1429,80,o),
(1360,168,cs),
(705,1002,l),
(1206,1022,o),
(1601,1119,o),
(1650,1492,cs),
(1696,1845,o),
(1296,2008,o),
(624,2008,cs),
(550,2008,o),
(530,1969,o),
(521,1918,cs),
(202,112,ls),
(192,56,o),
(217,0,o),
(279,0,cs)
);
},
{
closed = 1;
nodes = (
(231,20,o),
(214,60,o),
(222,108,cs),
(541,1914,ls),
(549,1961,o),
(563,1988,o),
(624,1988,cs),
(1289,1988,o),
(1673,1832,o),
(1630,1496,cs),
(1583,1132,o),
(1197,1041,o),
(694,1022,cs),
(669,1021,o),
(667,1015,o),
(681,997,cs),
(1345,155,ls),
(1405,79,o),
(1383,20,o),
(1325,20,cs),
(1304,20,o),
(1277,33,o),
(1247,71,cs),
(535,971,ls),
(514,997,o),
(511,995,o),
(506,966,cs),
(354,107,ls),
(346,61,o),
(338,20,o),
(279,20,cs)
);
},
{
closed = 1;
nodes = (
(1047,1167,o),
(1442,1234,o),
(1479,1511,cs),
(1505,1710,o),
(1240,1840,o),
(682,1849,c),
(561,1160,l)
);
},
{
closed = 1;
nodes = (
(665,1869,l),
(1242,1863,o),
(1526,1725,o),
(1498,1508,cs),
(1459,1210,o),
(1036,1145,o),
(537,1140,c)
);
},
{
closed = 1;
nodes = (
(639,1874,o),
(659,1894,o),
(659,1919,cs),
(659,1944,o),
(639,1964,o),
(614,1964,cs),
(589,1964,o),
(569,1944,o),
(569,1919,cs),
(569,1894,o),
(589,1874,o),
(614,1874,cs)
);
}
);
vertWidth = 0;
width = 1654;
},
{
anchors = (
{
name = bottom;
pos = (770,0);
},
{
name = top;
pos = (1124,2008);
}
);
layerId = "140DECC1-64C4-40C0-9C07-503DBC3F4160";
shapes = (
{
closed = 1;
nodes = (
(439,-20,o),
(528,57,o),
(546,161,cs),
(659,806,l),
(1234,57,ls),
(1288,-14,o),
(1366,-20,o),
(1407,-20,cs),
(1522,-20,o),
(1628,120,o),
(1498,289,cs),
(1019,914,l),
(1422,963,o),
(1745,1105,o),
(1811,1473,cs),
(1883,1876,o),
(1442,2028,o),
(684,2028,cs),
(580,2028,o),
(512,1983,o),
(495,1885,cs),
(194,169,ls),
(177,70,o),
(219,-20,o),
(333,-20,cs)
);
},
{
closed = 1;
nodes = (
(247,20,o),
(219,78,o),
(234,163,cs),
(535,1877,ls),
(549,1957,o),
(594,1988,o),
(684,1988,cs),
(1433,1988,o),
(1836,1848,o),
(1771,1481,cs),
(1708,1124,o),
(1395,996,o),
(988,951,cs),
(946,946,o),
(942,940,o),
(973,901,cs),
(1468,263,ls),
(1578,121,o),
(1497,20,o),
(1407,20,cs),
(1370,20,o),
(1308,26,o),
(1264,83,cs),
(681,839,ls),
(640,892,o),
(636,888,o),
(626,834,cs),
(508,167,ls),
(493,80,o),
(422,20,o),
(333,20,cs)
);
},
{
closed = 1;
nodes = (
(1139,1228,o),
(1439,1301,o),
(1471,1487,cs),
(1495,1630,o),
(1351,1710,o),
(821,1710,c),
(733,1213,l)
);
},
{
closed = 1;
nodes = (
(787,1750,l),
(1359,1754,o),
(1542,1659,o),
(1511,1481,cs),
(1472,1257,o),
(1120,1182,o),
(685,1171,c)
);
},
{
closed = 1;
nodes = (
(681,1819,o),
(708,1846,o),
(708,1879,cs),
(708,1912,o),
(681,1939,o),
(648,1939,cs),
(615,1939,o),
(588,1912,o),
(588,1879,cs),
(588,1846,o),
(615,1819,o),
(648,1819,cs)
);
}
);
vertWidth = 0;
width = 1719;
}
);
metricLeft = R;
metricRight = R;
},
{
color = 7;
glyphname = S.ss04;
kernLeft = S;
kernRight = S;
layers = (
{
anchors = (
{
name = bottom;
pos = (453,0);
},
{
name = top;
pos = (807,2008);
}
);
layerId = m01;
shapes = (
{
closed = 1;
nodes = (
(785,-20,o),
(1092,251,o),
(1092,564,cs),
(1092,821,o),
(943,1001,o),
(747,1129,cs),
(652,1191,ls),
(445,1326,o),
(363,1424,o),
(363,1545,cs),
(363,1775,o),
(613,1848,o),
(939,1848,cs),
(1204,1848,ls),
(1248,1848,o),
(1284,1878,o),
(1284,1930,cs),
(1284,2008,o),
(1212,2008,o),
(1201,2008,cs),
(915,2008,ls),
(468,2008,o),
(182,1833,o),
(182,1535,cs),
(182,1372,o),
(299,1213,o),
(498,1079,cs),
(595,1014,ls),
(780,890,o),
(913,755,o),
(913,562,cs),
(913,330,o),
(693,143,o),
(268,143,cs),
(2,143,ls),
(-44,143,o),
(-83,110,o),
(-83,58,cs),
(-83,-20,o),
(-5,-20,o),
(2,-20,cs),
(249,-20,ls)
);
},
{
closed = 1;
nodes = (
(2,0,ls),
(-5,0,o),
(-63,0,o),
(-63,58,cs),
(-63,99,o),
(-35,123,o),
(2,123,cs),
(268,123,ls),
(702,123,o),
(933,319,o),
(933,562,cs),
(933,764,o),
(792,906,o),
(607,1030,cs),
(510,1095,ls),
(314,1227,o),
(202,1379,o),
(202,1535,cs),
(202,1821,o),
(474,1988,o),
(915,1988,cs),
(1201,1988,ls),
(1212,1988,o),
(1264,1988,o),
(1264,1930,cs),
(1264,1889,o),
(1239,1868,o),
(1204,1868,cs),
(939,1868,ls),
(608,1868,o),
(343,1790,o),
(343,1545,cs),
(343,1416,o),
(433,1314,o),
(642,1175,cs),
(735,1113,ls),
(928,984,o),
(1072,813,o),
(1072,564,cs),
(1072,262,o),
(776,0,o),
(249,0,cs)
);
},
{
closed = 1;
nodes = (
(1223,1889,o),
(1240,1906,o),
(1240,1928,cs),
(1240,1950,o),
(1223,1967,o),
(1201,1967,cs),
(1179,1967,o),
(1162,1950,o),
(1162,1928,cs),
(1162,1906,o),
(1179,1889,o),
(1201,1889,cs)
);
}
);
vertWidth = 0;
width = 1095;
},
{
anchors = (
{
name = bottom;
pos = (544,0);
},
{
name = top;
pos = (898,2008);
}
);
layerId = "140DECC1-64C4-40C0-9C07-503DBC3F4160";
shapes = (
{
closed = 1;
nodes = (
(724,-20,o),
(1271,137,o),
(1271,593,cs),
(1271,884,o),
(1053,1040,o),
(862,1186,cs),
(803,1231,ls),
(619,1371,o),
(525,1430,o),
(525,1506,cs),
(525,1615,o),
(727,1687,o),
(928,1687,cs),
(1339,1687,ls),
(1431,1687,o),
(1505,1761,o),
(1505,1850,cs),
(1505,1978,o),
(1396,2008,o),
(1337,2008,cs),
(931,2008,ls),
(509,2008,o),
(178,1789,o),
(178,1493,cs),
(178,1258,o),
(376,1132,o),
(584,985,cs),
(649,939,ls),
(843,802,o),
(921,718,o),
(921,593,cs),
(921,372,o),
(591,301,o),
(413,301,cs),
(99,301,ls),
(7,301,o),
(-69,224,o),
(-69,135,cs),
(-69,10,o),
(50,-20,o),
(99,-20,cs),
(413,-20,ls)
);
},
{
closed = 1;
nodes = (
(99,20,ls),
(57,20,o),
(-29,42,o),
(-29,135,cs),
(-29,205,o),
(26,261,o),
(99,261,cs),
(413,261,ls),
(598,261,o),
(961,339,o),
(961,593,cs),
(961,735,o),
(870,831,o),
(673,971,cs),
(608,1017,ls),
(397,1166,o),
(218,1280,o),
(218,1493,cs),
(218,1766,o),
(524,1968,o),
(931,1968,cs),
(1337,1968,ls),
(1388,1968,o),
(1465,1947,o),
(1465,1850,cs),
(1465,1780,o),
(1412,1727,o),
(1339,1727,cs),
(928,1727,ls),
(716,1727,o),
(485,1644,o),
(485,1506,cs),
(485,1409,o),
(594,1340,o),
(779,1199,cs),
(838,1154,ls),
(1029,1008,o),
(1231,864,o),
(1231,593,cs),
(1231,168,o),
(715,20,o),
(413,20,cs)
);
},
{
closed = 1;
nodes = (
(1370,1792,o),
(1397,1819,o),
(1397,1852,cs),
(1397,1885,o),
(1370,1912,o),
(1337,1912,cs),
(1304,1912,o),
(1277,1885,o),
(1277,1852,cs),
(1277,1819,o),
(1304,1792,o),
(1337,1792,cs)
);
}
);
vertWidth = 0;
width = 1277;
},
{
associatedMasterId = m01;
layerId = "A440414B-586A-40A5-AE6A-EB7CED442D21";
name = background;
shapes = (
{
closed = 1;
nodes = (
(235,0,o),
(412,59,o),
(412,219,cs),
(412,320,o),
(359,378,o),
(274,437,cs),
(187,498,o),
(133,537,o),
(133,590,cs),
(133,659,o),
(238,713,o),
(329,713,cs),
(484,713,ls),
(499,713,o),
(511,728,o),
(511,744,cs),
(511,772,o),
(487,772,o),
(482,772,cs),
(330,772,ls),
(177,772,o),
(72,684,o),
(72,586,cs),
(72,501,o),
(141,457,o),
(235,391,cs),
(320,330,o),
(353,286,o),
(353,217,cs),
(353,99,o),
(196,59,o),
(119,59,cs),
(0,59,ls),
(-15,59,o),
(-29,44,o),
(-29,29,cs),
(-29,0,o),
(-2,0,o),
(0,0,cs),
(119,0,ls)
);
}
);
vertWidth = 0;
width = 594;
}
);
},
{
color = 7;
glyphname = T.ss04;
kernLeft = T;
kernRight = T;
layers = (
{
anchors = (
{
name = bottom;
pos = (531,0);
},
{
name = center;
pos = (708,1004);
},
{
name = top;
pos = (885,2008);
}
);
layerId = m01;
shapes = (
{
closed = 1;
nodes = (
(693,0,o),
(704,54,o),
(710,86,cs),
(1018,1849,l),
(1524,1849,ls),
(1590,1849,o),
(1611,1888,o),
(1611,1929,cs),
(1611,1968,o),
(1591,2008,o),
(1524,2008,cs),
(340,2008,ls),
(270,2008,o),
(250,1968,o),
(250,1929,cs),
(250,1888,o),
(271,1849,o),
(340,1849,cs),
(843,1849,l),
(539,94,l),
(527,42,o),
(555,0,o),
(618,0,cs)
);
},
{
closed = 1;
nodes = (
(567,20,o),
(549,48,o),
(559,90,c),
(867,1869,l),
(340,1869,ls),
(283,1869,o),
(270,1895,o),
(270,1929,cs),
(270,1962,o),
(284,1988,o),
(340,1988,cs),
(1524,1988,ls),
(1577,1988,o),
(1591,1962,o),
(1591,1929,cs),
(1591,1895,o),
(1578,1869,o),
(1524,1869,cs),
(1001,1869,l),
(691,89,ls),
(686,58,o),
(677,20,o),
(618,20,cs)
);
},
{
closed = 1;
nodes = (
(957,1824,o),
(977,1844,o),
(977,1869,cs),
(977,1894,o),
(957,1914,o),
(932,1914,cs),
(907,1914,o),
(887,1894,o),
(887,1869,cs),
(887,1844,o),
(907,1824,o),
(932,1824,cs)
);
}
);
vertWidth = 0;
width = 1511;
},
{
anchors = (
{
name = bottom;
pos = (588,0);
},
{
name = center;
pos = (765,1004);
},
{
name = top;
pos = (942,2008);
}
);
layerId = "140DECC1-64C4-40C0-9C07-503DBC3F4160";
shapes = (
{
closed = 1;
nodes = (
(788,-23,o),
(847,44,o),
(862,116,c),
(1142,1720,l),
(1552,1720,ls),
(1663,1720,o),
(1726,1792,o),
(1726,1875,cs),
(1726,1967,o),
(1657,2038,o),
(1552,2038,cs),
(434,2038,ls),
(329,2038,o),
(260,1967,o),
(260,1875,cs),
(260,1792,o),
(323,1720,o),
(434,1720,cs),
(789,1720,l),
(513,155,ls),
(496,56,o),
(567,-23,o),
(676,-23,cs)
);
},
{
closed = 1;
nodes = (
(588,17,o),
(540,71,o),
(553,147,cs),
(837,1760,l),
(434,1760,ls),
(344,1760,o),
(300,1810,o),
(300,1875,cs),
(300,1948,o),
(348,1998,o),
(434,1998,cs),
(1552,1998,ls),
(1638,1998,o),
(1686,1948,o),
(1686,1875,cs),
(1686,1810,o),
(1642,1760,o),
(1552,1760,cs),
(1108,1760,l),
(822,124,ls),
(811,64,o),
(768,17,o),
(676,17,cs)
);
},
{
closed = 1;
nodes = (
(1002,1691,o),
(1029,1718,o),
(1029,1751,cs),
(1029,1784,o),
(1002,1811,o),
(969,1811,cs),
(936,1811,o),
(909,1784,o),
(909,1751,cs),
(909,1718,o),
(936,1691,o),
(969,1691,cs)
);
}
);
vertWidth = 0;
width = 1636;
}
);
metricLeft = T;
metricRight = T;
},
{
color = 7;
glyphname = U.ss04;
kernLeft = U;
kernRight = H;
layers = (
{
anchors = (
{
name = bottom;
pos = (726,0);
},
{
name = ogonek;
pos = (1357,10);
},
{
name = top;
pos = (1080,2008);
},
{
name = topright;
pos = (1847,2008);
}
);
layerId = m01;
shapes = (
{
closed = 1;
nodes = (
(727,-14,o),
(1096,385,o),
(1307,885,c),
(1170,93,ls),
(1159,29,o),
(1200,-4,o),
(1249,-4,cs),
(1288,-4,o),
(1332,23,o),
(1341,74,cs),
(1665,1915,ls),
(1674,1967,o),
(1650,2007,o),
(1583,2007,cs),
(1520,2007,o),
(1497,1966,o),
(1488,1926,c),
(1429,1587,l),
(1172,757,o),
(752,147,o),
(463,147,cs),
(330,147,o),
(359,363,o),
(395,559,cs),
(641,1910,ls),
(650,1959,o),
(619,2003,o),
(566,2007,cs),
(511,2007,o),
(475,1960,o),
(466,1908,cs),
(224,569,ls),
(151,164,o),
(249,-14,o),
(437,-14,cs)
);
},
{
closed = 1;
nodes = (
(262,6,o),
(173,169,o),
(244,565,cs),
(485,1905,ls),
(493,1951,o),
(522,1987,o),
(565,1987,cs),
(607,1984,o),
(628,1953,o),
(621,1913,cs),
(376,562,ls),
(340,365,o),
(306,128,o),
(463,128,cs),
(765,128,o),
(1190,749,o),
(1448,1583,c),
(1508,1923,ls),
(1514,1958,o),
(1532,1987,o),
(1583,1987,cs),
(1637,1987,o),
(1654,1961,o),
(1646,1918,cs),
(1321,78,ls),
(1314,36,o),
(1281,16,o),
(1249,16,cs),
(1208,16,o),
(1180,39,o),
(1189,89,cs),
(1332,911,ls),
(1344,981,o),
(1337,1000,o),
(1299,915,cs),
(1057,372,o),
(709,6,o),
(437,6,cs)
);
},
{
closed = 1;
nodes = (
(580,1874,o),
(600,1894,o),
(600,1919,cs),
(600,1944,o),
(580,1964,o),
(555,1964,cs),
(530,1964,o),
(510,1944,o),
(510,1919,cs),
(510,1894,o),
(530,1874,o),
(555,1874,cs)
);
}
);
vertWidth = 0;
width = 1707;
},
{
anchors = (
{
name = bottom;
pos = (797,0);
},
{
name = ogonek;
pos = (1500,10);
},
{
name = top;
pos = (1151,2008);
},
{
name = topright;
pos = (2008,2008);
}
);
layerId = "140DECC1-64C4-40C0-9C07-503DBC3F4160";
shapes = (
{
closed = 1;
nodes = (
(760,-33,o),
(1015,146,o),
(1223,459,c),
(1169,154,ls),
(1148,38,o),
(1236,-20,o),
(1332,-20,cs),
(1408,-20,o),
(1500,20,o),
(1516,111,cs),
(1823,1857,ls),
(1840,1955,o),
(1773,2028,o),
(1657,2028,cs),
(1560,2028,o),
(1488,1975,o),
(1473,1894,cs),
(1434,1682,l),
(1199,812,o),
(876,285,o),
(596,285,cs),
(521,285,o),
(528,386,o),
(561,568,cs),
(790,1851,ls),
(808,1953,o),
(732,2028,o),
(630,2028,cs),
(519,2031,o),
(452,1937,o),
(441,1877,cs),
(212,607,ls),
(133,167,o),
(271,-33,o),
(510,-33,cs)
);
},
{
closed = 1;
nodes = (
(295,7,o),
(177,181,o),
(252,599,cs),
(481,1869,ls),
(490,1919,o),
(541,1991,o),
(630,1988,cs),
(713,1988,o),
(764,1936,o),
(750,1859,cs),
(521,576,ls),
(487,388,o),
(477,245,o),
(596,245,cs),
(902,245,o),
(1236,794,o),
(1474,1674,c),
(1513,1888,ls),
(1524,1950,o),
(1575,1988,o),
(1657,1988,cs),
(1752,1988,o),
(1797,1940,o),
(1783,1863,cs),
(1476,117,ls),
(1464,50,o),
(1398,20,o),
(1332,20,cs),
(1252,20,o),
(1193,59,o),
(1209,148,cs),
(1279,550,ls),
(1292,622,o),
(1278,628,o),
(1236,556,cs),
(1028,202,o),
(765,7,o),
(510,7,cs)
);
},
{
closed = 1;
nodes = (
(649,1819,o),
(676,1846,o),
(676,1879,cs),
(676,1912,o),
(649,1939,o),
(616,1939,cs),
(583,1939,o),
(556,1912,o),
(556,1879,cs),
(556,1846,o),
(583,1819,o),
(616,1819,cs)
);
}
);
vertWidth = 0;
width = 1876;
}
);
metricLeft = U;
metricRight = U;
},
{
color = 7;
glyphname = V.ss04;
kernLeft = V;
kernRight = V;
layers = (
{
anchors = (
{
name = bottom;
pos = (515,0);
},
{
name = top;
pos = (869,2008);
}
);
layerId = m01;
shapes = (
{
closed = 1;
nodes = (
(558,0,o),
(573,40,o),
(594,83,cs),
(1490,1896,ls),
(1525,1966,o),
(1482,2008,o),
(1430,2008,cs),
(1366,2008,o),
(1339,1982,o),
(1313,1928,cs),
(548,347,l),
(474,1926,ls),
(472,1959,o),
(456,2008,o),
(379,2008,cs),
(318,2008,o),
(297,1968,o),
(300,1917,cs),
(400,94,ls),
(402,53,o),
(432,0,o),
(492,0,cs)
);
},
{
closed = 1;
nodes = (
(445,20,o),
(422,60,o),
(420,96,cs),
(320,1918,ls),
(318,1962,o),
(331,1988,o),
(379,1988,cs),
(442,1988,o),
(454,1955,o),
(455,1925,cs),
(530,314,ls),
(532,273,o),
(534,273,o),
(553,312,cs),
(1331,1919,ls),
(1355,1969,o),
(1374,1988,o),
(1430,1988,cs),
(1472,1988,o),
(1500,1960,o),
(1472,1904,cs),
(576,92,ls),
(554,48,o),
(545,20,o),
(492,20,cs)
);
},
{
closed = 1;
nodes = (
(410,1874,o),
(430,1894,o),
(430,1919,cs),
(430,1944,o),
(410,1964,o),
(385,1964,cs),
(360,1964,o),
(340,1944,o),
(340,1919,cs),
(340,1894,o),
(360,1874,o),
(385,1874,cs)
);
}
);
vertWidth = 0;
width = 1503;
},
{
anchors = (
{
name = bottom;
pos = (687,0);
},
{
name = top;
pos = (1041,2008);
}
);
layerId = "140DECC1-64C4-40C0-9C07-503DBC3F4160";
shapes = (
{
closed = 1;
nodes = (
(731,-25,o),
(779,34,o),
(809,95,cs),
(1659,1817,ls),
(1719,1939,o),
(1640,2028,o),
(1527,2028,cs),
(1430,2028,o),
(1366,1987,o),
(1332,1917,cs),
(754,724,l),
(699,1887,ls),
(695,1968,o),
(629,2028,o),
(520,2028,cs),
(422,2028,o),
(354,1971,o),
(360,1867,cs),
(458,134,ls),
(463,49,o),
(533,-25,o),
(632,-25,cs)
);
},
{
closed = 1;
nodes = (
(552,15,o),
(502,68,o),
(498,136,cs),
(400,1869,ls),
(395,1950,o),
(439,1988,o),
(520,1988,cs),
(611,1988,o),
(656,1947,o),
(659,1885,cs),
(717,673,ls),
(721,579,o),
(732,586,o),
(774,673,cs),
(1368,1901,ls),
(1395,1957,o),
(1444,1988,o),
(1527,1988,cs),
(1617,1988,o),
(1670,1931,o),
(1623,1835,cs),
(773,113,ls),
(745,56,o),
(710,15,o),
(632,15,cs)
);
},
{
closed = 1;
nodes = (
(563,1819,o),
(590,1846,o),
(590,1879,cs),
(590,1912,o),
(563,1939,o),
(530,1939,cs),
(497,1939,o),
(470,1912,o),
(470,1879,cs),
(470,1846,o),
(497,1819,o),
(530,1819,cs)
);
}
);
vertWidth = 0;
width = 1533;
}
);
metricLeft = V;
metricRight = V;
},
{
color = 7;
glyphname = W.ss04;
kernLeft = W;
kernRight = W;
layers = (
{
anchors = (
{
name = bottom;
pos = (1042,0);
},
{
name = top;
pos = (1396,2008);
}
);
layerId = m01;
shapes = (
{
closed = 1;
nodes = (
(556,0,o),
(583,53,o),
(599,86,cs),
(1370,1677,l),
(1451,69,ls),
(1453,22,o),
(1482,0,o),
(1541,0,cs),
(1584,0,o),
(1614,30,o),
(1640,83,cs),
(2534,1896,ls),
(2568,1966,o),
(2525,2008,o),
(2463,2008,cs),
(2415,2008,o),
(2381,1980,o),
(2356,1928,cs),
(1597,360,l),
(1517,1927,ls),
(1515,1959,o),
(1494,2008,o),
(1414,2008,cs),
(1360,2008,o),
(1323,1952,o),
(1313,1930,cs),
(552,351,l),
(475,1926,ls),
(473,1959,o),
(457,2008,o),
(380,2008,cs),
(318,2008,o),
(297,1968,o),
(300,1917,cs),
(400,94,ls),
(403,41,o),
(438,0,o),
(498,0,cs)
);
},
{
closed = 1;
nodes = (
(449,20,o),
(423,50,o),
(420,96,cs),
(320,1918,ls),
(318,1962,o),
(331,1988,o),
(380,1988,cs),
(442,1988,o),
(454,1955,o),
(455,1925,cs),
(534,318,ls),
(536,283,o),
(542,285,o),
(559,321,cs),
(1331,1921,ls),
(1341,1942,o),
(1371,1988,o),
(1414,1988,cs),
(1479,1988,o),
(1496,1954,o),
(1497,1925,cs),
(1578,339,ls),
(1580,295,o),
(1588,297,o),
(1608,338,cs),
(2373,1919,ls),
(2396,1967,o),
(2423,1988,o),
(2463,1988,cs),
(2515,1988,o),
(2544,1960,o),
(2516,1904,cs),
(1622,91,ls),
(1598,43,o),
(1576,20,o),
(1541,20,cs),
(1490,20,o),
(1473,33,o),
(1471,70,cs),
(1387,1706,ls),
(1385,1748,o),
(1380,1744,o),
(1361,1705,cs),
(581,94,ls),
(565,62,o),
(544,20,o),
(498,20,cs)
);
},
{
closed = 1;
nodes = (
(408,1874,o),
(428,1894,o),
(428,1919,cs),
(428,1944,o),
(408,1964,o),
(383,1964,cs),
(358,1964,o),
(338,1944,o),
(338,1919,cs),
(338,1894,o),
(358,1874,o),
(383,1874,cs)
);
}
);
vertWidth = 0;
width = 2496;
},
{
anchors = (
{
name = bottom;
pos = (1193,0);
},
{
name = top;
pos = (1547,2008);
}
);
layerId = "140DECC1-64C4-40C0-9C07-503DBC3F4160";
shapes = (
{
closed = 1;
nodes = (
(705,-20,o),
(768,23,o),
(804,95,cs),
(1398,1292,l),
(1478,137,ls),
(1485,40,o),
(1554,-20,o),
(1649,-20,cs),
(1725,-20,o),
(1792,24,o),
(1829,100,cs),
(2671,1817,ls),
(2731,1939,o),
(2639,2028,o),
(2534,2028,cs),
(2427,2028,o),
(2368,1970,o),
(2339,1910,cs),
(1772,734,l),
(1690,1887,ls),
(1684,1973,o),
(1623,2028,o),
(1504,2028,cs),
(1389,2028,o),
(1356,1960,o),
(1337,1921,cs),
(749,719,l),
(699,1887,ls),
(696,1967,o),
(633,2028,o),
(523,2028,cs),
(425,2028,o),
(355,1971,o),
(360,1867,cs),
(451,134,ls),
(456,40,o),
(529,-20,o),
(638,-20,cs)
);
},
{
closed = 1;
nodes = (
(546,20,o),
(495,62,o),
(491,136,cs),
(400,1869,ls),
(396,1950,o),
(442,1988,o),
(523,1988,cs),
(614,1988,o),
(656,1947,o),
(659,1885,cs),
(711,656,ls),
(714,575,o),
(723,578,o),
(761,655,cs),
(1373,1903,ls),
(1392,1942,o),
(1414,1988,o),
(1504,1988,cs),
(1605,1988,o),
(1645,1952,o),
(1650,1885,cs),
(1736,669,ls),
(1741,595,o),
(1747,593,o),
(1784,669,cs),
(2375,1892,ls),
(2400,1944,o),
(2445,1988,o),
(2534,1988,cs),
(2617,1988,o),
(2681,1928,o),
(2635,1835,cs),
(1793,118,ls),
(1761,54,o),
(1711,20,o),
(1649,20,cs),
(1571,20,o),
(1523,62,o),
(1518,139,cs),
(1435,1344,ls),
(1430,1421,o),
(1418,1422,o),
(1380,1345,cs),
(768,113,ls),
(738,53,o),
(691,20,o),
(638,20,cs)
);
},
{
closed = 1;
nodes = (
(563,1819,o),
(590,1846,o),
(590,1879,cs),
(590,1912,o),
(563,1939,o),
(530,1939,cs),
(497,1939,o),
(470,1912,o),
(470,1879,cs),
(470,1846,o),
(497,1819,o),
(530,1819,cs)
);
}
);
vertWidth = 0;
width = 2564;
}
);
metricLeft = W;
metricRight = W;
},
{
color = 7;
glyphname = X.ss04;
kernLeft = X;
kernRight = X;
layers = (
{
anchors = (
{
name = bottom;
pos = (645,0);
},
{
name = top;
pos = (999,2008);
}
);
layerId = m01;
shapes = (
{
closed = 1;
nodes = (
(124,-11,o),
(189,-13,o),
(226,38,cs),
(797,825,l),
(1082,66,ls),
(1106,1,o),
(1174,-11,o),
(1217,11,cs),
(1252,29,o),
(1266,70,o),
(1247,121,cs),
(919,992,l),
(1555,1866,ls),
(1591,1916,o),
(1583,1967,o),
(1553,1990,cs),
(1518,2019,o),
(1453,2017,o),
(1415,1965,cs),
(847,1185,l),
(560,1945,ls),
(537,2007,o),
(481,2020,o),
(438,2004,cs),
(395,1988,o),
(379,1944,o),
(402,1882,cs),
(726,1018,l),
(80,132,ls),
(49,90,o),
(57,44,o),
(86,20,cs)
);
},
{
closed = 1;
nodes = (
(76,54,o),
(71,87,o),
(95,120,cs),
(748,1015,l),
(420,1889,ls),
(400,1942,o),
(411,1974,o),
(445,1986,cs),
(479,2000,o),
(521,1990,o),
(541,1938,cs),
(832,1168,ls),
(840,1147,o),
(843,1147,o),
(860,1170,cs),
(1431,1954,ls),
(1462,1996,o),
(1513,1998,o),
(1540,1974,cs),
(1563,1957,o),
(1570,1920,o),
(1539,1878,cs),
(897,995,l),
(1229,114,ls),
(1245,71,o),
(1235,43,o),
(1208,29,cs),
(1172,10,o),
(1121,20,o),
(1101,73,cs),
(811,844,ls),
(804,863,o),
(801,863,o),
(788,845,cs),
(210,50,ls),
(179,8,o),
(130,10,o),
(99,36,cs)
);
},
{
closed = 1;
nodes = (
(502,1874,o),
(522,1894,o),
(522,1919,cs),
(522,1944,o),
(502,1964,o),
(477,1964,cs),
(452,1964,o),
(432,1944,o),
(432,1919,cs),
(432,1894,o),
(452,1874,o),
(477,1874,cs)
);
}
);
vertWidth = 0;
width = 1549;
},
{
anchors = (
{
name = bottom;
pos = (659,0);
},
{
name = top;
pos = (1013,2008);
}
);
layerId = "140DECC1-64C4-40C0-9C07-503DBC3F4160";
shapes = (
{
closed = 1;
nodes = (
(146,-31,o),
(282,-49,o),
(344,37,cs),
(784,653,l),
(999,79,ls),
(1038,-24,o),
(1170,-40,o),
(1248,0,cs),
(1321,38,o),
(1358,109,o),
(1323,194,cs),
(1023,986,l),
(1588,1775,ls),
(1649,1857,o),
(1633,1934,o),
(1569,1989,cs),
(1507,2046,o),
(1382,2048,o),
(1319,1963,cs),
(884,1358,l),
(667,1932,ls),
(629,2031,o),
(516,2045,o),
(438,2019,cs),
(348,1987,o),
(313,1910,o),
(354,1803,cs),
(645,1026,l),
(68,225,ls),
(16,153,o),
(15,81,o),
(79,24,cs)
);
},
{
closed = 1;
nodes = (
(57,97,o),
(57,142,o),
(100,201,cs),
(689,1020,l),
(392,1817,ls),
(358,1906,o),
(380,1956,o),
(452,1981,cs),
(518,2004,o),
(601,1993,o),
(629,1918,cs),
(856,1316,ls),
(870,1278,o),
(875,1279,o),
(902,1316,cs),
(1351,1939,ls),
(1400,2006,o),
(1493,2004,o),
(1543,1959,cs),
(1595,1914,o),
(1605,1865,o),
(1556,1799,cs),
(979,992,l),
(1285,180,ls),
(1311,112,o),
(1289,67,o),
(1230,36,cs),
(1165,3,o),
(1066,15,o),
(1037,93,cs),
(812,694,ls),
(798,733,o),
(793,733,o),
(766,695,cs),
(312,61,ls),
(265,-5,o),
(160,9,o),
(105,54,cs)
);
},
{
closed = 1;
nodes = (
(546,1819,o),
(573,1846,o),
(573,1879,cs),
(573,1912,o),
(546,1939,o),
(513,1939,cs),
(480,1939,o),
(453,1912,o),
(453,1879,cs),
(453,1846,o),
(480,1819,o),
(513,1819,cs)
);
}
);
vertWidth = 0;
width = 1576;
}
);
metricLeft = X;
metricRight = X;
},
{
color = 7;
glyphname = Y.ss04;
kernLeft = Y;
kernRight = Y;
layers = (
{
anchors = (
{
name = bottom;
pos = (503,0);
},
{
name = top;
pos = (857,2008);
},
{
name = topleft;
pos = (279,2008);
}
);
layerId = m01;
shapes = (
{
closed = 1;
nodes = (
(358,1874,o),
(378,1894,o),
(378,1919,cs),
(378,1944,o),
(358,1964,o),
(333,1964,cs),
(308,1964,o),
(288,1944,o),
(288,1919,cs),
(288,1894,o),
(308,1874,o),
(333,1874,cs)
);
},
{
closed = 1;
nodes = (
(1292,1950,ls),
(1316,1983,o),
(1334,1985,o),
(1363,1985,cs),
(1393,1985,o),
(1425,1959,o),
(1425,1931,cs),
(1425,1915,o),
(1419,1900,o),
(1401,1875,cs),
(86,89,ls),
(50,40,o),
(31,20,o),
(-10,20,cs),
(-46,20,o),
(-78,56,o),
(-52,91,cs),
(615,1013,l),
(276,1889,ls),
(266,1915,o),
(264,1920,o),
(264,1937,cs),
(264,1963,o),
(291,1988,o),
(324,1988,cs),
(367,1988,o),
(389,1967,o),
(402,1933,cs),
(707,1139,l)
);
},
{
closed = 1;
nodes = (
(-103,51,o),
(-58,0,o),
(-10,0,cs),
(47,0,o),
(68,35,o),
(105,85,cs),
(1417,1863,ls),
(1437,1890,o),
(1445,1911,o),
(1445,1931,cs),
(1445,1971,o),
(1400,2005,o),
(1363,2005,cs),
(1330,2005,o),
(1303,2000,o),
(1276,1962,cs),
(713,1180,l),
(421,1940,ls),
(406,1979,o),
(375,2008,o),
(324,2008,cs),
(283,2008,o),
(244,1974,o),
(244,1937,cs),
(244,1916,o),
(248,1907,o),
(258,1882,cs),
(592,1014,l),
(-72,94,ls)
);
}
);
vertWidth = 0;
width = 1196;
},
{
anchors = (
{
name = bottom;
pos = (551,0);
},
{
name = top;
pos = (905,2008);
},
{
name = topleft;
pos = (279,2008);
}
);
layerId = "140DECC1-64C4-40C0-9C07-503DBC3F4160";
shapes = (
{
closed = 1;
nodes = (
(428,1819,o),
(455,1846,o),
(455,1879,cs),
(455,1912,o),
(428,1939,o),
(395,1939,cs),
(362,1939,o),
(335,1912,o),
(335,1879,cs),
(335,1846,o),
(362,1819,o),
(395,1819,cs)
);
},
{
closed = 1;
nodes = (
(1261,1928,ls),
(1289,1967,o),
(1327,1984,o),
(1372,1984,cs),
(1422,1984,o),
(1503,1943,o),
(1503,1874,cs),
(1503,1842,o),
(1496,1818,o),
(1471,1784,cs),
(252,136,ls),
(199,64,o),
(159,22,o),
(92,22,cs),
(21,22,o),
(-64,92,o),
(-18,155,cs),
(592,1003,l),
(277,1817,ls),
(264,1850,o),
(260,1865,o),
(260,1894,cs),
(260,1948,o),
(319,1988,o),
(404,1988,cs),
(461,1988,o),
(492,1967,o),
(516,1904,cs),
(766,1246,l)
);
},
{
closed = 1;
nodes = (
(-116,81,o),
(0,-18,o),
(92,-18,cs),
(183,-18,o),
(233,48,o),
(292,128,cs),
(1503,1760,ls),
(1531,1798,o),
(1543,1833,o),
(1543,1874,cs),
(1543,1969,o),
(1434,2024,o),
(1372,2024,cs),
(1317,2024,o),
(1265,2000,o),
(1229,1950,cs),
(779,1325,l),
(553,1920,ls),
(525,1993,o),
(479,2028,o),
(404,2028,cs),
(304,2028,o),
(220,1972,o),
(220,1894,cs),
(220,1859,o),
(226,1838,o),
(239,1803,cs),
(548,1004,l),
(-58,161,ls)
);
}
);
vertWidth = 0;
width = 1292;
}
);
},
